G04 #@! TF.GenerationSoftware,KiCad,Pcbnew,(5.1.4)-1*
G04 #@! TF.CreationDate,2020-10-06T21:16:52-04:00*
G04 #@! TF.ProjectId,LapTimerBoard,4c617054-696d-4657-9242-6f6172642e6b,rev?*
G04 #@! TF.SameCoordinates,Original*
G04 #@! TF.FileFunction,Copper,L1,Top*
G04 #@! TF.FilePolarity,Positive*
%FSLAX46Y46*%
G04 Gerber Fmt 4.6, Leading zero omitted, Abs format (unit mm)*
G04 Created by KiCad (PCBNEW (5.1.4)-1) date 2020-10-06 21:16:52*
%MOMM*%
%LPD*%
G04 APERTURE LIST*
%ADD10R,1.700000X1.700000*%
%ADD11O,1.600000X1.600000*%
%ADD12R,1.600000X1.600000*%
%ADD13O,1.700000X1.700000*%
%ADD14C,1.700000*%
%ADD15C,2.000000*%
%ADD16R,2.000000X2.000000*%
%ADD17C,0.250000*%
G04 APERTURE END LIST*
D10*
X110490000Y-107950000D03*
X110490000Y-110490000D03*
D11*
X134905001Y-133625001D03*
X119665001Y-133625001D03*
D12*
X134905001Y-98065001D03*
D11*
X119665001Y-131085001D03*
X134905001Y-100605001D03*
X119665001Y-128545001D03*
X134905001Y-103145001D03*
X119665001Y-126005001D03*
X134905001Y-105685001D03*
X119665001Y-123465001D03*
X134905001Y-108225001D03*
X119665001Y-120925001D03*
X134905001Y-110765001D03*
X119665001Y-118385001D03*
X134905001Y-113305001D03*
X119665001Y-115845001D03*
X134905001Y-115845001D03*
X119665001Y-113305001D03*
X134905001Y-118385001D03*
X119665001Y-110765001D03*
X134905001Y-120925001D03*
X119665001Y-108225001D03*
X134905001Y-123465001D03*
X119665001Y-105685001D03*
X134905001Y-126005001D03*
X119665001Y-103145001D03*
X134905001Y-128545001D03*
X119665001Y-100605001D03*
X134905001Y-131085001D03*
D12*
X119665001Y-98065001D03*
D13*
X135890000Y-87630000D03*
X133350000Y-87630000D03*
X130810000Y-87630000D03*
X128270000Y-87630000D03*
D10*
X125730000Y-87630000D03*
D13*
X123190000Y-87630000D03*
X120650000Y-87630000D03*
D14*
X118110000Y-87630000D03*
D13*
X110490000Y-119380000D03*
D14*
X110490000Y-121920000D03*
D13*
X110490000Y-130810000D03*
D10*
X110490000Y-133350000D03*
D14*
X110490000Y-135890000D03*
X110490000Y-138430000D03*
D15*
X109220000Y-99040000D03*
D16*
X109220000Y-91440000D03*
D17*
X109220000Y-119380000D02*
X110490000Y-119380000D01*
X107950000Y-120650000D02*
X109220000Y-119380000D01*
X110490000Y-130810000D02*
X109220000Y-130810000D01*
X109220000Y-130810000D02*
X107950000Y-129540000D01*
X110490000Y-121920000D02*
X107950000Y-121920000D01*
X107950000Y-129540000D02*
X107950000Y-121920000D01*
X107950000Y-121920000D02*
X107950000Y-120650000D01*
X134905001Y-100605001D02*
X131085001Y-100605001D01*
X125730000Y-95250000D02*
X125730000Y-87630000D01*
X131085001Y-100605001D02*
X125730000Y-95250000D01*
X111590000Y-133350000D02*
X114300000Y-130640000D01*
X110490000Y-133350000D02*
X111590000Y-133350000D01*
X114300000Y-130640000D02*
X114300000Y-111760000D01*
X113030000Y-110490000D02*
X110490000Y-110490000D01*
X114300000Y-111760000D02*
X113030000Y-110490000D01*
X114300000Y-111760000D02*
X114300000Y-109220000D01*
X114300000Y-109220000D02*
X113030000Y-107950000D01*
X113030000Y-107950000D02*
X110490000Y-107950000D01*
X114300000Y-92710000D02*
X113030000Y-91440000D01*
X113030000Y-91440000D02*
X109220000Y-91440000D01*
X114300000Y-92710000D02*
X116840000Y-90170000D01*
X116840000Y-90170000D02*
X125730000Y-90170000D01*
X119665001Y-105685001D02*
X116564999Y-105685001D01*
X116564999Y-105685001D02*
X114300000Y-107950000D01*
X114300000Y-109220000D02*
X114300000Y-107950000D01*
X114300000Y-107950000D02*
X114300000Y-92710000D01*
X130810000Y-91440000D02*
X130810000Y-87630000D01*
X134905001Y-118385001D02*
X136884999Y-118385001D01*
X136884999Y-118385001D02*
X138430000Y-116840000D01*
X138430000Y-116840000D02*
X138430000Y-93980000D01*
X138430000Y-93980000D02*
X137160000Y-92710000D01*
X137160000Y-92710000D02*
X132080000Y-92710000D01*
X132080000Y-92710000D02*
X130810000Y-91440000D01*
X120374999Y-100605001D02*
X119665001Y-100605001D01*
X120650000Y-100330000D02*
X120374999Y-100605001D01*
X123190000Y-102870000D02*
X120650000Y-100330000D01*
X123190000Y-134620000D02*
X123190000Y-102870000D01*
X110490000Y-135890000D02*
X121920000Y-135890000D01*
X121920000Y-135890000D02*
X123190000Y-134620000D01*
X120715001Y-98065001D02*
X119665001Y-98065001D01*
X124460000Y-101810000D02*
X120715001Y-98065001D01*
X124460000Y-137160000D02*
X124460000Y-101810000D01*
X123190000Y-138430000D02*
X124460000Y-137160000D01*
X110490000Y-138430000D02*
X123190000Y-138430000D01*
M02*
