M48
; DRILL file {KiCad (5.1.4)-1} date 10/8/2020 18:44:21
; FORMAT={3:3/ absolute / metric / suppress leading zeros}
; #@! TF.CreationDate,2020-10-08T18:44:21-04:00
; #@! TF.GenerationSoftware,Kicad,Pcbnew,(5.1.4)-1
FMAT,2
METRIC,TZ
T1C0.800
T2C1.000
T3C2.700
%
G90
G05
T1
X119665Y-98065
X119665Y-100605
X119665Y-103145
X119665Y-105685
X119665Y-108225
X119665Y-110765
X119665Y-113305
X119665Y-115845
X119665Y-118385
X119665Y-120925
X119665Y-123465
X119665Y-126005
X119665Y-128545
X119665Y-131085
X119665Y-133625
X134905Y-98065
X134905Y-100605
X134905Y-103145
X134905Y-105685
X134905Y-108225
X134905Y-110765
X134905Y-113305
X134905Y-115845
X134905Y-118385
X134905Y-120925
X134905Y-123465
X134905Y-126005
X134905Y-128545
X134905Y-131085
X134905Y-133625
T2
X110490Y-119380
X110490Y-121920
X110490Y-107950
X110490Y-110490
X109220Y-91440
X109220Y-99040
X110490Y-130810
X110490Y-133350
X110490Y-135890
X110490Y-138430
X118110Y-87630
X120650Y-87630
X123190Y-87630
X125730Y-87630
X128270Y-87630
X130810Y-87630
X133350Y-87630
X135890Y-87630
T3
X142494Y-140208
X142494Y-87122
X101346Y-140208
T0
M30
