G04 #@! TF.GenerationSoftware,KiCad,Pcbnew,(5.1.4)-1*
G04 #@! TF.CreationDate,2020-10-08T18:43:15-04:00*
G04 #@! TF.ProjectId,LapTimerBoard,4c617054-696d-4657-9242-6f6172642e6b,rev?*
G04 #@! TF.SameCoordinates,Original*
G04 #@! TF.FileFunction,Legend,Top*
G04 #@! TF.FilePolarity,Positive*
%FSLAX46Y46*%
G04 Gerber Fmt 4.6, Leading zero omitted, Abs format (unit mm)*
G04 Created by KiCad (PCBNEW (5.1.4)-1) date 2020-10-08 18:43:15*
%MOMM*%
%LPD*%
G04 APERTURE LIST*
%ADD10C,0.500000*%
%ADD11C,0.010000*%
%ADD12C,0.120000*%
%ADD13C,0.150000*%
G04 APERTURE END LIST*
D10*
X143779761Y-106727047D02*
X142827380Y-107393714D01*
X143779761Y-107869904D02*
X141779761Y-107869904D01*
X141779761Y-107108000D01*
X141875000Y-106917523D01*
X141970238Y-106822285D01*
X142160714Y-106727047D01*
X142446428Y-106727047D01*
X142636904Y-106822285D01*
X142732142Y-106917523D01*
X142827380Y-107108000D01*
X142827380Y-107869904D01*
X143684523Y-105108000D02*
X143779761Y-105298476D01*
X143779761Y-105679428D01*
X143684523Y-105869904D01*
X143494047Y-105965142D01*
X142732142Y-105965142D01*
X142541666Y-105869904D01*
X142446428Y-105679428D01*
X142446428Y-105298476D01*
X142541666Y-105108000D01*
X142732142Y-105012761D01*
X142922619Y-105012761D01*
X143113095Y-105965142D01*
X142446428Y-104346095D02*
X143779761Y-103869904D01*
X142446428Y-103393714D01*
X143589285Y-102631809D02*
X143684523Y-102536571D01*
X143779761Y-102631809D01*
X143684523Y-102727047D01*
X143589285Y-102631809D01*
X143779761Y-102631809D01*
X143779761Y-99108000D02*
X143779761Y-100250857D01*
X143779761Y-99679428D02*
X141779761Y-99679428D01*
X142065476Y-99869904D01*
X142255952Y-100060380D01*
X142351190Y-100250857D01*
X143589285Y-98250857D02*
X143684523Y-98155619D01*
X143779761Y-98250857D01*
X143684523Y-98346095D01*
X143589285Y-98250857D01*
X143779761Y-98250857D01*
X141779761Y-96917523D02*
X141779761Y-96727047D01*
X141875000Y-96536571D01*
X141970238Y-96441333D01*
X142160714Y-96346095D01*
X142541666Y-96250857D01*
X143017857Y-96250857D01*
X143398809Y-96346095D01*
X143589285Y-96441333D01*
X143684523Y-96536571D01*
X143779761Y-96727047D01*
X143779761Y-96917523D01*
X143684523Y-97108000D01*
X143589285Y-97203238D01*
X143398809Y-97298476D01*
X143017857Y-97393714D01*
X142541666Y-97393714D01*
X142160714Y-97298476D01*
X141970238Y-97203238D01*
X141875000Y-97108000D01*
X141779761Y-96917523D01*
D11*
G36*
X102456030Y-134311858D02*
G01*
X102481784Y-134063668D01*
X102520421Y-133947565D01*
X102531333Y-133942666D01*
X102572565Y-134022258D01*
X102601764Y-134241164D01*
X102615423Y-134569579D01*
X102616000Y-134662333D01*
X102606636Y-135012808D01*
X102580882Y-135260999D01*
X102542245Y-135377101D01*
X102531333Y-135382000D01*
X102490101Y-135302408D01*
X102460902Y-135083502D01*
X102447243Y-134755087D01*
X102446666Y-134662333D01*
X102456030Y-134311858D01*
X102456030Y-134311858D01*
G37*
X102456030Y-134311858D02*
X102481784Y-134063668D01*
X102520421Y-133947565D01*
X102531333Y-133942666D01*
X102572565Y-134022258D01*
X102601764Y-134241164D01*
X102615423Y-134569579D01*
X102616000Y-134662333D01*
X102606636Y-135012808D01*
X102580882Y-135260999D01*
X102542245Y-135377101D01*
X102531333Y-135382000D01*
X102490101Y-135302408D01*
X102460902Y-135083502D01*
X102447243Y-134755087D01*
X102446666Y-134662333D01*
X102456030Y-134311858D01*
G36*
X103048697Y-134311858D02*
G01*
X103074450Y-134063668D01*
X103113087Y-133947565D01*
X103124000Y-133942666D01*
X103165232Y-134022258D01*
X103194431Y-134241164D01*
X103208090Y-134569579D01*
X103208666Y-134662333D01*
X103199302Y-135012808D01*
X103173549Y-135260999D01*
X103134912Y-135377101D01*
X103124000Y-135382000D01*
X103082767Y-135302408D01*
X103053568Y-135083502D01*
X103039909Y-134755087D01*
X103039333Y-134662333D01*
X103048697Y-134311858D01*
X103048697Y-134311858D01*
G37*
X103048697Y-134311858D02*
X103074450Y-134063668D01*
X103113087Y-133947565D01*
X103124000Y-133942666D01*
X103165232Y-134022258D01*
X103194431Y-134241164D01*
X103208090Y-134569579D01*
X103208666Y-134662333D01*
X103199302Y-135012808D01*
X103173549Y-135260999D01*
X103134912Y-135377101D01*
X103124000Y-135382000D01*
X103082767Y-135302408D01*
X103053568Y-135083502D01*
X103039909Y-134755087D01*
X103039333Y-134662333D01*
X103048697Y-134311858D01*
G36*
X102486453Y-119886761D02*
G01*
X102642623Y-119648758D01*
X102914328Y-119483915D01*
X103191292Y-119460907D01*
X103444747Y-119555688D01*
X103645927Y-119744213D01*
X103766065Y-120002437D01*
X103776394Y-120306314D01*
X103702308Y-120534508D01*
X103529514Y-120729381D01*
X103265722Y-120866023D01*
X103163330Y-120883782D01*
X103163330Y-120644160D01*
X103297307Y-120589084D01*
X103429146Y-120453055D01*
X103577641Y-120266335D01*
X103619702Y-120137785D01*
X103563924Y-120001316D01*
X103500199Y-119906839D01*
X103302536Y-119754356D01*
X103051843Y-119727215D01*
X102810397Y-119826749D01*
X102740679Y-119890564D01*
X102639913Y-120108459D01*
X102679633Y-120338348D01*
X102842695Y-120530369D01*
X102986154Y-120604435D01*
X103163330Y-120644160D01*
X103163330Y-120883782D01*
X103046767Y-120904000D01*
X102875301Y-120853741D01*
X102674771Y-120732440D01*
X102669751Y-120728521D01*
X102495279Y-120493724D01*
X102433666Y-120192684D01*
X102486453Y-119886761D01*
X102486453Y-119886761D01*
G37*
X102486453Y-119886761D02*
X102642623Y-119648758D01*
X102914328Y-119483915D01*
X103191292Y-119460907D01*
X103444747Y-119555688D01*
X103645927Y-119744213D01*
X103766065Y-120002437D01*
X103776394Y-120306314D01*
X103702308Y-120534508D01*
X103529514Y-120729381D01*
X103265722Y-120866023D01*
X103163330Y-120883782D01*
X103163330Y-120644160D01*
X103297307Y-120589084D01*
X103429146Y-120453055D01*
X103577641Y-120266335D01*
X103619702Y-120137785D01*
X103563924Y-120001316D01*
X103500199Y-119906839D01*
X103302536Y-119754356D01*
X103051843Y-119727215D01*
X102810397Y-119826749D01*
X102740679Y-119890564D01*
X102639913Y-120108459D01*
X102679633Y-120338348D01*
X102842695Y-120530369D01*
X102986154Y-120604435D01*
X103163330Y-120644160D01*
X103163330Y-120883782D01*
X103046767Y-120904000D01*
X102875301Y-120853741D01*
X102674771Y-120732440D01*
X102669751Y-120728521D01*
X102495279Y-120493724D01*
X102433666Y-120192684D01*
X102486453Y-119886761D01*
G36*
X102486453Y-121495428D02*
G01*
X102642623Y-121257425D01*
X102914328Y-121092582D01*
X103191292Y-121069573D01*
X103444747Y-121164354D01*
X103645927Y-121352879D01*
X103766065Y-121611103D01*
X103776394Y-121914981D01*
X103702308Y-122143174D01*
X103529514Y-122338048D01*
X103265722Y-122474690D01*
X103163330Y-122492449D01*
X103163330Y-122252827D01*
X103297307Y-122197751D01*
X103429146Y-122061722D01*
X103577641Y-121875001D01*
X103619702Y-121746452D01*
X103563924Y-121609983D01*
X103500199Y-121515505D01*
X103302536Y-121363023D01*
X103051843Y-121335881D01*
X102810397Y-121435415D01*
X102740679Y-121499230D01*
X102639913Y-121717126D01*
X102679633Y-121947015D01*
X102842695Y-122139035D01*
X102986154Y-122213102D01*
X103163330Y-122252827D01*
X103163330Y-122492449D01*
X103046767Y-122512666D01*
X102875301Y-122462408D01*
X102674771Y-122341107D01*
X102669751Y-122337188D01*
X102495279Y-122102391D01*
X102433666Y-121801351D01*
X102486453Y-121495428D01*
X102486453Y-121495428D01*
G37*
X102486453Y-121495428D02*
X102642623Y-121257425D01*
X102914328Y-121092582D01*
X103191292Y-121069573D01*
X103444747Y-121164354D01*
X103645927Y-121352879D01*
X103766065Y-121611103D01*
X103776394Y-121914981D01*
X103702308Y-122143174D01*
X103529514Y-122338048D01*
X103265722Y-122474690D01*
X103163330Y-122492449D01*
X103163330Y-122252827D01*
X103297307Y-122197751D01*
X103429146Y-122061722D01*
X103577641Y-121875001D01*
X103619702Y-121746452D01*
X103563924Y-121609983D01*
X103500199Y-121515505D01*
X103302536Y-121363023D01*
X103051843Y-121335881D01*
X102810397Y-121435415D01*
X102740679Y-121499230D01*
X102639913Y-121717126D01*
X102679633Y-121947015D01*
X102842695Y-122139035D01*
X102986154Y-122213102D01*
X103163330Y-122252827D01*
X103163330Y-122492449D01*
X103046767Y-122512666D01*
X102875301Y-122462408D01*
X102674771Y-122341107D01*
X102669751Y-122337188D01*
X102495279Y-122102391D01*
X102433666Y-121801351D01*
X102486453Y-121495428D01*
G36*
X102464409Y-123422833D02*
G01*
X102478492Y-123080437D01*
X102499614Y-122871934D01*
X102540560Y-122761980D01*
X102614115Y-122715233D01*
X102726953Y-122697049D01*
X102965237Y-122706765D01*
X103114371Y-122816684D01*
X103190140Y-123048848D01*
X103208666Y-123369700D01*
X103208666Y-123867333D01*
X103505000Y-123867333D01*
X103724173Y-123894873D01*
X103800797Y-123982767D01*
X103801333Y-123994333D01*
X103769532Y-124059355D01*
X103654114Y-124098443D01*
X103425058Y-124117197D01*
X103120575Y-124121333D01*
X102771222Y-124121333D01*
X102771222Y-123867333D01*
X102929637Y-123840074D01*
X103009709Y-123734687D01*
X103029035Y-123515754D01*
X103022069Y-123362485D01*
X102993151Y-123119151D01*
X102931778Y-122998056D01*
X102813358Y-122952289D01*
X102806500Y-122951278D01*
X102697970Y-122949032D01*
X102641041Y-123007647D01*
X102619233Y-123165574D01*
X102616000Y-123395778D01*
X102624083Y-123668948D01*
X102656840Y-123811964D01*
X102727028Y-123863584D01*
X102771222Y-123867333D01*
X102771222Y-124121333D01*
X102439818Y-124121333D01*
X102464409Y-123422833D01*
X102464409Y-123422833D01*
G37*
X102464409Y-123422833D02*
X102478492Y-123080437D01*
X102499614Y-122871934D01*
X102540560Y-122761980D01*
X102614115Y-122715233D01*
X102726953Y-122697049D01*
X102965237Y-122706765D01*
X103114371Y-122816684D01*
X103190140Y-123048848D01*
X103208666Y-123369700D01*
X103208666Y-123867333D01*
X103505000Y-123867333D01*
X103724173Y-123894873D01*
X103800797Y-123982767D01*
X103801333Y-123994333D01*
X103769532Y-124059355D01*
X103654114Y-124098443D01*
X103425058Y-124117197D01*
X103120575Y-124121333D01*
X102771222Y-124121333D01*
X102771222Y-123867333D01*
X102929637Y-123840074D01*
X103009709Y-123734687D01*
X103029035Y-123515754D01*
X103022069Y-123362485D01*
X102993151Y-123119151D01*
X102931778Y-122998056D01*
X102813358Y-122952289D01*
X102806500Y-122951278D01*
X102697970Y-122949032D01*
X102641041Y-123007647D01*
X102619233Y-123165574D01*
X102616000Y-123395778D01*
X102624083Y-123668948D01*
X102656840Y-123811964D01*
X102727028Y-123863584D01*
X102771222Y-123867333D01*
X102771222Y-124121333D01*
X102439818Y-124121333D01*
X102464409Y-123422833D01*
G36*
X102493687Y-125418194D02*
G01*
X102674173Y-125205466D01*
X102901680Y-124968000D01*
X102674173Y-124730534D01*
X102507366Y-124537464D01*
X102456699Y-124409873D01*
X102535395Y-124334831D01*
X102756678Y-124299406D01*
X103124000Y-124290666D01*
X103471533Y-124296648D01*
X103680101Y-124318352D01*
X103779770Y-124361415D01*
X103801333Y-124417666D01*
X103760570Y-124493220D01*
X103616981Y-124532730D01*
X103338617Y-124544644D01*
X103320908Y-124544666D01*
X102840482Y-124544666D01*
X103024574Y-124740623D01*
X103153349Y-124898871D01*
X103208629Y-125008796D01*
X103208666Y-125010333D01*
X103155817Y-125118179D01*
X103028310Y-125276051D01*
X103024574Y-125280043D01*
X102840482Y-125476000D01*
X103320908Y-125476000D01*
X103606715Y-125486776D01*
X103756179Y-125524733D01*
X103801247Y-125598318D01*
X103801333Y-125603000D01*
X103769430Y-125668162D01*
X103653677Y-125707269D01*
X103424008Y-125725957D01*
X103124000Y-125730000D01*
X102739003Y-125716111D01*
X102512020Y-125666979D01*
X102433449Y-125571405D01*
X102493687Y-125418194D01*
X102493687Y-125418194D01*
G37*
X102493687Y-125418194D02*
X102674173Y-125205466D01*
X102901680Y-124968000D01*
X102674173Y-124730534D01*
X102507366Y-124537464D01*
X102456699Y-124409873D01*
X102535395Y-124334831D01*
X102756678Y-124299406D01*
X103124000Y-124290666D01*
X103471533Y-124296648D01*
X103680101Y-124318352D01*
X103779770Y-124361415D01*
X103801333Y-124417666D01*
X103760570Y-124493220D01*
X103616981Y-124532730D01*
X103338617Y-124544644D01*
X103320908Y-124544666D01*
X102840482Y-124544666D01*
X103024574Y-124740623D01*
X103153349Y-124898871D01*
X103208629Y-125008796D01*
X103208666Y-125010333D01*
X103155817Y-125118179D01*
X103028310Y-125276051D01*
X103024574Y-125280043D01*
X102840482Y-125476000D01*
X103320908Y-125476000D01*
X103606715Y-125486776D01*
X103756179Y-125524733D01*
X103801247Y-125598318D01*
X103801333Y-125603000D01*
X103769430Y-125668162D01*
X103653677Y-125707269D01*
X103424008Y-125725957D01*
X103124000Y-125730000D01*
X102739003Y-125716111D01*
X102512020Y-125666979D01*
X102433449Y-125571405D01*
X102493687Y-125418194D01*
G36*
X102509078Y-125945980D02*
G01*
X102706586Y-125912229D01*
X103054599Y-125899561D01*
X103124000Y-125899333D01*
X103471533Y-125905315D01*
X103680101Y-125927019D01*
X103779770Y-125970082D01*
X103801333Y-126026333D01*
X103760823Y-126101630D01*
X103617993Y-126141157D01*
X103340893Y-126153293D01*
X103317150Y-126153333D01*
X102832967Y-126153333D01*
X103317150Y-126642622D01*
X103603672Y-126952108D01*
X103766639Y-127175029D01*
X103802383Y-127305282D01*
X103735714Y-127338666D01*
X103642256Y-127280336D01*
X103468060Y-127126679D01*
X103244015Y-126909699D01*
X103001013Y-126661400D01*
X102769942Y-126413785D01*
X102581694Y-126198857D01*
X102467158Y-126048618D01*
X102446666Y-126003175D01*
X102509078Y-125945980D01*
X102509078Y-125945980D01*
G37*
X102509078Y-125945980D02*
X102706586Y-125912229D01*
X103054599Y-125899561D01*
X103124000Y-125899333D01*
X103471533Y-125905315D01*
X103680101Y-125927019D01*
X103779770Y-125970082D01*
X103801333Y-126026333D01*
X103760823Y-126101630D01*
X103617993Y-126141157D01*
X103340893Y-126153293D01*
X103317150Y-126153333D01*
X102832967Y-126153333D01*
X103317150Y-126642622D01*
X103603672Y-126952108D01*
X103766639Y-127175029D01*
X103802383Y-127305282D01*
X103735714Y-127338666D01*
X103642256Y-127280336D01*
X103468060Y-127126679D01*
X103244015Y-126909699D01*
X103001013Y-126661400D01*
X102769942Y-126413785D01*
X102581694Y-126198857D01*
X102467158Y-126048618D01*
X102446666Y-126003175D01*
X102509078Y-125945980D01*
G36*
X102478569Y-127569837D02*
G01*
X102594322Y-127530731D01*
X102823991Y-127512043D01*
X103124000Y-127508000D01*
X103471533Y-127513982D01*
X103680101Y-127535685D01*
X103779770Y-127578748D01*
X103801333Y-127635000D01*
X103737073Y-127728931D01*
X103531988Y-127761770D01*
X103505000Y-127762000D01*
X103208666Y-127762000D01*
X103208666Y-128693333D01*
X103505000Y-128693333D01*
X103724173Y-128720873D01*
X103800797Y-128808767D01*
X103801333Y-128820333D01*
X103769430Y-128885496D01*
X103653677Y-128924602D01*
X103424008Y-128943290D01*
X103124000Y-128947333D01*
X102773136Y-128940802D01*
X102562722Y-128917798D01*
X102464253Y-128873200D01*
X102446666Y-128825698D01*
X102524653Y-128727248D01*
X102721833Y-128677531D01*
X102882469Y-128652770D01*
X102967333Y-128588481D01*
X103005296Y-128439447D01*
X103022591Y-128206500D01*
X103048182Y-127762000D01*
X102747424Y-127762000D01*
X102526505Y-127735290D01*
X102447536Y-127649634D01*
X102446666Y-127635000D01*
X102478569Y-127569837D01*
X102478569Y-127569837D01*
G37*
X102478569Y-127569837D02*
X102594322Y-127530731D01*
X102823991Y-127512043D01*
X103124000Y-127508000D01*
X103471533Y-127513982D01*
X103680101Y-127535685D01*
X103779770Y-127578748D01*
X103801333Y-127635000D01*
X103737073Y-127728931D01*
X103531988Y-127761770D01*
X103505000Y-127762000D01*
X103208666Y-127762000D01*
X103208666Y-128693333D01*
X103505000Y-128693333D01*
X103724173Y-128720873D01*
X103800797Y-128808767D01*
X103801333Y-128820333D01*
X103769430Y-128885496D01*
X103653677Y-128924602D01*
X103424008Y-128943290D01*
X103124000Y-128947333D01*
X102773136Y-128940802D01*
X102562722Y-128917798D01*
X102464253Y-128873200D01*
X102446666Y-128825698D01*
X102524653Y-128727248D01*
X102721833Y-128677531D01*
X102882469Y-128652770D01*
X102967333Y-128588481D01*
X103005296Y-128439447D01*
X103022591Y-128206500D01*
X103048182Y-127762000D01*
X102747424Y-127762000D01*
X102526505Y-127735290D01*
X102447536Y-127649634D01*
X102446666Y-127635000D01*
X102478569Y-127569837D01*
G36*
X102466312Y-129294273D02*
G01*
X102502113Y-129143173D01*
X102531333Y-129116666D01*
X102575524Y-129194461D01*
X102605798Y-129400705D01*
X102616000Y-129669657D01*
X102626756Y-129993225D01*
X102663778Y-130181454D01*
X102734194Y-130267252D01*
X102746651Y-130272783D01*
X102867287Y-130292968D01*
X102947158Y-130224556D01*
X102999199Y-130041403D01*
X103036344Y-129717365D01*
X103039333Y-129681205D01*
X103067561Y-129394005D01*
X103107145Y-129234533D01*
X103179166Y-129161462D01*
X103304703Y-129133467D01*
X103319619Y-129131715D01*
X103541193Y-129134674D01*
X103685048Y-129220694D01*
X103765907Y-129414216D01*
X103798494Y-129739680D01*
X103801333Y-129931367D01*
X103791285Y-130232118D01*
X103764737Y-130453549D01*
X103727083Y-130553952D01*
X103720535Y-130556000D01*
X103676670Y-130478610D01*
X103638786Y-130275525D01*
X103614963Y-129990368D01*
X103614701Y-129984500D01*
X103596096Y-129678705D01*
X103564549Y-129503211D01*
X103506006Y-129418987D01*
X103406413Y-129387006D01*
X103399166Y-129385945D01*
X103292748Y-129383264D01*
X103235706Y-129439020D01*
X103212771Y-129590879D01*
X103208666Y-129855845D01*
X103192244Y-130142576D01*
X103149790Y-130365434D01*
X103107066Y-130454400D01*
X102913645Y-130545193D01*
X102684170Y-130531675D01*
X102548266Y-130454400D01*
X102499128Y-130330191D01*
X102465750Y-130103544D01*
X102448744Y-129822989D01*
X102448727Y-129537055D01*
X102466312Y-129294273D01*
X102466312Y-129294273D01*
G37*
X102466312Y-129294273D02*
X102502113Y-129143173D01*
X102531333Y-129116666D01*
X102575524Y-129194461D01*
X102605798Y-129400705D01*
X102616000Y-129669657D01*
X102626756Y-129993225D01*
X102663778Y-130181454D01*
X102734194Y-130267252D01*
X102746651Y-130272783D01*
X102867287Y-130292968D01*
X102947158Y-130224556D01*
X102999199Y-130041403D01*
X103036344Y-129717365D01*
X103039333Y-129681205D01*
X103067561Y-129394005D01*
X103107145Y-129234533D01*
X103179166Y-129161462D01*
X103304703Y-129133467D01*
X103319619Y-129131715D01*
X103541193Y-129134674D01*
X103685048Y-129220694D01*
X103765907Y-129414216D01*
X103798494Y-129739680D01*
X103801333Y-129931367D01*
X103791285Y-130232118D01*
X103764737Y-130453549D01*
X103727083Y-130553952D01*
X103720535Y-130556000D01*
X103676670Y-130478610D01*
X103638786Y-130275525D01*
X103614963Y-129990368D01*
X103614701Y-129984500D01*
X103596096Y-129678705D01*
X103564549Y-129503211D01*
X103506006Y-129418987D01*
X103406413Y-129387006D01*
X103399166Y-129385945D01*
X103292748Y-129383264D01*
X103235706Y-129439020D01*
X103212771Y-129590879D01*
X103208666Y-129855845D01*
X103192244Y-130142576D01*
X103149790Y-130365434D01*
X103107066Y-130454400D01*
X102913645Y-130545193D01*
X102684170Y-130531675D01*
X102548266Y-130454400D01*
X102499128Y-130330191D01*
X102465750Y-130103544D01*
X102448744Y-129822989D01*
X102448727Y-129537055D01*
X102466312Y-129294273D01*
G36*
X102489000Y-130767666D02*
G01*
X102782832Y-130767666D01*
X103019685Y-130803254D01*
X103155702Y-130928487D01*
X103171155Y-130957193D01*
X103265644Y-131146720D01*
X103463580Y-130936027D01*
X103616382Y-130793205D01*
X103724884Y-130726069D01*
X103731425Y-130725333D01*
X103804078Y-130777424D01*
X103763391Y-130915181D01*
X103621744Y-131110831D01*
X103505000Y-131233333D01*
X103319044Y-131454130D01*
X103217361Y-131657778D01*
X103208666Y-131715609D01*
X103234151Y-131848187D01*
X103343001Y-131902313D01*
X103505000Y-131910666D01*
X103724173Y-131938206D01*
X103800797Y-132026100D01*
X103801333Y-132037666D01*
X103769532Y-132102689D01*
X103654114Y-132141776D01*
X103425058Y-132160530D01*
X103120575Y-132164666D01*
X102771222Y-132164666D01*
X102771222Y-131910666D01*
X102929637Y-131883408D01*
X103009709Y-131778020D01*
X103029035Y-131559087D01*
X103022069Y-131405819D01*
X102993151Y-131162485D01*
X102931778Y-131041389D01*
X102813358Y-130995622D01*
X102806500Y-130994611D01*
X102697970Y-130992366D01*
X102641041Y-131050980D01*
X102619233Y-131208908D01*
X102616000Y-131439111D01*
X102624083Y-131712282D01*
X102656840Y-131855297D01*
X102727028Y-131906917D01*
X102771222Y-131910666D01*
X102771222Y-132164666D01*
X102439818Y-132164666D01*
X102489000Y-130767666D01*
X102489000Y-130767666D01*
G37*
X102489000Y-130767666D02*
X102782832Y-130767666D01*
X103019685Y-130803254D01*
X103155702Y-130928487D01*
X103171155Y-130957193D01*
X103265644Y-131146720D01*
X103463580Y-130936027D01*
X103616382Y-130793205D01*
X103724884Y-130726069D01*
X103731425Y-130725333D01*
X103804078Y-130777424D01*
X103763391Y-130915181D01*
X103621744Y-131110831D01*
X103505000Y-131233333D01*
X103319044Y-131454130D01*
X103217361Y-131657778D01*
X103208666Y-131715609D01*
X103234151Y-131848187D01*
X103343001Y-131902313D01*
X103505000Y-131910666D01*
X103724173Y-131938206D01*
X103800797Y-132026100D01*
X103801333Y-132037666D01*
X103769532Y-132102689D01*
X103654114Y-132141776D01*
X103425058Y-132160530D01*
X103120575Y-132164666D01*
X102771222Y-132164666D01*
X102771222Y-131910666D01*
X102929637Y-131883408D01*
X103009709Y-131778020D01*
X103029035Y-131559087D01*
X103022069Y-131405819D01*
X102993151Y-131162485D01*
X102931778Y-131041389D01*
X102813358Y-130995622D01*
X102806500Y-130994611D01*
X102697970Y-130992366D01*
X102641041Y-131050980D01*
X102619233Y-131208908D01*
X102616000Y-131439111D01*
X102624083Y-131712282D01*
X102656840Y-131855297D01*
X102727028Y-131906917D01*
X102771222Y-131910666D01*
X102771222Y-132164666D01*
X102439818Y-132164666D01*
X102489000Y-130767666D01*
G36*
X102509078Y-132380646D02*
G01*
X102706586Y-132346896D01*
X103054599Y-132334228D01*
X103124000Y-132334000D01*
X103471533Y-132339982D01*
X103680101Y-132361685D01*
X103779770Y-132404748D01*
X103801333Y-132461000D01*
X103760823Y-132536297D01*
X103617993Y-132575823D01*
X103340893Y-132587959D01*
X103317150Y-132588000D01*
X102832967Y-132588000D01*
X103317150Y-133077288D01*
X103603672Y-133386775D01*
X103766639Y-133609696D01*
X103802383Y-133739949D01*
X103735714Y-133773333D01*
X103642256Y-133715002D01*
X103468060Y-133561346D01*
X103244015Y-133344366D01*
X103001013Y-133096067D01*
X102769942Y-132848452D01*
X102581694Y-132633523D01*
X102467158Y-132483285D01*
X102446666Y-132437842D01*
X102509078Y-132380646D01*
X102509078Y-132380646D01*
G37*
X102509078Y-132380646D02*
X102706586Y-132346896D01*
X103054599Y-132334228D01*
X103124000Y-132334000D01*
X103471533Y-132339982D01*
X103680101Y-132361685D01*
X103779770Y-132404748D01*
X103801333Y-132461000D01*
X103760823Y-132536297D01*
X103617993Y-132575823D01*
X103340893Y-132587959D01*
X103317150Y-132588000D01*
X102832967Y-132588000D01*
X103317150Y-133077288D01*
X103603672Y-133386775D01*
X103766639Y-133609696D01*
X103802383Y-133739949D01*
X103735714Y-133773333D01*
X103642256Y-133715002D01*
X103468060Y-133561346D01*
X103244015Y-133344366D01*
X103001013Y-133096067D01*
X102769942Y-132848452D01*
X102581694Y-132633523D01*
X102467158Y-132483285D01*
X102446666Y-132437842D01*
X102509078Y-132380646D01*
G36*
X103641363Y-134311858D02*
G01*
X103667117Y-134063668D01*
X103705754Y-133947565D01*
X103716666Y-133942666D01*
X103757898Y-134022258D01*
X103787097Y-134241164D01*
X103800756Y-134569579D01*
X103801333Y-134662333D01*
X103791969Y-135012808D01*
X103766215Y-135260999D01*
X103727578Y-135377101D01*
X103716666Y-135382000D01*
X103675434Y-135302408D01*
X103646235Y-135083502D01*
X103632576Y-134755087D01*
X103632000Y-134662333D01*
X103641363Y-134311858D01*
X103641363Y-134311858D01*
G37*
X103641363Y-134311858D02*
X103667117Y-134063668D01*
X103705754Y-133947565D01*
X103716666Y-133942666D01*
X103757898Y-134022258D01*
X103787097Y-134241164D01*
X103800756Y-134569579D01*
X103801333Y-134662333D01*
X103791969Y-135012808D01*
X103766215Y-135260999D01*
X103727578Y-135377101D01*
X103716666Y-135382000D01*
X103675434Y-135302408D01*
X103646235Y-135083502D01*
X103632576Y-134755087D01*
X103632000Y-134662333D01*
X103641363Y-134311858D01*
G36*
X102489000Y-135593666D02*
G01*
X103033784Y-135575095D01*
X103334359Y-135579067D01*
X103574323Y-135607926D01*
X103689951Y-135648962D01*
X103759655Y-135802881D01*
X103795896Y-136118737D01*
X103801333Y-136366033D01*
X103801333Y-136990666D01*
X103363888Y-136990666D01*
X103363888Y-136736666D01*
X103522304Y-136709408D01*
X103602376Y-136604020D01*
X103621702Y-136385087D01*
X103614736Y-136231819D01*
X103585817Y-135988485D01*
X103524444Y-135867389D01*
X103406024Y-135821622D01*
X103399166Y-135820611D01*
X103290636Y-135818366D01*
X103233708Y-135876980D01*
X103211900Y-136034908D01*
X103208666Y-136265111D01*
X103216750Y-136538282D01*
X103249507Y-136681297D01*
X103319695Y-136732917D01*
X103363888Y-136736666D01*
X103363888Y-136990666D01*
X102771222Y-136990666D01*
X102771222Y-136736666D01*
X102929637Y-136709408D01*
X103009709Y-136604020D01*
X103029035Y-136385087D01*
X103022069Y-136231819D01*
X102993151Y-135988485D01*
X102931778Y-135867389D01*
X102813358Y-135821622D01*
X102806500Y-135820611D01*
X102697970Y-135818366D01*
X102641041Y-135876980D01*
X102619233Y-136034908D01*
X102616000Y-136265111D01*
X102624083Y-136538282D01*
X102656840Y-136681297D01*
X102727028Y-136732917D01*
X102771222Y-136736666D01*
X102771222Y-136990666D01*
X102439818Y-136990666D01*
X102489000Y-135593666D01*
X102489000Y-135593666D01*
G37*
X102489000Y-135593666D02*
X103033784Y-135575095D01*
X103334359Y-135579067D01*
X103574323Y-135607926D01*
X103689951Y-135648962D01*
X103759655Y-135802881D01*
X103795896Y-136118737D01*
X103801333Y-136366033D01*
X103801333Y-136990666D01*
X103363888Y-136990666D01*
X103363888Y-136736666D01*
X103522304Y-136709408D01*
X103602376Y-136604020D01*
X103621702Y-136385087D01*
X103614736Y-136231819D01*
X103585817Y-135988485D01*
X103524444Y-135867389D01*
X103406024Y-135821622D01*
X103399166Y-135820611D01*
X103290636Y-135818366D01*
X103233708Y-135876980D01*
X103211900Y-136034908D01*
X103208666Y-136265111D01*
X103216750Y-136538282D01*
X103249507Y-136681297D01*
X103319695Y-136732917D01*
X103363888Y-136736666D01*
X103363888Y-136990666D01*
X102771222Y-136990666D01*
X102771222Y-136736666D01*
X102929637Y-136709408D01*
X103009709Y-136604020D01*
X103029035Y-136385087D01*
X103022069Y-136231819D01*
X102993151Y-135988485D01*
X102931778Y-135867389D01*
X102813358Y-135821622D01*
X102806500Y-135820611D01*
X102697970Y-135818366D01*
X102641041Y-135876980D01*
X102619233Y-136034908D01*
X102616000Y-136265111D01*
X102624083Y-136538282D01*
X102656840Y-136681297D01*
X102727028Y-136732917D01*
X102771222Y-136736666D01*
X102771222Y-136990666D01*
X102439818Y-136990666D01*
X102489000Y-135593666D01*
G36*
X102874586Y-116050867D02*
G01*
X102886556Y-115969614D01*
X102901750Y-115935125D01*
X102919419Y-115952966D01*
X102930270Y-116028517D01*
X102933500Y-116139627D01*
X102929336Y-116254351D01*
X102918164Y-116333707D01*
X102901958Y-116363746D01*
X102901750Y-116363750D01*
X102885121Y-116334618D01*
X102873749Y-116257562D01*
X102870000Y-116159249D01*
X102874586Y-116050867D01*
X102874586Y-116050867D01*
G37*
X102874586Y-116050867D02*
X102886556Y-115969614D01*
X102901750Y-115935125D01*
X102919419Y-115952966D01*
X102930270Y-116028517D01*
X102933500Y-116139627D01*
X102929336Y-116254351D01*
X102918164Y-116333707D01*
X102901958Y-116363746D01*
X102901750Y-116363750D01*
X102885121Y-116334618D01*
X102873749Y-116257562D01*
X102870000Y-116159249D01*
X102874586Y-116050867D01*
G36*
X103065086Y-116050867D02*
G01*
X103077056Y-115969614D01*
X103092250Y-115935125D01*
X103109919Y-115952966D01*
X103120770Y-116028517D01*
X103124000Y-116139627D01*
X103119836Y-116254351D01*
X103108664Y-116333707D01*
X103092458Y-116363746D01*
X103092250Y-116363750D01*
X103075621Y-116334618D01*
X103064249Y-116257562D01*
X103060500Y-116159249D01*
X103065086Y-116050867D01*
X103065086Y-116050867D01*
G37*
X103065086Y-116050867D02*
X103077056Y-115969614D01*
X103092250Y-115935125D01*
X103109919Y-115952966D01*
X103120770Y-116028517D01*
X103124000Y-116139627D01*
X103119836Y-116254351D01*
X103108664Y-116333707D01*
X103092458Y-116363746D01*
X103092250Y-116363750D01*
X103075621Y-116334618D01*
X103064249Y-116257562D01*
X103060500Y-116159249D01*
X103065086Y-116050867D01*
G36*
X102900058Y-111891083D02*
G01*
X102963330Y-111804942D01*
X103053102Y-111759349D01*
X103150744Y-111756249D01*
X103237622Y-111797586D01*
X103280674Y-111851372D01*
X103312703Y-111965565D01*
X103283103Y-112068885D01*
X103249127Y-112111123D01*
X103157905Y-112162671D01*
X103064081Y-112161498D01*
X103064081Y-112105606D01*
X103148277Y-112103778D01*
X103216727Y-112060561D01*
X103250178Y-111982647D01*
X103251000Y-111966375D01*
X103233805Y-111893515D01*
X103212900Y-111861600D01*
X103142544Y-111827326D01*
X103056802Y-111828155D01*
X102985371Y-111861280D01*
X102966367Y-111884913D01*
X102936406Y-111963723D01*
X102952568Y-112023457D01*
X102983392Y-112059358D01*
X103064081Y-112105606D01*
X103064081Y-112161498D01*
X103054662Y-112161380D01*
X102958771Y-112109604D01*
X102924012Y-112071585D01*
X102882784Y-112002941D01*
X102881925Y-111942172D01*
X102900058Y-111891083D01*
X102900058Y-111891083D01*
G37*
X102900058Y-111891083D02*
X102963330Y-111804942D01*
X103053102Y-111759349D01*
X103150744Y-111756249D01*
X103237622Y-111797586D01*
X103280674Y-111851372D01*
X103312703Y-111965565D01*
X103283103Y-112068885D01*
X103249127Y-112111123D01*
X103157905Y-112162671D01*
X103064081Y-112161498D01*
X103064081Y-112105606D01*
X103148277Y-112103778D01*
X103216727Y-112060561D01*
X103250178Y-111982647D01*
X103251000Y-111966375D01*
X103233805Y-111893515D01*
X103212900Y-111861600D01*
X103142544Y-111827326D01*
X103056802Y-111828155D01*
X102985371Y-111861280D01*
X102966367Y-111884913D01*
X102936406Y-111963723D01*
X102952568Y-112023457D01*
X102983392Y-112059358D01*
X103064081Y-112105606D01*
X103064081Y-112161498D01*
X103054662Y-112161380D01*
X102958771Y-112109604D01*
X102924012Y-112071585D01*
X102882784Y-112002941D01*
X102881925Y-111942172D01*
X102900058Y-111891083D01*
G36*
X102896675Y-112348133D02*
G01*
X102962216Y-112271417D01*
X103044892Y-112217495D01*
X103101147Y-112204500D01*
X103187572Y-112232436D01*
X103263356Y-112302228D01*
X103308994Y-112392854D01*
X103314500Y-112434430D01*
X103285055Y-112524700D01*
X103230843Y-112583196D01*
X103154814Y-112629271D01*
X103099659Y-112645464D01*
X103099659Y-112575484D01*
X103178002Y-112545606D01*
X103189775Y-112535816D01*
X103243981Y-112454019D01*
X103237206Y-112368777D01*
X103201107Y-112317893D01*
X103120096Y-112272245D01*
X103038747Y-112286929D01*
X102979600Y-112345246D01*
X102952426Y-112429707D01*
X102972776Y-112504754D01*
X103026552Y-112557607D01*
X103099659Y-112575484D01*
X103099659Y-112645464D01*
X103087650Y-112648990D01*
X103086525Y-112649000D01*
X103013920Y-112623127D01*
X102939587Y-112560215D01*
X102885023Y-112482327D01*
X102870000Y-112426750D01*
X102896675Y-112348133D01*
X102896675Y-112348133D01*
G37*
X102896675Y-112348133D02*
X102962216Y-112271417D01*
X103044892Y-112217495D01*
X103101147Y-112204500D01*
X103187572Y-112232436D01*
X103263356Y-112302228D01*
X103308994Y-112392854D01*
X103314500Y-112434430D01*
X103285055Y-112524700D01*
X103230843Y-112583196D01*
X103154814Y-112629271D01*
X103099659Y-112645464D01*
X103099659Y-112575484D01*
X103178002Y-112545606D01*
X103189775Y-112535816D01*
X103243981Y-112454019D01*
X103237206Y-112368777D01*
X103201107Y-112317893D01*
X103120096Y-112272245D01*
X103038747Y-112286929D01*
X102979600Y-112345246D01*
X102952426Y-112429707D01*
X102972776Y-112504754D01*
X103026552Y-112557607D01*
X103099659Y-112575484D01*
X103099659Y-112645464D01*
X103087650Y-112648990D01*
X103086525Y-112649000D01*
X103013920Y-112623127D01*
X102939587Y-112560215D01*
X102885023Y-112482327D01*
X102870000Y-112426750D01*
X102896675Y-112348133D01*
G36*
X102943434Y-113480701D02*
G01*
X103007406Y-113404856D01*
X103022969Y-113349128D01*
X102995174Y-113300733D01*
X102995174Y-113030000D01*
X103035646Y-113021355D01*
X103054959Y-112984590D01*
X103060422Y-112903459D01*
X103060500Y-112884797D01*
X103056581Y-112795379D01*
X103040933Y-112755041D01*
X103007719Y-112749637D01*
X103004937Y-112750134D01*
X102965025Y-112778613D01*
X102943865Y-112852787D01*
X102939611Y-112895337D01*
X102937319Y-112980515D01*
X102951568Y-113019767D01*
X102989309Y-113029934D01*
X102995174Y-113030000D01*
X102995174Y-113300733D01*
X102991264Y-113293925D01*
X102956374Y-113258826D01*
X102915332Y-113208636D01*
X102891199Y-113141828D01*
X102878601Y-113039501D01*
X102875105Y-112973001D01*
X102876938Y-112827964D01*
X102899501Y-112736654D01*
X102947026Y-112691478D01*
X103023745Y-112684842D01*
X103034939Y-112686251D01*
X103078804Y-112700266D01*
X103102683Y-112737457D01*
X103114484Y-112814566D01*
X103117653Y-112861358D01*
X103126114Y-112958473D01*
X103143051Y-113009093D01*
X103177667Y-113030221D01*
X103212183Y-113035983D01*
X103276498Y-113056998D01*
X103296809Y-113111075D01*
X103297171Y-113125250D01*
X103289575Y-113175806D01*
X103255512Y-113202893D01*
X103178041Y-113218080D01*
X103157673Y-113220500D01*
X103074745Y-113232429D01*
X103045503Y-113246928D01*
X103060264Y-113270645D01*
X103071093Y-113279951D01*
X103118110Y-113338312D01*
X103108314Y-113399496D01*
X103071454Y-113448188D01*
X103043992Y-113483268D01*
X103052416Y-113500314D01*
X103107354Y-113505806D01*
X103166704Y-113506250D01*
X103253602Y-113512359D01*
X103306737Y-113527868D01*
X103314500Y-113538000D01*
X103285063Y-113554178D01*
X103205858Y-113565393D01*
X103090545Y-113569746D01*
X103086309Y-113569750D01*
X102858119Y-113569750D01*
X102943434Y-113480701D01*
X102943434Y-113480701D01*
G37*
X102943434Y-113480701D02*
X103007406Y-113404856D01*
X103022969Y-113349128D01*
X102995174Y-113300733D01*
X102995174Y-113030000D01*
X103035646Y-113021355D01*
X103054959Y-112984590D01*
X103060422Y-112903459D01*
X103060500Y-112884797D01*
X103056581Y-112795379D01*
X103040933Y-112755041D01*
X103007719Y-112749637D01*
X103004937Y-112750134D01*
X102965025Y-112778613D01*
X102943865Y-112852787D01*
X102939611Y-112895337D01*
X102937319Y-112980515D01*
X102951568Y-113019767D01*
X102989309Y-113029934D01*
X102995174Y-113030000D01*
X102995174Y-113300733D01*
X102991264Y-113293925D01*
X102956374Y-113258826D01*
X102915332Y-113208636D01*
X102891199Y-113141828D01*
X102878601Y-113039501D01*
X102875105Y-112973001D01*
X102876938Y-112827964D01*
X102899501Y-112736654D01*
X102947026Y-112691478D01*
X103023745Y-112684842D01*
X103034939Y-112686251D01*
X103078804Y-112700266D01*
X103102683Y-112737457D01*
X103114484Y-112814566D01*
X103117653Y-112861358D01*
X103126114Y-112958473D01*
X103143051Y-113009093D01*
X103177667Y-113030221D01*
X103212183Y-113035983D01*
X103276498Y-113056998D01*
X103296809Y-113111075D01*
X103297171Y-113125250D01*
X103289575Y-113175806D01*
X103255512Y-113202893D01*
X103178041Y-113218080D01*
X103157673Y-113220500D01*
X103074745Y-113232429D01*
X103045503Y-113246928D01*
X103060264Y-113270645D01*
X103071093Y-113279951D01*
X103118110Y-113338312D01*
X103108314Y-113399496D01*
X103071454Y-113448188D01*
X103043992Y-113483268D01*
X103052416Y-113500314D01*
X103107354Y-113505806D01*
X103166704Y-113506250D01*
X103253602Y-113512359D01*
X103306737Y-113527868D01*
X103314500Y-113538000D01*
X103285063Y-113554178D01*
X103205858Y-113565393D01*
X103090545Y-113569746D01*
X103086309Y-113569750D01*
X102858119Y-113569750D01*
X102943434Y-113480701D01*
G36*
X102890274Y-113623559D02*
G01*
X102932983Y-113609852D01*
X103013453Y-113602796D01*
X103111754Y-113601936D01*
X103207955Y-113606816D01*
X103282124Y-113616981D01*
X103314331Y-113631976D01*
X103314500Y-113633250D01*
X103285876Y-113651038D01*
X103212397Y-113662560D01*
X103148897Y-113665000D01*
X102983294Y-113665000D01*
X103152003Y-113835832D01*
X103228546Y-113919111D01*
X103278673Y-113985158D01*
X103293516Y-114021946D01*
X103291361Y-114024803D01*
X103257841Y-114012589D01*
X103195970Y-113965209D01*
X103117956Y-113894876D01*
X103036008Y-113813806D01*
X102962336Y-113734210D01*
X102909148Y-113668304D01*
X102888653Y-113628301D01*
X102890274Y-113623559D01*
X102890274Y-113623559D01*
G37*
X102890274Y-113623559D02*
X102932983Y-113609852D01*
X103013453Y-113602796D01*
X103111754Y-113601936D01*
X103207955Y-113606816D01*
X103282124Y-113616981D01*
X103314331Y-113631976D01*
X103314500Y-113633250D01*
X103285876Y-113651038D01*
X103212397Y-113662560D01*
X103148897Y-113665000D01*
X102983294Y-113665000D01*
X103152003Y-113835832D01*
X103228546Y-113919111D01*
X103278673Y-113985158D01*
X103293516Y-114021946D01*
X103291361Y-114024803D01*
X103257841Y-114012589D01*
X103195970Y-113965209D01*
X103117956Y-113894876D01*
X103036008Y-113813806D01*
X102962336Y-113734210D01*
X102909148Y-113668304D01*
X102888653Y-113628301D01*
X102890274Y-113623559D01*
G36*
X102876086Y-114667094D02*
G01*
X102883155Y-114550153D01*
X102893887Y-114482260D01*
X102914294Y-114449006D01*
X102950389Y-114435984D01*
X102973844Y-114432829D01*
X103027701Y-114420716D01*
X103052938Y-114388631D01*
X103060219Y-114318012D01*
X103060500Y-114282017D01*
X103057014Y-114194605D01*
X103040293Y-114153507D01*
X103000939Y-114141655D01*
X102982998Y-114141250D01*
X102915771Y-114129544D01*
X102885875Y-114109500D01*
X102903715Y-114091831D01*
X102979266Y-114080980D01*
X103090376Y-114077750D01*
X103205100Y-114081914D01*
X103284456Y-114093086D01*
X103314495Y-114109292D01*
X103314500Y-114109500D01*
X103286910Y-114131793D01*
X103220435Y-114141248D01*
X103219250Y-114141250D01*
X103160679Y-114145392D01*
X103132938Y-114169306D01*
X103124538Y-114230224D01*
X103124000Y-114284125D01*
X103127523Y-114372519D01*
X103143916Y-114414395D01*
X103181917Y-114426604D01*
X103198083Y-114427000D01*
X103276440Y-114439244D01*
X103299106Y-114473821D01*
X103280932Y-114508565D01*
X103265540Y-114552444D01*
X103281208Y-114568923D01*
X103298840Y-114607801D01*
X103309773Y-114684927D01*
X103313847Y-114779839D01*
X103310900Y-114872075D01*
X103300772Y-114941174D01*
X103284334Y-114966750D01*
X103266622Y-114937958D01*
X103251784Y-114863397D01*
X103244646Y-114784188D01*
X103234315Y-114674376D01*
X103215650Y-114617123D01*
X103187500Y-114601625D01*
X103155956Y-114622165D01*
X103134872Y-114689942D01*
X103124000Y-114776250D01*
X103111434Y-114878190D01*
X103092370Y-114932798D01*
X103059031Y-114956229D01*
X103034939Y-114961250D01*
X103004937Y-114960424D01*
X103004937Y-114897332D01*
X103038025Y-114894260D01*
X103054784Y-114859478D01*
X103060286Y-114779160D01*
X103060500Y-114745832D01*
X103067831Y-114634923D01*
X103091431Y-114576854D01*
X103108125Y-114565482D01*
X103151744Y-114541764D01*
X103133507Y-114527475D01*
X103052917Y-114522283D01*
X103043040Y-114522250D01*
X102930331Y-114522250D01*
X102939853Y-114704504D01*
X102949767Y-114813227D01*
X102968214Y-114872483D01*
X102999889Y-114896190D01*
X103004937Y-114897332D01*
X103004937Y-114960424D01*
X102954560Y-114959036D01*
X102903812Y-114919917D01*
X102878568Y-114836246D01*
X102874699Y-114700380D01*
X102876086Y-114667094D01*
X102876086Y-114667094D01*
G37*
X102876086Y-114667094D02*
X102883155Y-114550153D01*
X102893887Y-114482260D01*
X102914294Y-114449006D01*
X102950389Y-114435984D01*
X102973844Y-114432829D01*
X103027701Y-114420716D01*
X103052938Y-114388631D01*
X103060219Y-114318012D01*
X103060500Y-114282017D01*
X103057014Y-114194605D01*
X103040293Y-114153507D01*
X103000939Y-114141655D01*
X102982998Y-114141250D01*
X102915771Y-114129544D01*
X102885875Y-114109500D01*
X102903715Y-114091831D01*
X102979266Y-114080980D01*
X103090376Y-114077750D01*
X103205100Y-114081914D01*
X103284456Y-114093086D01*
X103314495Y-114109292D01*
X103314500Y-114109500D01*
X103286910Y-114131793D01*
X103220435Y-114141248D01*
X103219250Y-114141250D01*
X103160679Y-114145392D01*
X103132938Y-114169306D01*
X103124538Y-114230224D01*
X103124000Y-114284125D01*
X103127523Y-114372519D01*
X103143916Y-114414395D01*
X103181917Y-114426604D01*
X103198083Y-114427000D01*
X103276440Y-114439244D01*
X103299106Y-114473821D01*
X103280932Y-114508565D01*
X103265540Y-114552444D01*
X103281208Y-114568923D01*
X103298840Y-114607801D01*
X103309773Y-114684927D01*
X103313847Y-114779839D01*
X103310900Y-114872075D01*
X103300772Y-114941174D01*
X103284334Y-114966750D01*
X103266622Y-114937958D01*
X103251784Y-114863397D01*
X103244646Y-114784188D01*
X103234315Y-114674376D01*
X103215650Y-114617123D01*
X103187500Y-114601625D01*
X103155956Y-114622165D01*
X103134872Y-114689942D01*
X103124000Y-114776250D01*
X103111434Y-114878190D01*
X103092370Y-114932798D01*
X103059031Y-114956229D01*
X103034939Y-114961250D01*
X103004937Y-114960424D01*
X103004937Y-114897332D01*
X103038025Y-114894260D01*
X103054784Y-114859478D01*
X103060286Y-114779160D01*
X103060500Y-114745832D01*
X103067831Y-114634923D01*
X103091431Y-114576854D01*
X103108125Y-114565482D01*
X103151744Y-114541764D01*
X103133507Y-114527475D01*
X103052917Y-114522283D01*
X103043040Y-114522250D01*
X102930331Y-114522250D01*
X102939853Y-114704504D01*
X102949767Y-114813227D01*
X102968214Y-114872483D01*
X102999889Y-114896190D01*
X103004937Y-114897332D01*
X103004937Y-114960424D01*
X102954560Y-114959036D01*
X102903812Y-114919917D01*
X102878568Y-114836246D01*
X102874699Y-114700380D01*
X102876086Y-114667094D01*
G36*
X102878582Y-115147556D02*
G01*
X102908885Y-115050917D01*
X102966451Y-115007345D01*
X103039684Y-115010299D01*
X103104079Y-115043988D01*
X103124000Y-115084015D01*
X103131838Y-115112044D01*
X103162860Y-115097812D01*
X103203249Y-115062118D01*
X103268617Y-115011574D01*
X103300182Y-115007428D01*
X103295820Y-115041044D01*
X103253405Y-115103785D01*
X103222042Y-115138494D01*
X103149825Y-115232682D01*
X103131561Y-115307035D01*
X103167142Y-115356379D01*
X103226945Y-115373622D01*
X103289637Y-115391799D01*
X103304899Y-115435816D01*
X103303055Y-115452997D01*
X103282716Y-115500314D01*
X103228607Y-115526605D01*
X103158952Y-115538250D01*
X103025267Y-115554125D01*
X103169883Y-115695674D01*
X103263493Y-115792863D01*
X103308657Y-115854578D01*
X103307335Y-115883956D01*
X103289770Y-115887500D01*
X103257978Y-115866106D01*
X103194297Y-115808986D01*
X103110272Y-115726731D01*
X103073454Y-115689063D01*
X103004937Y-115616677D01*
X103004937Y-115373456D01*
X103037917Y-115370517D01*
X103054685Y-115336036D01*
X103060260Y-115256223D01*
X103060500Y-115220750D01*
X103057340Y-115124367D01*
X103044518Y-115077522D01*
X103017014Y-115066424D01*
X103004937Y-115068045D01*
X102968670Y-115090654D01*
X102952153Y-115150154D01*
X102949375Y-115220750D01*
X102955488Y-115314618D01*
X102977524Y-115361074D01*
X103004937Y-115373456D01*
X103004937Y-115616677D01*
X102980905Y-115591287D01*
X102923817Y-115520828D01*
X102893025Y-115459824D01*
X102879367Y-115390414D01*
X102873903Y-115300125D01*
X102878582Y-115147556D01*
X102878582Y-115147556D01*
G37*
X102878582Y-115147556D02*
X102908885Y-115050917D01*
X102966451Y-115007345D01*
X103039684Y-115010299D01*
X103104079Y-115043988D01*
X103124000Y-115084015D01*
X103131838Y-115112044D01*
X103162860Y-115097812D01*
X103203249Y-115062118D01*
X103268617Y-115011574D01*
X103300182Y-115007428D01*
X103295820Y-115041044D01*
X103253405Y-115103785D01*
X103222042Y-115138494D01*
X103149825Y-115232682D01*
X103131561Y-115307035D01*
X103167142Y-115356379D01*
X103226945Y-115373622D01*
X103289637Y-115391799D01*
X103304899Y-115435816D01*
X103303055Y-115452997D01*
X103282716Y-115500314D01*
X103228607Y-115526605D01*
X103158952Y-115538250D01*
X103025267Y-115554125D01*
X103169883Y-115695674D01*
X103263493Y-115792863D01*
X103308657Y-115854578D01*
X103307335Y-115883956D01*
X103289770Y-115887500D01*
X103257978Y-115866106D01*
X103194297Y-115808986D01*
X103110272Y-115726731D01*
X103073454Y-115689063D01*
X103004937Y-115616677D01*
X103004937Y-115373456D01*
X103037917Y-115370517D01*
X103054685Y-115336036D01*
X103060260Y-115256223D01*
X103060500Y-115220750D01*
X103057340Y-115124367D01*
X103044518Y-115077522D01*
X103017014Y-115066424D01*
X103004937Y-115068045D01*
X102968670Y-115090654D01*
X102952153Y-115150154D01*
X102949375Y-115220750D01*
X102955488Y-115314618D01*
X102977524Y-115361074D01*
X103004937Y-115373456D01*
X103004937Y-115616677D01*
X102980905Y-115591287D01*
X102923817Y-115520828D01*
X102893025Y-115459824D01*
X102879367Y-115390414D01*
X102873903Y-115300125D01*
X102878582Y-115147556D01*
G36*
X103255195Y-116027492D02*
G01*
X103266439Y-115948713D01*
X103282719Y-115919251D01*
X103282750Y-115919250D01*
X103299036Y-115948617D01*
X103310291Y-116027324D01*
X103314499Y-116141285D01*
X103314500Y-116141500D01*
X103310304Y-116255509D01*
X103299060Y-116334288D01*
X103282780Y-116363750D01*
X103282750Y-116363750D01*
X103266463Y-116334384D01*
X103255208Y-116255677D01*
X103251000Y-116141716D01*
X103251000Y-116141500D01*
X103255195Y-116027492D01*
X103255195Y-116027492D01*
G37*
X103255195Y-116027492D02*
X103266439Y-115948713D01*
X103282719Y-115919251D01*
X103282750Y-115919250D01*
X103299036Y-115948617D01*
X103310291Y-116027324D01*
X103314499Y-116141285D01*
X103314500Y-116141500D01*
X103310304Y-116255509D01*
X103299060Y-116334288D01*
X103282780Y-116363750D01*
X103282750Y-116363750D01*
X103266463Y-116334384D01*
X103255208Y-116255677D01*
X103251000Y-116141716D01*
X103251000Y-116141500D01*
X103255195Y-116027492D01*
G36*
X102876680Y-116540923D02*
G01*
X102904000Y-116457876D01*
X102965933Y-116415135D01*
X103070210Y-116402580D01*
X103083897Y-116402601D01*
X103182137Y-116409681D01*
X103256210Y-116426001D01*
X103274812Y-116435376D01*
X103298524Y-116486224D01*
X103312249Y-116584246D01*
X103314500Y-116654839D01*
X103314500Y-116842902D01*
X103197286Y-116837768D01*
X103197286Y-116770812D01*
X103231373Y-116769490D01*
X103246313Y-116738492D01*
X103246919Y-116663426D01*
X103244911Y-116628372D01*
X103231940Y-116527908D01*
X103207333Y-116481111D01*
X103187500Y-116474875D01*
X103153387Y-116501519D01*
X103136935Y-116566472D01*
X103137400Y-116647270D01*
X103154040Y-116721449D01*
X103186111Y-116766544D01*
X103197286Y-116770812D01*
X103197286Y-116837768D01*
X103100187Y-116833514D01*
X103004937Y-116829342D01*
X103004937Y-116770456D01*
X103037917Y-116767517D01*
X103054685Y-116733036D01*
X103060260Y-116653223D01*
X103060500Y-116617750D01*
X103057340Y-116521367D01*
X103044518Y-116474522D01*
X103017014Y-116463424D01*
X103004937Y-116465045D01*
X102968670Y-116487654D01*
X102952153Y-116547154D01*
X102949375Y-116617750D01*
X102955488Y-116711618D01*
X102977524Y-116758074D01*
X103004937Y-116770456D01*
X103004937Y-116829342D01*
X102885875Y-116824125D01*
X102876242Y-116674394D01*
X102876680Y-116540923D01*
X102876680Y-116540923D01*
G37*
X102876680Y-116540923D02*
X102904000Y-116457876D01*
X102965933Y-116415135D01*
X103070210Y-116402580D01*
X103083897Y-116402601D01*
X103182137Y-116409681D01*
X103256210Y-116426001D01*
X103274812Y-116435376D01*
X103298524Y-116486224D01*
X103312249Y-116584246D01*
X103314500Y-116654839D01*
X103314500Y-116842902D01*
X103197286Y-116837768D01*
X103197286Y-116770812D01*
X103231373Y-116769490D01*
X103246313Y-116738492D01*
X103246919Y-116663426D01*
X103244911Y-116628372D01*
X103231940Y-116527908D01*
X103207333Y-116481111D01*
X103187500Y-116474875D01*
X103153387Y-116501519D01*
X103136935Y-116566472D01*
X103137400Y-116647270D01*
X103154040Y-116721449D01*
X103186111Y-116766544D01*
X103197286Y-116770812D01*
X103197286Y-116837768D01*
X103100187Y-116833514D01*
X103004937Y-116829342D01*
X103004937Y-116770456D01*
X103037917Y-116767517D01*
X103054685Y-116733036D01*
X103060260Y-116653223D01*
X103060500Y-116617750D01*
X103057340Y-116521367D01*
X103044518Y-116474522D01*
X103017014Y-116463424D01*
X103004937Y-116465045D01*
X102968670Y-116487654D01*
X102952153Y-116547154D01*
X102949375Y-116617750D01*
X102955488Y-116711618D01*
X102977524Y-116758074D01*
X103004937Y-116770456D01*
X103004937Y-116829342D01*
X102885875Y-116824125D01*
X102876242Y-116674394D01*
X102876680Y-116540923D01*
G36*
X102172954Y-110487998D02*
G01*
X102178994Y-110299699D01*
X102192137Y-110157087D01*
X102214897Y-110051270D01*
X102249792Y-109973360D01*
X102299337Y-109914465D01*
X102366048Y-109865697D01*
X102425900Y-109831979D01*
X102482029Y-109804732D01*
X102538771Y-109785323D01*
X102607954Y-109772438D01*
X102701408Y-109764765D01*
X102830961Y-109760991D01*
X103008443Y-109759800D01*
X103076374Y-109759750D01*
X103271457Y-109760397D01*
X103414874Y-109763214D01*
X103518454Y-109769513D01*
X103594027Y-109780609D01*
X103653421Y-109797815D01*
X103708465Y-109822445D01*
X103726849Y-109831979D01*
X103807428Y-109878960D01*
X103869036Y-109929688D01*
X103914188Y-109993053D01*
X103945401Y-110077944D01*
X103965190Y-110193252D01*
X103976071Y-110347867D01*
X103980562Y-110550680D01*
X103981250Y-110730872D01*
X103980877Y-110942705D01*
X103979095Y-111100989D01*
X103974904Y-111215676D01*
X103967307Y-111296717D01*
X103955305Y-111354061D01*
X103937900Y-111397660D01*
X103914094Y-111437464D01*
X103909704Y-111444026D01*
X103850314Y-111523898D01*
X103787930Y-111583654D01*
X103712498Y-111626151D01*
X103613963Y-111654241D01*
X103482269Y-111670781D01*
X103307364Y-111678624D01*
X103079192Y-111680625D01*
X103076375Y-111680625D01*
X102847566Y-111678672D01*
X102672134Y-111670908D01*
X102540025Y-111654478D01*
X102441182Y-111626529D01*
X102365552Y-111584205D01*
X102303080Y-111524652D01*
X102243712Y-111445015D01*
X102243045Y-111444026D01*
X102218141Y-111403914D01*
X102199796Y-111361571D01*
X102187011Y-111307046D01*
X102178788Y-111230390D01*
X102174128Y-111121651D01*
X102172033Y-110970879D01*
X102171505Y-110768122D01*
X102171500Y-110730872D01*
X102172954Y-110487998D01*
X102172954Y-110487998D01*
G37*
X102172954Y-110487998D02*
X102178994Y-110299699D01*
X102192137Y-110157087D01*
X102214897Y-110051270D01*
X102249792Y-109973360D01*
X102299337Y-109914465D01*
X102366048Y-109865697D01*
X102425900Y-109831979D01*
X102482029Y-109804732D01*
X102538771Y-109785323D01*
X102607954Y-109772438D01*
X102701408Y-109764765D01*
X102830961Y-109760991D01*
X103008443Y-109759800D01*
X103076374Y-109759750D01*
X103271457Y-109760397D01*
X103414874Y-109763214D01*
X103518454Y-109769513D01*
X103594027Y-109780609D01*
X103653421Y-109797815D01*
X103708465Y-109822445D01*
X103726849Y-109831979D01*
X103807428Y-109878960D01*
X103869036Y-109929688D01*
X103914188Y-109993053D01*
X103945401Y-110077944D01*
X103965190Y-110193252D01*
X103976071Y-110347867D01*
X103980562Y-110550680D01*
X103981250Y-110730872D01*
X103980877Y-110942705D01*
X103979095Y-111100989D01*
X103974904Y-111215676D01*
X103967307Y-111296717D01*
X103955305Y-111354061D01*
X103937900Y-111397660D01*
X103914094Y-111437464D01*
X103909704Y-111444026D01*
X103850314Y-111523898D01*
X103787930Y-111583654D01*
X103712498Y-111626151D01*
X103613963Y-111654241D01*
X103482269Y-111670781D01*
X103307364Y-111678624D01*
X103079192Y-111680625D01*
X103076375Y-111680625D01*
X102847566Y-111678672D01*
X102672134Y-111670908D01*
X102540025Y-111654478D01*
X102441182Y-111626529D01*
X102365552Y-111584205D01*
X102303080Y-111524652D01*
X102243712Y-111445015D01*
X102243045Y-111444026D01*
X102218141Y-111403914D01*
X102199796Y-111361571D01*
X102187011Y-111307046D01*
X102178788Y-111230390D01*
X102174128Y-111121651D01*
X102172033Y-110970879D01*
X102171505Y-110768122D01*
X102171500Y-110730872D01*
X102172954Y-110487998D01*
G36*
X104576773Y-113800567D02*
G01*
X104654712Y-113665820D01*
X104684737Y-113633147D01*
X104755674Y-113573249D01*
X104829187Y-113545195D01*
X104934761Y-113538009D01*
X104940380Y-113538000D01*
X105044431Y-113543620D01*
X105115629Y-113568986D01*
X105184237Y-113626865D01*
X105206897Y-113650415D01*
X105272301Y-113716622D01*
X105316463Y-113742974D01*
X105361326Y-113736167D01*
X105410281Y-113712480D01*
X105502486Y-113634455D01*
X105577435Y-113502324D01*
X105613060Y-113403063D01*
X105651361Y-113361139D01*
X105737644Y-113347521D01*
X105742378Y-113347500D01*
X105817454Y-113352653D01*
X105848423Y-113379134D01*
X105854499Y-113443484D01*
X105854500Y-113444015D01*
X105835672Y-113548722D01*
X105788136Y-113668605D01*
X105725316Y-113774286D01*
X105681703Y-113822233D01*
X105653722Y-113854340D01*
X105658761Y-113892087D01*
X105700761Y-113955114D01*
X105711094Y-113968752D01*
X105787627Y-114085215D01*
X105839632Y-114210723D01*
X105866330Y-114307938D01*
X105875594Y-114364022D01*
X105856524Y-114388834D01*
X105793971Y-114395091D01*
X105762317Y-114395250D01*
X105678819Y-114389589D01*
X105634154Y-114361512D01*
X105603919Y-114294383D01*
X105600842Y-114285165D01*
X105559239Y-114204998D01*
X105493591Y-114121494D01*
X105420833Y-114052579D01*
X105357903Y-114016178D01*
X105344879Y-114014250D01*
X105312390Y-114039630D01*
X105271360Y-114101481D01*
X105267402Y-114108963D01*
X105178797Y-114218210D01*
X105059026Y-114281885D01*
X104923663Y-114297401D01*
X104788282Y-114262170D01*
X104698960Y-114203420D01*
X104599152Y-114079607D01*
X104558338Y-113941909D01*
X104576773Y-113800567D01*
X104576773Y-113800567D01*
G37*
X104576773Y-113800567D02*
X104654712Y-113665820D01*
X104684737Y-113633147D01*
X104755674Y-113573249D01*
X104829187Y-113545195D01*
X104934761Y-113538009D01*
X104940380Y-113538000D01*
X105044431Y-113543620D01*
X105115629Y-113568986D01*
X105184237Y-113626865D01*
X105206897Y-113650415D01*
X105272301Y-113716622D01*
X105316463Y-113742974D01*
X105361326Y-113736167D01*
X105410281Y-113712480D01*
X105502486Y-113634455D01*
X105577435Y-113502324D01*
X105613060Y-113403063D01*
X105651361Y-113361139D01*
X105737644Y-113347521D01*
X105742378Y-113347500D01*
X105817454Y-113352653D01*
X105848423Y-113379134D01*
X105854499Y-113443484D01*
X105854500Y-113444015D01*
X105835672Y-113548722D01*
X105788136Y-113668605D01*
X105725316Y-113774286D01*
X105681703Y-113822233D01*
X105653722Y-113854340D01*
X105658761Y-113892087D01*
X105700761Y-113955114D01*
X105711094Y-113968752D01*
X105787627Y-114085215D01*
X105839632Y-114210723D01*
X105866330Y-114307938D01*
X105875594Y-114364022D01*
X105856524Y-114388834D01*
X105793971Y-114395091D01*
X105762317Y-114395250D01*
X105678819Y-114389589D01*
X105634154Y-114361512D01*
X105603919Y-114294383D01*
X105600842Y-114285165D01*
X105559239Y-114204998D01*
X105493591Y-114121494D01*
X105420833Y-114052579D01*
X105357903Y-114016178D01*
X105344879Y-114014250D01*
X105312390Y-114039630D01*
X105271360Y-114101481D01*
X105267402Y-114108963D01*
X105178797Y-114218210D01*
X105059026Y-114281885D01*
X104923663Y-114297401D01*
X104788282Y-114262170D01*
X104698960Y-114203420D01*
X104599152Y-114079607D01*
X104558338Y-113941909D01*
X104576773Y-113800567D01*
G36*
X98356394Y-110789977D02*
G01*
X98436186Y-110500716D01*
X98572483Y-110235320D01*
X98768265Y-109986503D01*
X98806000Y-109947039D01*
X99048132Y-109742534D01*
X99316834Y-109590731D01*
X99604073Y-109491915D01*
X99901815Y-109446374D01*
X100202025Y-109454392D01*
X100496670Y-109516258D01*
X100777715Y-109632257D01*
X101037128Y-109802675D01*
X101110010Y-109864889D01*
X101266625Y-110006721D01*
X101409500Y-109935483D01*
X101533151Y-109878005D01*
X101667052Y-109821658D01*
X101703187Y-109807684D01*
X101795252Y-109767789D01*
X101840661Y-109729192D01*
X101854429Y-109678062D01*
X101854697Y-109668125D01*
X101880842Y-109537351D01*
X101948379Y-109398718D01*
X102043954Y-109276538D01*
X102094135Y-109232190D01*
X102214182Y-109140625D01*
X103938567Y-109140625D01*
X104060196Y-109233396D01*
X104169477Y-109346731D01*
X104246588Y-109479458D01*
X104290046Y-109565914D01*
X104331300Y-109621504D01*
X104350869Y-109632750D01*
X104417035Y-109644814D01*
X104527627Y-109677633D01*
X104669055Y-109726147D01*
X104827729Y-109785297D01*
X104990058Y-109850024D01*
X105142453Y-109915268D01*
X105267125Y-109973860D01*
X105722504Y-110236713D01*
X106140226Y-110548195D01*
X106516897Y-110903851D01*
X106849123Y-111299229D01*
X107133509Y-111729875D01*
X107366661Y-112191335D01*
X107545187Y-112679157D01*
X107649143Y-113099339D01*
X107673349Y-113261979D01*
X107692588Y-113467062D01*
X107706262Y-113696675D01*
X107713775Y-113932908D01*
X107714528Y-114157849D01*
X107707922Y-114353586D01*
X107695496Y-114487825D01*
X107590899Y-115015496D01*
X107430192Y-115517405D01*
X107216185Y-115990166D01*
X106951691Y-116430396D01*
X106639519Y-116834711D01*
X106282481Y-117199727D01*
X105883388Y-117522059D01*
X105445050Y-117798323D01*
X104970279Y-118025136D01*
X104663657Y-118137868D01*
X104509833Y-118189051D01*
X104404285Y-118227928D01*
X104334861Y-118261710D01*
X104298750Y-118290233D01*
X104298750Y-117976828D01*
X104513062Y-117914556D01*
X104675115Y-117858005D01*
X104873056Y-117774488D01*
X105090080Y-117672472D01*
X105309381Y-117560423D01*
X105514151Y-117446808D01*
X105687586Y-117340093D01*
X105775125Y-117278763D01*
X106167958Y-116943287D01*
X106514316Y-116566922D01*
X106811499Y-116154381D01*
X107056808Y-115710377D01*
X107247542Y-115239623D01*
X107381004Y-114746831D01*
X107441467Y-114369348D01*
X107455596Y-114156672D01*
X107456277Y-113906032D01*
X107444539Y-113641293D01*
X107421413Y-113386316D01*
X107389901Y-113175222D01*
X107263827Y-112677371D01*
X107079840Y-112202940D01*
X106840253Y-111756327D01*
X106547378Y-111341932D01*
X106252915Y-111012930D01*
X105862380Y-110663346D01*
X105443573Y-110370618D01*
X104996459Y-110134724D01*
X104521002Y-109955643D01*
X104465437Y-109938963D01*
X104298750Y-109890173D01*
X104298750Y-112466246D01*
X104370187Y-112414670D01*
X104624451Y-112256947D01*
X104869120Y-112159435D01*
X105109574Y-112120633D01*
X105351191Y-112139044D01*
X105355827Y-112139937D01*
X105617741Y-112222180D01*
X105854632Y-112358855D01*
X106062948Y-112544634D01*
X106239133Y-112774188D01*
X106379634Y-113042189D01*
X106480897Y-113343307D01*
X106539367Y-113672215D01*
X106553000Y-113934875D01*
X106530126Y-114271070D01*
X106464383Y-114582618D01*
X106360088Y-114865615D01*
X106221560Y-115116156D01*
X106053115Y-115330336D01*
X105859073Y-115504253D01*
X105643749Y-115634001D01*
X105411463Y-115715675D01*
X105166532Y-115745372D01*
X105156000Y-115744284D01*
X105156000Y-115485334D01*
X105376725Y-115454592D01*
X105587337Y-115366102D01*
X105782049Y-115225469D01*
X105955075Y-115038299D01*
X106100626Y-114810195D01*
X106212916Y-114546763D01*
X106248750Y-114427000D01*
X106278014Y-114262475D01*
X106293173Y-114060213D01*
X106294178Y-113844402D01*
X106280981Y-113639230D01*
X106253534Y-113468885D01*
X106250688Y-113457359D01*
X106161196Y-113194331D01*
X106035700Y-112952142D01*
X105881927Y-112741333D01*
X105707603Y-112572444D01*
X105520456Y-112456017D01*
X105514836Y-112453494D01*
X105321717Y-112397878D01*
X105108346Y-112385759D01*
X104900733Y-112417137D01*
X104797163Y-112453494D01*
X104609755Y-112568219D01*
X104434944Y-112735715D01*
X104280456Y-112945442D01*
X104154018Y-113186858D01*
X104063357Y-113449423D01*
X104061311Y-113457359D01*
X104030237Y-113638145D01*
X104015898Y-113854196D01*
X104018295Y-114079520D01*
X104037427Y-114288127D01*
X104061311Y-114412392D01*
X104156179Y-114691907D01*
X104286740Y-114938018D01*
X104447406Y-115145248D01*
X104632588Y-115308117D01*
X104836696Y-115421150D01*
X105054142Y-115478867D01*
X105156000Y-115485334D01*
X105156000Y-115744284D01*
X104913274Y-115719187D01*
X104668615Y-115638869D01*
X104557200Y-115578083D01*
X104444554Y-115499568D01*
X104416199Y-115476044D01*
X104298750Y-115372922D01*
X104298750Y-117976828D01*
X104298750Y-118290233D01*
X104289413Y-118297609D01*
X104255788Y-118342834D01*
X104225308Y-118398013D01*
X104157763Y-118499035D01*
X104075773Y-118586505D01*
X104045627Y-118610063D01*
X104012244Y-118631328D01*
X103977146Y-118647890D01*
X103932399Y-118660336D01*
X103870067Y-118669251D01*
X103782216Y-118675222D01*
X103660910Y-118678833D01*
X103498215Y-118680671D01*
X103286196Y-118681322D01*
X103079617Y-118681382D01*
X102820886Y-118681038D01*
X102617781Y-118679756D01*
X102462430Y-118677042D01*
X102346961Y-118672402D01*
X102277818Y-118666552D01*
X102277818Y-118427501D01*
X103076375Y-118427500D01*
X103321921Y-118427352D01*
X103511884Y-118426468D01*
X103654180Y-118424196D01*
X103756725Y-118419880D01*
X103827436Y-118412864D01*
X103874229Y-118402495D01*
X103905021Y-118388117D01*
X103927727Y-118369075D01*
X103939924Y-118356063D01*
X103992907Y-118288759D01*
X104022327Y-118237000D01*
X104025819Y-118196635D01*
X104029179Y-118099072D01*
X104032326Y-117950615D01*
X104035185Y-117757565D01*
X104037677Y-117526226D01*
X104039724Y-117262900D01*
X104041248Y-116973891D01*
X104042171Y-116665500D01*
X104042243Y-116624423D01*
X104042703Y-116267547D01*
X104042713Y-115968546D01*
X104042080Y-115721797D01*
X104040610Y-115521674D01*
X104038110Y-115362554D01*
X104034388Y-115238812D01*
X104029251Y-115144824D01*
X104022504Y-115074967D01*
X104013956Y-115023616D01*
X104003412Y-114985146D01*
X103990681Y-114953934D01*
X103984458Y-114941289D01*
X103886278Y-114715154D01*
X103820990Y-114479414D01*
X103785054Y-114217075D01*
X103774875Y-113934875D01*
X103786643Y-113633427D01*
X103824339Y-113374255D01*
X103891543Y-113140199D01*
X103985299Y-112926814D01*
X103998977Y-112897518D01*
X104010401Y-112864210D01*
X104019737Y-112821372D01*
X104027151Y-112763483D01*
X104032808Y-112685024D01*
X104036875Y-112580476D01*
X104039517Y-112444318D01*
X104040900Y-112271031D01*
X104041191Y-112055097D01*
X104040555Y-111790994D01*
X104039158Y-111473205D01*
X104037653Y-111185495D01*
X104028875Y-109564006D01*
X103925186Y-109471378D01*
X103821498Y-109378751D01*
X103076374Y-109378750D01*
X102331251Y-109378750D01*
X102123875Y-109564034D01*
X102107235Y-117125750D01*
X103122998Y-117125750D01*
X103223078Y-117215172D01*
X103290235Y-117287861D01*
X103318572Y-117364755D01*
X103323159Y-117443251D01*
X103314003Y-117544473D01*
X103276778Y-117616994D01*
X103223078Y-117671329D01*
X103122998Y-117760750D01*
X102101276Y-117760750D01*
X102112700Y-118012326D01*
X102121631Y-118146797D01*
X102136786Y-118235837D01*
X102162946Y-118297497D01*
X102200972Y-118345701D01*
X102277818Y-118427501D01*
X102277818Y-118666552D01*
X102263501Y-118665340D01*
X102204178Y-118655364D01*
X102161120Y-118641977D01*
X102126453Y-118624687D01*
X102120548Y-118621153D01*
X102005074Y-118518227D01*
X101915632Y-118375155D01*
X101869701Y-118232764D01*
X101845925Y-118153786D01*
X101824452Y-118131353D01*
X101824452Y-117822044D01*
X101853017Y-117803133D01*
X101854000Y-117792500D01*
X101827109Y-117767908D01*
X101782562Y-117761237D01*
X101747129Y-117765065D01*
X101747129Y-117125750D01*
X101854000Y-117125750D01*
X101854000Y-113585625D01*
X101853825Y-113117252D01*
X101853318Y-112667015D01*
X101852499Y-112238941D01*
X101851393Y-111837054D01*
X101850021Y-111465380D01*
X101848405Y-111127946D01*
X101846569Y-110828775D01*
X101844536Y-110571895D01*
X101842326Y-110361330D01*
X101839964Y-110201106D01*
X101837472Y-110095248D01*
X101834872Y-110047783D01*
X101834157Y-110045500D01*
X101786598Y-110058566D01*
X101707536Y-110091687D01*
X101615228Y-110135751D01*
X101527932Y-110181647D01*
X101463906Y-110220260D01*
X101441250Y-110241601D01*
X101454654Y-110285431D01*
X101488343Y-110361602D01*
X101504885Y-110395016D01*
X101547455Y-110496087D01*
X101590501Y-110625939D01*
X101615541Y-110719188D01*
X101660484Y-111039632D01*
X101645561Y-111351545D01*
X101574357Y-111648790D01*
X101450460Y-111925233D01*
X101277458Y-112174738D01*
X101058938Y-112391170D01*
X100798488Y-112568394D01*
X100499694Y-112700275D01*
X100447317Y-112717142D01*
X100321411Y-112750681D01*
X100202942Y-112768541D01*
X100067049Y-112773171D01*
X99923442Y-112768730D01*
X99873802Y-112764919D01*
X99873802Y-112514298D01*
X100163543Y-112506983D01*
X100452286Y-112437002D01*
X100612201Y-112370281D01*
X100790375Y-112284354D01*
X100618413Y-112269365D01*
X100618413Y-112008046D01*
X100810506Y-112004072D01*
X100968260Y-111957202D01*
X101108851Y-111861666D01*
X101139889Y-111832861D01*
X101275095Y-111658526D01*
X101363847Y-111448204D01*
X101404132Y-111211260D01*
X101393940Y-110957060D01*
X101362139Y-110797763D01*
X101273283Y-110545902D01*
X101148309Y-110319802D01*
X100994197Y-110125053D01*
X100817930Y-109967249D01*
X100626487Y-109851981D01*
X100426849Y-109784842D01*
X100225997Y-109771425D01*
X100106471Y-109791845D01*
X99955315Y-109861481D01*
X99813828Y-109978592D01*
X99697225Y-110127395D01*
X99620721Y-110292107D01*
X99619146Y-110297326D01*
X99572674Y-110548133D01*
X99576072Y-110802810D01*
X99624558Y-111053169D01*
X99713346Y-111291018D01*
X99837653Y-111508167D01*
X99992694Y-111696425D01*
X100173684Y-111847601D01*
X100375841Y-111953507D01*
X100594380Y-112005950D01*
X100618413Y-112008046D01*
X100618413Y-112269365D01*
X100580152Y-112266029D01*
X100328685Y-112215082D01*
X100183277Y-112157123D01*
X99970165Y-112022035D01*
X99771951Y-111835961D01*
X99598125Y-111611189D01*
X99458179Y-111360001D01*
X99361604Y-111094683D01*
X99361158Y-111093010D01*
X99330223Y-110920679D01*
X99316797Y-110718978D01*
X99320852Y-110513290D01*
X99342357Y-110328998D01*
X99362130Y-110244202D01*
X99409111Y-110122724D01*
X99476444Y-109989883D01*
X99518733Y-109920940D01*
X99570358Y-109837384D01*
X99597558Y-109779126D01*
X99595636Y-109759750D01*
X99522234Y-109778537D01*
X99415761Y-109828688D01*
X99291906Y-109900891D01*
X99166358Y-109985832D01*
X99054806Y-110074199D01*
X99033277Y-110093566D01*
X98840146Y-110313527D01*
X98700403Y-110561806D01*
X98615443Y-110830270D01*
X98586661Y-111110782D01*
X98615450Y-111395210D01*
X98703206Y-111675416D01*
X98746321Y-111767491D01*
X98832377Y-111900404D01*
X98955235Y-112045529D01*
X99096354Y-112183939D01*
X99237194Y-112296709D01*
X99308480Y-112341307D01*
X99587351Y-112459040D01*
X99873802Y-112514298D01*
X99873802Y-112764919D01*
X99771909Y-112757095D01*
X99628086Y-112738310D01*
X99514860Y-112715652D01*
X99480802Y-112705361D01*
X99345980Y-112656507D01*
X99297298Y-112819441D01*
X99230073Y-113104553D01*
X99183422Y-113429964D01*
X99158401Y-113775549D01*
X99156064Y-114121182D01*
X99177466Y-114446739D01*
X99202599Y-114626706D01*
X99275834Y-114957015D01*
X99379270Y-115299264D01*
X99501888Y-115617355D01*
X99511965Y-115640160D01*
X99607109Y-115853195D01*
X99855329Y-115834054D01*
X100166645Y-115836263D01*
X100461056Y-115894987D01*
X100726875Y-115999772D01*
X101003636Y-116167819D01*
X101239458Y-116382894D01*
X101429885Y-116640046D01*
X101570458Y-116934329D01*
X101571653Y-116937594D01*
X101611369Y-117040350D01*
X101643920Y-117096722D01*
X101682224Y-117120563D01*
X101739203Y-117125728D01*
X101747129Y-117125750D01*
X101747129Y-117765065D01*
X101736169Y-117766250D01*
X101747575Y-117784925D01*
X101758750Y-117792500D01*
X101824452Y-117822044D01*
X101824452Y-118131353D01*
X101798589Y-118104333D01*
X101718527Y-118066418D01*
X101639858Y-118037243D01*
X101592442Y-118022978D01*
X101586429Y-118023029D01*
X101572360Y-118052999D01*
X101537125Y-118125641D01*
X101487658Y-118226683D01*
X101474781Y-118252875D01*
X101358392Y-118443279D01*
X101202823Y-118632355D01*
X101025036Y-118802674D01*
X100841997Y-118936811D01*
X100769838Y-118977069D01*
X100477174Y-119090508D01*
X100308377Y-119123012D01*
X100308377Y-118812658D01*
X100503940Y-118779218D01*
X100699053Y-118699011D01*
X100885438Y-118573958D01*
X101054816Y-118405982D01*
X101132071Y-118304280D01*
X101187068Y-118214540D01*
X101247279Y-118101381D01*
X101304239Y-117982769D01*
X101349482Y-117876669D01*
X101374540Y-117801045D01*
X101376996Y-117784563D01*
X101348418Y-117772514D01*
X101272829Y-117763950D01*
X101171375Y-117760839D01*
X101171375Y-117125750D01*
X101276246Y-117121020D01*
X101331422Y-117100848D01*
X101339554Y-117056267D01*
X101303290Y-116978308D01*
X101242812Y-116883969D01*
X101160526Y-116782870D01*
X101064174Y-116694188D01*
X101012625Y-116659084D01*
X100884197Y-116602503D01*
X100751785Y-116569250D01*
X100635579Y-116562791D01*
X100563044Y-116581858D01*
X100526276Y-116607128D01*
X100545758Y-116615718D01*
X100580252Y-116616785D01*
X100693837Y-116646662D01*
X100806400Y-116723182D01*
X100903748Y-116830869D01*
X100971689Y-116954249D01*
X100996052Y-117070188D01*
X101007017Y-117102744D01*
X101048382Y-117119669D01*
X101134433Y-117125492D01*
X101171375Y-117125750D01*
X101171375Y-117760839D01*
X101168484Y-117760750D01*
X101050288Y-117763729D01*
X100970649Y-117778080D01*
X100904709Y-117811931D01*
X100829943Y-117871406D01*
X100675015Y-117967813D01*
X100507686Y-118010879D01*
X100340166Y-118002836D01*
X100184666Y-117945916D01*
X100053393Y-117842353D01*
X99967261Y-117713670D01*
X99940386Y-117639891D01*
X99925393Y-117548433D01*
X99920616Y-117423148D01*
X99923105Y-117285387D01*
X99926825Y-117143176D01*
X99926022Y-117054848D01*
X99919238Y-117010862D01*
X99905020Y-117001676D01*
X99882228Y-117017458D01*
X99838157Y-117071406D01*
X99781874Y-117158100D01*
X99750095Y-117213761D01*
X99644531Y-117459246D01*
X99584536Y-117713617D01*
X99569707Y-117965996D01*
X99599643Y-118205509D01*
X99673942Y-118421279D01*
X99792203Y-118602431D01*
X99801770Y-118613153D01*
X99949014Y-118731547D01*
X100120642Y-118797408D01*
X100308377Y-118812658D01*
X100308377Y-119123012D01*
X100168553Y-119149937D01*
X99855704Y-119155375D01*
X99683803Y-119128052D01*
X99683803Y-118868292D01*
X99682258Y-118855482D01*
X99660050Y-118835597D01*
X99527033Y-118685148D01*
X99422199Y-118488256D01*
X99350322Y-118257508D01*
X99316178Y-118005488D01*
X99314000Y-117923342D01*
X99342766Y-117595267D01*
X99429580Y-117292331D01*
X99575217Y-117012685D01*
X99780450Y-116754481D01*
X99821152Y-116712756D01*
X100005405Y-116548722D01*
X100185437Y-116433751D01*
X100379758Y-116357612D01*
X100525536Y-116323533D01*
X100722990Y-116286813D01*
X100557737Y-116211826D01*
X100430422Y-116164090D01*
X100280996Y-116122054D01*
X100190423Y-116103358D01*
X99924725Y-116089745D01*
X99652938Y-116136802D01*
X99371362Y-116245186D01*
X99358750Y-116251344D01*
X99114895Y-116404634D01*
X98914394Y-116598375D01*
X98759607Y-116824523D01*
X98652893Y-117075033D01*
X98596612Y-117341864D01*
X98593125Y-117616969D01*
X98644791Y-117892305D01*
X98753971Y-118159829D01*
X98783389Y-118212496D01*
X98924441Y-118401466D01*
X99111384Y-118576428D01*
X99326615Y-118724018D01*
X99552528Y-118830869D01*
X99631500Y-118856348D01*
X99683803Y-118868292D01*
X99683803Y-119128052D01*
X99550350Y-119106839D01*
X99264217Y-119004346D01*
X99205251Y-118974686D01*
X99076714Y-118889780D01*
X98930288Y-118767340D01*
X98782073Y-118623468D01*
X98648173Y-118474265D01*
X98544689Y-118335834D01*
X98512814Y-118282249D01*
X98399265Y-118003603D01*
X98338790Y-117702611D01*
X98331429Y-117391844D01*
X98377220Y-117083875D01*
X98476201Y-116791276D01*
X98508060Y-116724370D01*
X98638948Y-116518054D01*
X98813188Y-116319139D01*
X99011866Y-116147493D01*
X99134903Y-116065878D01*
X99234662Y-116007000D01*
X99308938Y-115962087D01*
X99344455Y-115939193D01*
X99345750Y-115937914D01*
X99334299Y-115908668D01*
X99303672Y-115834430D01*
X99259451Y-115728680D01*
X99236652Y-115674517D01*
X99084998Y-115269000D01*
X98979519Y-114874040D01*
X98916219Y-114469558D01*
X98891100Y-114035475D01*
X98890300Y-113934875D01*
X98902029Y-113553603D01*
X98939151Y-113209083D01*
X99004569Y-112878684D01*
X99045899Y-112721896D01*
X99092676Y-112556667D01*
X98845198Y-112309146D01*
X98640404Y-112079595D01*
X98491968Y-111852183D01*
X98394481Y-111614320D01*
X98342533Y-111353416D01*
X98330126Y-111110392D01*
X98356394Y-110789977D01*
X98356394Y-110789977D01*
G37*
X98356394Y-110789977D02*
X98436186Y-110500716D01*
X98572483Y-110235320D01*
X98768265Y-109986503D01*
X98806000Y-109947039D01*
X99048132Y-109742534D01*
X99316834Y-109590731D01*
X99604073Y-109491915D01*
X99901815Y-109446374D01*
X100202025Y-109454392D01*
X100496670Y-109516258D01*
X100777715Y-109632257D01*
X101037128Y-109802675D01*
X101110010Y-109864889D01*
X101266625Y-110006721D01*
X101409500Y-109935483D01*
X101533151Y-109878005D01*
X101667052Y-109821658D01*
X101703187Y-109807684D01*
X101795252Y-109767789D01*
X101840661Y-109729192D01*
X101854429Y-109678062D01*
X101854697Y-109668125D01*
X101880842Y-109537351D01*
X101948379Y-109398718D01*
X102043954Y-109276538D01*
X102094135Y-109232190D01*
X102214182Y-109140625D01*
X103938567Y-109140625D01*
X104060196Y-109233396D01*
X104169477Y-109346731D01*
X104246588Y-109479458D01*
X104290046Y-109565914D01*
X104331300Y-109621504D01*
X104350869Y-109632750D01*
X104417035Y-109644814D01*
X104527627Y-109677633D01*
X104669055Y-109726147D01*
X104827729Y-109785297D01*
X104990058Y-109850024D01*
X105142453Y-109915268D01*
X105267125Y-109973860D01*
X105722504Y-110236713D01*
X106140226Y-110548195D01*
X106516897Y-110903851D01*
X106849123Y-111299229D01*
X107133509Y-111729875D01*
X107366661Y-112191335D01*
X107545187Y-112679157D01*
X107649143Y-113099339D01*
X107673349Y-113261979D01*
X107692588Y-113467062D01*
X107706262Y-113696675D01*
X107713775Y-113932908D01*
X107714528Y-114157849D01*
X107707922Y-114353586D01*
X107695496Y-114487825D01*
X107590899Y-115015496D01*
X107430192Y-115517405D01*
X107216185Y-115990166D01*
X106951691Y-116430396D01*
X106639519Y-116834711D01*
X106282481Y-117199727D01*
X105883388Y-117522059D01*
X105445050Y-117798323D01*
X104970279Y-118025136D01*
X104663657Y-118137868D01*
X104509833Y-118189051D01*
X104404285Y-118227928D01*
X104334861Y-118261710D01*
X104298750Y-118290233D01*
X104298750Y-117976828D01*
X104513062Y-117914556D01*
X104675115Y-117858005D01*
X104873056Y-117774488D01*
X105090080Y-117672472D01*
X105309381Y-117560423D01*
X105514151Y-117446808D01*
X105687586Y-117340093D01*
X105775125Y-117278763D01*
X106167958Y-116943287D01*
X106514316Y-116566922D01*
X106811499Y-116154381D01*
X107056808Y-115710377D01*
X107247542Y-115239623D01*
X107381004Y-114746831D01*
X107441467Y-114369348D01*
X107455596Y-114156672D01*
X107456277Y-113906032D01*
X107444539Y-113641293D01*
X107421413Y-113386316D01*
X107389901Y-113175222D01*
X107263827Y-112677371D01*
X107079840Y-112202940D01*
X106840253Y-111756327D01*
X106547378Y-111341932D01*
X106252915Y-111012930D01*
X105862380Y-110663346D01*
X105443573Y-110370618D01*
X104996459Y-110134724D01*
X104521002Y-109955643D01*
X104465437Y-109938963D01*
X104298750Y-109890173D01*
X104298750Y-112466246D01*
X104370187Y-112414670D01*
X104624451Y-112256947D01*
X104869120Y-112159435D01*
X105109574Y-112120633D01*
X105351191Y-112139044D01*
X105355827Y-112139937D01*
X105617741Y-112222180D01*
X105854632Y-112358855D01*
X106062948Y-112544634D01*
X106239133Y-112774188D01*
X106379634Y-113042189D01*
X106480897Y-113343307D01*
X106539367Y-113672215D01*
X106553000Y-113934875D01*
X106530126Y-114271070D01*
X106464383Y-114582618D01*
X106360088Y-114865615D01*
X106221560Y-115116156D01*
X106053115Y-115330336D01*
X105859073Y-115504253D01*
X105643749Y-115634001D01*
X105411463Y-115715675D01*
X105166532Y-115745372D01*
X105156000Y-115744284D01*
X105156000Y-115485334D01*
X105376725Y-115454592D01*
X105587337Y-115366102D01*
X105782049Y-115225469D01*
X105955075Y-115038299D01*
X106100626Y-114810195D01*
X106212916Y-114546763D01*
X106248750Y-114427000D01*
X106278014Y-114262475D01*
X106293173Y-114060213D01*
X106294178Y-113844402D01*
X106280981Y-113639230D01*
X106253534Y-113468885D01*
X106250688Y-113457359D01*
X106161196Y-113194331D01*
X106035700Y-112952142D01*
X105881927Y-112741333D01*
X105707603Y-112572444D01*
X105520456Y-112456017D01*
X105514836Y-112453494D01*
X105321717Y-112397878D01*
X105108346Y-112385759D01*
X104900733Y-112417137D01*
X104797163Y-112453494D01*
X104609755Y-112568219D01*
X104434944Y-112735715D01*
X104280456Y-112945442D01*
X104154018Y-113186858D01*
X104063357Y-113449423D01*
X104061311Y-113457359D01*
X104030237Y-113638145D01*
X104015898Y-113854196D01*
X104018295Y-114079520D01*
X104037427Y-114288127D01*
X104061311Y-114412392D01*
X104156179Y-114691907D01*
X104286740Y-114938018D01*
X104447406Y-115145248D01*
X104632588Y-115308117D01*
X104836696Y-115421150D01*
X105054142Y-115478867D01*
X105156000Y-115485334D01*
X105156000Y-115744284D01*
X104913274Y-115719187D01*
X104668615Y-115638869D01*
X104557200Y-115578083D01*
X104444554Y-115499568D01*
X104416199Y-115476044D01*
X104298750Y-115372922D01*
X104298750Y-117976828D01*
X104298750Y-118290233D01*
X104289413Y-118297609D01*
X104255788Y-118342834D01*
X104225308Y-118398013D01*
X104157763Y-118499035D01*
X104075773Y-118586505D01*
X104045627Y-118610063D01*
X104012244Y-118631328D01*
X103977146Y-118647890D01*
X103932399Y-118660336D01*
X103870067Y-118669251D01*
X103782216Y-118675222D01*
X103660910Y-118678833D01*
X103498215Y-118680671D01*
X103286196Y-118681322D01*
X103079617Y-118681382D01*
X102820886Y-118681038D01*
X102617781Y-118679756D01*
X102462430Y-118677042D01*
X102346961Y-118672402D01*
X102277818Y-118666552D01*
X102277818Y-118427501D01*
X103076375Y-118427500D01*
X103321921Y-118427352D01*
X103511884Y-118426468D01*
X103654180Y-118424196D01*
X103756725Y-118419880D01*
X103827436Y-118412864D01*
X103874229Y-118402495D01*
X103905021Y-118388117D01*
X103927727Y-118369075D01*
X103939924Y-118356063D01*
X103992907Y-118288759D01*
X104022327Y-118237000D01*
X104025819Y-118196635D01*
X104029179Y-118099072D01*
X104032326Y-117950615D01*
X104035185Y-117757565D01*
X104037677Y-117526226D01*
X104039724Y-117262900D01*
X104041248Y-116973891D01*
X104042171Y-116665500D01*
X104042243Y-116624423D01*
X104042703Y-116267547D01*
X104042713Y-115968546D01*
X104042080Y-115721797D01*
X104040610Y-115521674D01*
X104038110Y-115362554D01*
X104034388Y-115238812D01*
X104029251Y-115144824D01*
X104022504Y-115074967D01*
X104013956Y-115023616D01*
X104003412Y-114985146D01*
X103990681Y-114953934D01*
X103984458Y-114941289D01*
X103886278Y-114715154D01*
X103820990Y-114479414D01*
X103785054Y-114217075D01*
X103774875Y-113934875D01*
X103786643Y-113633427D01*
X103824339Y-113374255D01*
X103891543Y-113140199D01*
X103985299Y-112926814D01*
X103998977Y-112897518D01*
X104010401Y-112864210D01*
X104019737Y-112821372D01*
X104027151Y-112763483D01*
X104032808Y-112685024D01*
X104036875Y-112580476D01*
X104039517Y-112444318D01*
X104040900Y-112271031D01*
X104041191Y-112055097D01*
X104040555Y-111790994D01*
X104039158Y-111473205D01*
X104037653Y-111185495D01*
X104028875Y-109564006D01*
X103925186Y-109471378D01*
X103821498Y-109378751D01*
X103076374Y-109378750D01*
X102331251Y-109378750D01*
X102123875Y-109564034D01*
X102107235Y-117125750D01*
X103122998Y-117125750D01*
X103223078Y-117215172D01*
X103290235Y-117287861D01*
X103318572Y-117364755D01*
X103323159Y-117443251D01*
X103314003Y-117544473D01*
X103276778Y-117616994D01*
X103223078Y-117671329D01*
X103122998Y-117760750D01*
X102101276Y-117760750D01*
X102112700Y-118012326D01*
X102121631Y-118146797D01*
X102136786Y-118235837D01*
X102162946Y-118297497D01*
X102200972Y-118345701D01*
X102277818Y-118427501D01*
X102277818Y-118666552D01*
X102263501Y-118665340D01*
X102204178Y-118655364D01*
X102161120Y-118641977D01*
X102126453Y-118624687D01*
X102120548Y-118621153D01*
X102005074Y-118518227D01*
X101915632Y-118375155D01*
X101869701Y-118232764D01*
X101845925Y-118153786D01*
X101824452Y-118131353D01*
X101824452Y-117822044D01*
X101853017Y-117803133D01*
X101854000Y-117792500D01*
X101827109Y-117767908D01*
X101782562Y-117761237D01*
X101747129Y-117765065D01*
X101747129Y-117125750D01*
X101854000Y-117125750D01*
X101854000Y-113585625D01*
X101853825Y-113117252D01*
X101853318Y-112667015D01*
X101852499Y-112238941D01*
X101851393Y-111837054D01*
X101850021Y-111465380D01*
X101848405Y-111127946D01*
X101846569Y-110828775D01*
X101844536Y-110571895D01*
X101842326Y-110361330D01*
X101839964Y-110201106D01*
X101837472Y-110095248D01*
X101834872Y-110047783D01*
X101834157Y-110045500D01*
X101786598Y-110058566D01*
X101707536Y-110091687D01*
X101615228Y-110135751D01*
X101527932Y-110181647D01*
X101463906Y-110220260D01*
X101441250Y-110241601D01*
X101454654Y-110285431D01*
X101488343Y-110361602D01*
X101504885Y-110395016D01*
X101547455Y-110496087D01*
X101590501Y-110625939D01*
X101615541Y-110719188D01*
X101660484Y-111039632D01*
X101645561Y-111351545D01*
X101574357Y-111648790D01*
X101450460Y-111925233D01*
X101277458Y-112174738D01*
X101058938Y-112391170D01*
X100798488Y-112568394D01*
X100499694Y-112700275D01*
X100447317Y-112717142D01*
X100321411Y-112750681D01*
X100202942Y-112768541D01*
X100067049Y-112773171D01*
X99923442Y-112768730D01*
X99873802Y-112764919D01*
X99873802Y-112514298D01*
X100163543Y-112506983D01*
X100452286Y-112437002D01*
X100612201Y-112370281D01*
X100790375Y-112284354D01*
X100618413Y-112269365D01*
X100618413Y-112008046D01*
X100810506Y-112004072D01*
X100968260Y-111957202D01*
X101108851Y-111861666D01*
X101139889Y-111832861D01*
X101275095Y-111658526D01*
X101363847Y-111448204D01*
X101404132Y-111211260D01*
X101393940Y-110957060D01*
X101362139Y-110797763D01*
X101273283Y-110545902D01*
X101148309Y-110319802D01*
X100994197Y-110125053D01*
X100817930Y-109967249D01*
X100626487Y-109851981D01*
X100426849Y-109784842D01*
X100225997Y-109771425D01*
X100106471Y-109791845D01*
X99955315Y-109861481D01*
X99813828Y-109978592D01*
X99697225Y-110127395D01*
X99620721Y-110292107D01*
X99619146Y-110297326D01*
X99572674Y-110548133D01*
X99576072Y-110802810D01*
X99624558Y-111053169D01*
X99713346Y-111291018D01*
X99837653Y-111508167D01*
X99992694Y-111696425D01*
X100173684Y-111847601D01*
X100375841Y-111953507D01*
X100594380Y-112005950D01*
X100618413Y-112008046D01*
X100618413Y-112269365D01*
X100580152Y-112266029D01*
X100328685Y-112215082D01*
X100183277Y-112157123D01*
X99970165Y-112022035D01*
X99771951Y-111835961D01*
X99598125Y-111611189D01*
X99458179Y-111360001D01*
X99361604Y-111094683D01*
X99361158Y-111093010D01*
X99330223Y-110920679D01*
X99316797Y-110718978D01*
X99320852Y-110513290D01*
X99342357Y-110328998D01*
X99362130Y-110244202D01*
X99409111Y-110122724D01*
X99476444Y-109989883D01*
X99518733Y-109920940D01*
X99570358Y-109837384D01*
X99597558Y-109779126D01*
X99595636Y-109759750D01*
X99522234Y-109778537D01*
X99415761Y-109828688D01*
X99291906Y-109900891D01*
X99166358Y-109985832D01*
X99054806Y-110074199D01*
X99033277Y-110093566D01*
X98840146Y-110313527D01*
X98700403Y-110561806D01*
X98615443Y-110830270D01*
X98586661Y-111110782D01*
X98615450Y-111395210D01*
X98703206Y-111675416D01*
X98746321Y-111767491D01*
X98832377Y-111900404D01*
X98955235Y-112045529D01*
X99096354Y-112183939D01*
X99237194Y-112296709D01*
X99308480Y-112341307D01*
X99587351Y-112459040D01*
X99873802Y-112514298D01*
X99873802Y-112764919D01*
X99771909Y-112757095D01*
X99628086Y-112738310D01*
X99514860Y-112715652D01*
X99480802Y-112705361D01*
X99345980Y-112656507D01*
X99297298Y-112819441D01*
X99230073Y-113104553D01*
X99183422Y-113429964D01*
X99158401Y-113775549D01*
X99156064Y-114121182D01*
X99177466Y-114446739D01*
X99202599Y-114626706D01*
X99275834Y-114957015D01*
X99379270Y-115299264D01*
X99501888Y-115617355D01*
X99511965Y-115640160D01*
X99607109Y-115853195D01*
X99855329Y-115834054D01*
X100166645Y-115836263D01*
X100461056Y-115894987D01*
X100726875Y-115999772D01*
X101003636Y-116167819D01*
X101239458Y-116382894D01*
X101429885Y-116640046D01*
X101570458Y-116934329D01*
X101571653Y-116937594D01*
X101611369Y-117040350D01*
X101643920Y-117096722D01*
X101682224Y-117120563D01*
X101739203Y-117125728D01*
X101747129Y-117125750D01*
X101747129Y-117765065D01*
X101736169Y-117766250D01*
X101747575Y-117784925D01*
X101758750Y-117792500D01*
X101824452Y-117822044D01*
X101824452Y-118131353D01*
X101798589Y-118104333D01*
X101718527Y-118066418D01*
X101639858Y-118037243D01*
X101592442Y-118022978D01*
X101586429Y-118023029D01*
X101572360Y-118052999D01*
X101537125Y-118125641D01*
X101487658Y-118226683D01*
X101474781Y-118252875D01*
X101358392Y-118443279D01*
X101202823Y-118632355D01*
X101025036Y-118802674D01*
X100841997Y-118936811D01*
X100769838Y-118977069D01*
X100477174Y-119090508D01*
X100308377Y-119123012D01*
X100308377Y-118812658D01*
X100503940Y-118779218D01*
X100699053Y-118699011D01*
X100885438Y-118573958D01*
X101054816Y-118405982D01*
X101132071Y-118304280D01*
X101187068Y-118214540D01*
X101247279Y-118101381D01*
X101304239Y-117982769D01*
X101349482Y-117876669D01*
X101374540Y-117801045D01*
X101376996Y-117784563D01*
X101348418Y-117772514D01*
X101272829Y-117763950D01*
X101171375Y-117760839D01*
X101171375Y-117125750D01*
X101276246Y-117121020D01*
X101331422Y-117100848D01*
X101339554Y-117056267D01*
X101303290Y-116978308D01*
X101242812Y-116883969D01*
X101160526Y-116782870D01*
X101064174Y-116694188D01*
X101012625Y-116659084D01*
X100884197Y-116602503D01*
X100751785Y-116569250D01*
X100635579Y-116562791D01*
X100563044Y-116581858D01*
X100526276Y-116607128D01*
X100545758Y-116615718D01*
X100580252Y-116616785D01*
X100693837Y-116646662D01*
X100806400Y-116723182D01*
X100903748Y-116830869D01*
X100971689Y-116954249D01*
X100996052Y-117070188D01*
X101007017Y-117102744D01*
X101048382Y-117119669D01*
X101134433Y-117125492D01*
X101171375Y-117125750D01*
X101171375Y-117760839D01*
X101168484Y-117760750D01*
X101050288Y-117763729D01*
X100970649Y-117778080D01*
X100904709Y-117811931D01*
X100829943Y-117871406D01*
X100675015Y-117967813D01*
X100507686Y-118010879D01*
X100340166Y-118002836D01*
X100184666Y-117945916D01*
X100053393Y-117842353D01*
X99967261Y-117713670D01*
X99940386Y-117639891D01*
X99925393Y-117548433D01*
X99920616Y-117423148D01*
X99923105Y-117285387D01*
X99926825Y-117143176D01*
X99926022Y-117054848D01*
X99919238Y-117010862D01*
X99905020Y-117001676D01*
X99882228Y-117017458D01*
X99838157Y-117071406D01*
X99781874Y-117158100D01*
X99750095Y-117213761D01*
X99644531Y-117459246D01*
X99584536Y-117713617D01*
X99569707Y-117965996D01*
X99599643Y-118205509D01*
X99673942Y-118421279D01*
X99792203Y-118602431D01*
X99801770Y-118613153D01*
X99949014Y-118731547D01*
X100120642Y-118797408D01*
X100308377Y-118812658D01*
X100308377Y-119123012D01*
X100168553Y-119149937D01*
X99855704Y-119155375D01*
X99683803Y-119128052D01*
X99683803Y-118868292D01*
X99682258Y-118855482D01*
X99660050Y-118835597D01*
X99527033Y-118685148D01*
X99422199Y-118488256D01*
X99350322Y-118257508D01*
X99316178Y-118005488D01*
X99314000Y-117923342D01*
X99342766Y-117595267D01*
X99429580Y-117292331D01*
X99575217Y-117012685D01*
X99780450Y-116754481D01*
X99821152Y-116712756D01*
X100005405Y-116548722D01*
X100185437Y-116433751D01*
X100379758Y-116357612D01*
X100525536Y-116323533D01*
X100722990Y-116286813D01*
X100557737Y-116211826D01*
X100430422Y-116164090D01*
X100280996Y-116122054D01*
X100190423Y-116103358D01*
X99924725Y-116089745D01*
X99652938Y-116136802D01*
X99371362Y-116245186D01*
X99358750Y-116251344D01*
X99114895Y-116404634D01*
X98914394Y-116598375D01*
X98759607Y-116824523D01*
X98652893Y-117075033D01*
X98596612Y-117341864D01*
X98593125Y-117616969D01*
X98644791Y-117892305D01*
X98753971Y-118159829D01*
X98783389Y-118212496D01*
X98924441Y-118401466D01*
X99111384Y-118576428D01*
X99326615Y-118724018D01*
X99552528Y-118830869D01*
X99631500Y-118856348D01*
X99683803Y-118868292D01*
X99683803Y-119128052D01*
X99550350Y-119106839D01*
X99264217Y-119004346D01*
X99205251Y-118974686D01*
X99076714Y-118889780D01*
X98930288Y-118767340D01*
X98782073Y-118623468D01*
X98648173Y-118474265D01*
X98544689Y-118335834D01*
X98512814Y-118282249D01*
X98399265Y-118003603D01*
X98338790Y-117702611D01*
X98331429Y-117391844D01*
X98377220Y-117083875D01*
X98476201Y-116791276D01*
X98508060Y-116724370D01*
X98638948Y-116518054D01*
X98813188Y-116319139D01*
X99011866Y-116147493D01*
X99134903Y-116065878D01*
X99234662Y-116007000D01*
X99308938Y-115962087D01*
X99344455Y-115939193D01*
X99345750Y-115937914D01*
X99334299Y-115908668D01*
X99303672Y-115834430D01*
X99259451Y-115728680D01*
X99236652Y-115674517D01*
X99084998Y-115269000D01*
X98979519Y-114874040D01*
X98916219Y-114469558D01*
X98891100Y-114035475D01*
X98890300Y-113934875D01*
X98902029Y-113553603D01*
X98939151Y-113209083D01*
X99004569Y-112878684D01*
X99045899Y-112721896D01*
X99092676Y-112556667D01*
X98845198Y-112309146D01*
X98640404Y-112079595D01*
X98491968Y-111852183D01*
X98394481Y-111614320D01*
X98342533Y-111353416D01*
X98330126Y-111110392D01*
X98356394Y-110789977D01*
G36*
X137384776Y-125844122D02*
G01*
X137385355Y-125738388D01*
X137386922Y-125661868D01*
X137389972Y-125609628D01*
X137394996Y-125576737D01*
X137402489Y-125558263D01*
X137412944Y-125549273D01*
X137426853Y-125544837D01*
X137428654Y-125544406D01*
X137461145Y-125537667D01*
X137525252Y-125525192D01*
X137614151Y-125508281D01*
X137721019Y-125488229D01*
X137839033Y-125466336D01*
X137843178Y-125465571D01*
X137958831Y-125443641D01*
X138061014Y-125423123D01*
X138143598Y-125405341D01*
X138200456Y-125391619D01*
X138225458Y-125383282D01*
X138225901Y-125382884D01*
X138238110Y-125358323D01*
X138258456Y-125307685D01*
X138282545Y-125241905D01*
X138282674Y-125241539D01*
X138313818Y-125158683D01*
X138353491Y-125061000D01*
X138393381Y-124968923D01*
X138395353Y-124964566D01*
X138463420Y-124814593D01*
X138236639Y-124482502D01*
X138167504Y-124380626D01*
X138105697Y-124288343D01*
X138054733Y-124210997D01*
X138018127Y-124153936D01*
X137999394Y-124122505D01*
X137998004Y-124119521D01*
X138004190Y-124096679D01*
X138034035Y-124054018D01*
X138088947Y-123989872D01*
X138170334Y-123902579D01*
X138256922Y-123813465D01*
X138342247Y-123727559D01*
X138420108Y-123650673D01*
X138485697Y-123587436D01*
X138534205Y-123542477D01*
X138560825Y-123520424D01*
X138562195Y-123519604D01*
X138580463Y-123517166D01*
X138610295Y-123526350D01*
X138655721Y-123549426D01*
X138720770Y-123588663D01*
X138809470Y-123646330D01*
X138923657Y-123723205D01*
X139024162Y-123791430D01*
X139114303Y-123852418D01*
X139188849Y-123902644D01*
X139242565Y-123938584D01*
X139270218Y-123956713D01*
X139272095Y-123957854D01*
X139298590Y-123955641D01*
X139350086Y-123938862D01*
X139416851Y-123910858D01*
X139438172Y-123900878D01*
X139533159Y-123857328D01*
X139640937Y-123810866D01*
X139734192Y-123773123D01*
X139803406Y-123745927D01*
X139856006Y-123724325D01*
X139883497Y-123711842D01*
X139885616Y-123710291D01*
X139889124Y-123687332D01*
X139898738Y-123633214D01*
X139913089Y-123555132D01*
X139930807Y-123460281D01*
X139950525Y-123355857D01*
X139970874Y-123249056D01*
X139990486Y-123147074D01*
X140007991Y-123057106D01*
X140022022Y-122986347D01*
X140031209Y-122941994D01*
X140033807Y-122931115D01*
X140040218Y-122919878D01*
X140054697Y-122911395D01*
X140082133Y-122905286D01*
X140127411Y-122901168D01*
X140195420Y-122898659D01*
X140291047Y-122897379D01*
X140419180Y-122896946D01*
X140471701Y-122896923D01*
X140898845Y-122896923D01*
X140919091Y-122999500D01*
X140930070Y-123056569D01*
X140946095Y-123141731D01*
X140965233Y-123244628D01*
X140985551Y-123354904D01*
X140991132Y-123385385D01*
X141010917Y-123487145D01*
X141030373Y-123575795D01*
X141047697Y-123643892D01*
X141061088Y-123683996D01*
X141065079Y-123690677D01*
X141093342Y-123707081D01*
X141148109Y-123730601D01*
X141218588Y-123756684D01*
X141233769Y-123761858D01*
X141327896Y-123796044D01*
X141434101Y-123838477D01*
X141529473Y-123880003D01*
X141529916Y-123880208D01*
X141679525Y-123949360D01*
X142348617Y-123494488D01*
X142641116Y-123786500D01*
X142728170Y-123874820D01*
X142804909Y-123955375D01*
X142867237Y-124023640D01*
X142911056Y-124075092D01*
X142932270Y-124105206D01*
X142933616Y-124109526D01*
X142923016Y-124134889D01*
X142893547Y-124186642D01*
X142848705Y-124259132D01*
X142791984Y-124346706D01*
X142728462Y-124441388D01*
X142663668Y-124537484D01*
X142607287Y-124623163D01*
X142562788Y-124692984D01*
X142533639Y-124741506D01*
X142523308Y-124763218D01*
X142532050Y-124789707D01*
X142555087Y-124839938D01*
X142587631Y-124903549D01*
X142591249Y-124910292D01*
X142634210Y-124995954D01*
X142655279Y-125054694D01*
X142655503Y-125091228D01*
X142635928Y-125110269D01*
X142635654Y-125110380D01*
X142612472Y-125119898D01*
X142557441Y-125142597D01*
X142474822Y-125176718D01*
X142368872Y-125220500D01*
X142243852Y-125272184D01*
X142104020Y-125330008D01*
X141968637Y-125386009D01*
X141819234Y-125447553D01*
X141680832Y-125504061D01*
X141557673Y-125553839D01*
X141454002Y-125595194D01*
X141374059Y-125626432D01*
X141322088Y-125645859D01*
X141302692Y-125651846D01*
X141280443Y-125636832D01*
X141244982Y-125597561D01*
X141205887Y-125545193D01*
X141082245Y-125396059D01*
X140940522Y-125279489D01*
X140783704Y-125196882D01*
X140614775Y-125149634D01*
X140436722Y-125139143D01*
X140354539Y-125146769D01*
X140184031Y-125188318D01*
X140033459Y-125259877D01*
X139904309Y-125357005D01*
X139798064Y-125475266D01*
X139716210Y-125610220D01*
X139660232Y-125757429D01*
X139631615Y-125912456D01*
X139631844Y-126070861D01*
X139662405Y-126228206D01*
X139724782Y-126380054D01*
X139820460Y-126521965D01*
X139874572Y-126581197D01*
X140013520Y-126694797D01*
X140165361Y-126773894D01*
X140325667Y-126819014D01*
X140490012Y-126830684D01*
X140653971Y-126809431D01*
X140813118Y-126755780D01*
X140963025Y-126670260D01*
X141099267Y-126553395D01*
X141205887Y-126422807D01*
X141246642Y-126368412D01*
X141281718Y-126329986D01*
X141302726Y-126316154D01*
X141325635Y-126323397D01*
X141380365Y-126343995D01*
X141462672Y-126376254D01*
X141568315Y-126418479D01*
X141693050Y-126468977D01*
X141832636Y-126526052D01*
X141968670Y-126582146D01*
X142118201Y-126644033D01*
X142256767Y-126701356D01*
X142380107Y-126752356D01*
X142483964Y-126795273D01*
X142564080Y-126828347D01*
X142616195Y-126849819D01*
X142635654Y-126857775D01*
X142655423Y-126876571D01*
X142655365Y-126912926D01*
X142634441Y-126971521D01*
X142591613Y-127057032D01*
X142591249Y-127057708D01*
X142558012Y-127122093D01*
X142533802Y-127174139D01*
X142523404Y-127203488D01*
X142523308Y-127204783D01*
X142533855Y-127226876D01*
X142563184Y-127275652D01*
X142607827Y-127345669D01*
X142664314Y-127431486D01*
X142728462Y-127526612D01*
X142793411Y-127623460D01*
X142849896Y-127710747D01*
X142894421Y-127782819D01*
X142923490Y-127834023D01*
X142933616Y-127858474D01*
X142920307Y-127880990D01*
X142883112Y-127926258D01*
X142826128Y-127989756D01*
X142753449Y-128066961D01*
X142669171Y-128153349D01*
X142641016Y-128181601D01*
X142348416Y-128473713D01*
X142022104Y-128251369D01*
X141921897Y-128183798D01*
X141831963Y-128124493D01*
X141757510Y-128076783D01*
X141703751Y-128043993D01*
X141675894Y-128029452D01*
X141673912Y-128029026D01*
X141647655Y-128036692D01*
X141594837Y-128057311D01*
X141524310Y-128087315D01*
X141477093Y-128108375D01*
X141386694Y-128147752D01*
X141295366Y-128184835D01*
X141218200Y-128213585D01*
X141194692Y-128221395D01*
X141131916Y-128243583D01*
X141083411Y-128265273D01*
X141065079Y-128277187D01*
X141053859Y-128303477D01*
X141037954Y-128360858D01*
X141019167Y-128441882D01*
X140999299Y-128539105D01*
X140991132Y-128582615D01*
X140970829Y-128693104D01*
X140951170Y-128799084D01*
X140934088Y-128890199D01*
X140921518Y-128956092D01*
X140919091Y-128968500D01*
X140898845Y-129071077D01*
X140471701Y-129071077D01*
X140331246Y-129070847D01*
X140224979Y-129069901D01*
X140148013Y-129067859D01*
X140095460Y-129064338D01*
X140062433Y-129058957D01*
X140044045Y-129051334D01*
X140035408Y-129041088D01*
X140033807Y-129036885D01*
X140028127Y-129011530D01*
X140016795Y-128955516D01*
X140001179Y-128876036D01*
X139982647Y-128780288D01*
X139962569Y-128675467D01*
X139942312Y-128568768D01*
X139923246Y-128467387D01*
X139906739Y-128378521D01*
X139894159Y-128309363D01*
X139886875Y-128267111D01*
X139885616Y-128257710D01*
X139868763Y-128249193D01*
X139823870Y-128230340D01*
X139759430Y-128204676D01*
X139734192Y-128194877D01*
X139636686Y-128155352D01*
X139528959Y-128108808D01*
X139438172Y-128067123D01*
X139368753Y-128036450D01*
X139311710Y-128016044D01*
X139276777Y-128009232D01*
X139272095Y-128010318D01*
X139249991Y-128024715D01*
X139200831Y-128057588D01*
X139129848Y-128105410D01*
X139042278Y-128164652D01*
X138943357Y-128231785D01*
X138923830Y-128245059D01*
X138808140Y-128322954D01*
X138720044Y-128380213D01*
X138655486Y-128419119D01*
X138610411Y-128441956D01*
X138580763Y-128451006D01*
X138562485Y-128448552D01*
X138562369Y-128448489D01*
X138538361Y-128429173D01*
X138491947Y-128386449D01*
X138427937Y-128324949D01*
X138351145Y-128249302D01*
X138266382Y-128164139D01*
X138256922Y-128154535D01*
X138152989Y-128047210D01*
X138076675Y-127964385D01*
X138026571Y-127904395D01*
X138001270Y-127865577D01*
X137998004Y-127848480D01*
X138012250Y-127823527D01*
X138045156Y-127771745D01*
X138093208Y-127698480D01*
X138152890Y-127609080D01*
X138220688Y-127508889D01*
X138236639Y-127485499D01*
X138463420Y-127153407D01*
X138395353Y-127003435D01*
X138355685Y-126912230D01*
X138315791Y-126814331D01*
X138283983Y-126730169D01*
X138282674Y-126726462D01*
X138258576Y-126660631D01*
X138238200Y-126609884D01*
X138225936Y-126585158D01*
X138225901Y-126585116D01*
X138203734Y-126577271D01*
X138149217Y-126563934D01*
X138068480Y-126546430D01*
X137967650Y-126526083D01*
X137852856Y-126504218D01*
X137843178Y-126502429D01*
X137724904Y-126480496D01*
X137617542Y-126460360D01*
X137527917Y-126443320D01*
X137462851Y-126430672D01*
X137429168Y-126423716D01*
X137428654Y-126423594D01*
X137414325Y-126419361D01*
X137403507Y-126411129D01*
X137395706Y-126393967D01*
X137390429Y-126362942D01*
X137387182Y-126313122D01*
X137385472Y-126239576D01*
X137384807Y-126137371D01*
X137384693Y-126001575D01*
X137384692Y-125984000D01*
X137384776Y-125844122D01*
X137384776Y-125844122D01*
G37*
X137384776Y-125844122D02*
X137385355Y-125738388D01*
X137386922Y-125661868D01*
X137389972Y-125609628D01*
X137394996Y-125576737D01*
X137402489Y-125558263D01*
X137412944Y-125549273D01*
X137426853Y-125544837D01*
X137428654Y-125544406D01*
X137461145Y-125537667D01*
X137525252Y-125525192D01*
X137614151Y-125508281D01*
X137721019Y-125488229D01*
X137839033Y-125466336D01*
X137843178Y-125465571D01*
X137958831Y-125443641D01*
X138061014Y-125423123D01*
X138143598Y-125405341D01*
X138200456Y-125391619D01*
X138225458Y-125383282D01*
X138225901Y-125382884D01*
X138238110Y-125358323D01*
X138258456Y-125307685D01*
X138282545Y-125241905D01*
X138282674Y-125241539D01*
X138313818Y-125158683D01*
X138353491Y-125061000D01*
X138393381Y-124968923D01*
X138395353Y-124964566D01*
X138463420Y-124814593D01*
X138236639Y-124482502D01*
X138167504Y-124380626D01*
X138105697Y-124288343D01*
X138054733Y-124210997D01*
X138018127Y-124153936D01*
X137999394Y-124122505D01*
X137998004Y-124119521D01*
X138004190Y-124096679D01*
X138034035Y-124054018D01*
X138088947Y-123989872D01*
X138170334Y-123902579D01*
X138256922Y-123813465D01*
X138342247Y-123727559D01*
X138420108Y-123650673D01*
X138485697Y-123587436D01*
X138534205Y-123542477D01*
X138560825Y-123520424D01*
X138562195Y-123519604D01*
X138580463Y-123517166D01*
X138610295Y-123526350D01*
X138655721Y-123549426D01*
X138720770Y-123588663D01*
X138809470Y-123646330D01*
X138923657Y-123723205D01*
X139024162Y-123791430D01*
X139114303Y-123852418D01*
X139188849Y-123902644D01*
X139242565Y-123938584D01*
X139270218Y-123956713D01*
X139272095Y-123957854D01*
X139298590Y-123955641D01*
X139350086Y-123938862D01*
X139416851Y-123910858D01*
X139438172Y-123900878D01*
X139533159Y-123857328D01*
X139640937Y-123810866D01*
X139734192Y-123773123D01*
X139803406Y-123745927D01*
X139856006Y-123724325D01*
X139883497Y-123711842D01*
X139885616Y-123710291D01*
X139889124Y-123687332D01*
X139898738Y-123633214D01*
X139913089Y-123555132D01*
X139930807Y-123460281D01*
X139950525Y-123355857D01*
X139970874Y-123249056D01*
X139990486Y-123147074D01*
X140007991Y-123057106D01*
X140022022Y-122986347D01*
X140031209Y-122941994D01*
X140033807Y-122931115D01*
X140040218Y-122919878D01*
X140054697Y-122911395D01*
X140082133Y-122905286D01*
X140127411Y-122901168D01*
X140195420Y-122898659D01*
X140291047Y-122897379D01*
X140419180Y-122896946D01*
X140471701Y-122896923D01*
X140898845Y-122896923D01*
X140919091Y-122999500D01*
X140930070Y-123056569D01*
X140946095Y-123141731D01*
X140965233Y-123244628D01*
X140985551Y-123354904D01*
X140991132Y-123385385D01*
X141010917Y-123487145D01*
X141030373Y-123575795D01*
X141047697Y-123643892D01*
X141061088Y-123683996D01*
X141065079Y-123690677D01*
X141093342Y-123707081D01*
X141148109Y-123730601D01*
X141218588Y-123756684D01*
X141233769Y-123761858D01*
X141327896Y-123796044D01*
X141434101Y-123838477D01*
X141529473Y-123880003D01*
X141529916Y-123880208D01*
X141679525Y-123949360D01*
X142348617Y-123494488D01*
X142641116Y-123786500D01*
X142728170Y-123874820D01*
X142804909Y-123955375D01*
X142867237Y-124023640D01*
X142911056Y-124075092D01*
X142932270Y-124105206D01*
X142933616Y-124109526D01*
X142923016Y-124134889D01*
X142893547Y-124186642D01*
X142848705Y-124259132D01*
X142791984Y-124346706D01*
X142728462Y-124441388D01*
X142663668Y-124537484D01*
X142607287Y-124623163D01*
X142562788Y-124692984D01*
X142533639Y-124741506D01*
X142523308Y-124763218D01*
X142532050Y-124789707D01*
X142555087Y-124839938D01*
X142587631Y-124903549D01*
X142591249Y-124910292D01*
X142634210Y-124995954D01*
X142655279Y-125054694D01*
X142655503Y-125091228D01*
X142635928Y-125110269D01*
X142635654Y-125110380D01*
X142612472Y-125119898D01*
X142557441Y-125142597D01*
X142474822Y-125176718D01*
X142368872Y-125220500D01*
X142243852Y-125272184D01*
X142104020Y-125330008D01*
X141968637Y-125386009D01*
X141819234Y-125447553D01*
X141680832Y-125504061D01*
X141557673Y-125553839D01*
X141454002Y-125595194D01*
X141374059Y-125626432D01*
X141322088Y-125645859D01*
X141302692Y-125651846D01*
X141280443Y-125636832D01*
X141244982Y-125597561D01*
X141205887Y-125545193D01*
X141082245Y-125396059D01*
X140940522Y-125279489D01*
X140783704Y-125196882D01*
X140614775Y-125149634D01*
X140436722Y-125139143D01*
X140354539Y-125146769D01*
X140184031Y-125188318D01*
X140033459Y-125259877D01*
X139904309Y-125357005D01*
X139798064Y-125475266D01*
X139716210Y-125610220D01*
X139660232Y-125757429D01*
X139631615Y-125912456D01*
X139631844Y-126070861D01*
X139662405Y-126228206D01*
X139724782Y-126380054D01*
X139820460Y-126521965D01*
X139874572Y-126581197D01*
X140013520Y-126694797D01*
X140165361Y-126773894D01*
X140325667Y-126819014D01*
X140490012Y-126830684D01*
X140653971Y-126809431D01*
X140813118Y-126755780D01*
X140963025Y-126670260D01*
X141099267Y-126553395D01*
X141205887Y-126422807D01*
X141246642Y-126368412D01*
X141281718Y-126329986D01*
X141302726Y-126316154D01*
X141325635Y-126323397D01*
X141380365Y-126343995D01*
X141462672Y-126376254D01*
X141568315Y-126418479D01*
X141693050Y-126468977D01*
X141832636Y-126526052D01*
X141968670Y-126582146D01*
X142118201Y-126644033D01*
X142256767Y-126701356D01*
X142380107Y-126752356D01*
X142483964Y-126795273D01*
X142564080Y-126828347D01*
X142616195Y-126849819D01*
X142635654Y-126857775D01*
X142655423Y-126876571D01*
X142655365Y-126912926D01*
X142634441Y-126971521D01*
X142591613Y-127057032D01*
X142591249Y-127057708D01*
X142558012Y-127122093D01*
X142533802Y-127174139D01*
X142523404Y-127203488D01*
X142523308Y-127204783D01*
X142533855Y-127226876D01*
X142563184Y-127275652D01*
X142607827Y-127345669D01*
X142664314Y-127431486D01*
X142728462Y-127526612D01*
X142793411Y-127623460D01*
X142849896Y-127710747D01*
X142894421Y-127782819D01*
X142923490Y-127834023D01*
X142933616Y-127858474D01*
X142920307Y-127880990D01*
X142883112Y-127926258D01*
X142826128Y-127989756D01*
X142753449Y-128066961D01*
X142669171Y-128153349D01*
X142641016Y-128181601D01*
X142348416Y-128473713D01*
X142022104Y-128251369D01*
X141921897Y-128183798D01*
X141831963Y-128124493D01*
X141757510Y-128076783D01*
X141703751Y-128043993D01*
X141675894Y-128029452D01*
X141673912Y-128029026D01*
X141647655Y-128036692D01*
X141594837Y-128057311D01*
X141524310Y-128087315D01*
X141477093Y-128108375D01*
X141386694Y-128147752D01*
X141295366Y-128184835D01*
X141218200Y-128213585D01*
X141194692Y-128221395D01*
X141131916Y-128243583D01*
X141083411Y-128265273D01*
X141065079Y-128277187D01*
X141053859Y-128303477D01*
X141037954Y-128360858D01*
X141019167Y-128441882D01*
X140999299Y-128539105D01*
X140991132Y-128582615D01*
X140970829Y-128693104D01*
X140951170Y-128799084D01*
X140934088Y-128890199D01*
X140921518Y-128956092D01*
X140919091Y-128968500D01*
X140898845Y-129071077D01*
X140471701Y-129071077D01*
X140331246Y-129070847D01*
X140224979Y-129069901D01*
X140148013Y-129067859D01*
X140095460Y-129064338D01*
X140062433Y-129058957D01*
X140044045Y-129051334D01*
X140035408Y-129041088D01*
X140033807Y-129036885D01*
X140028127Y-129011530D01*
X140016795Y-128955516D01*
X140001179Y-128876036D01*
X139982647Y-128780288D01*
X139962569Y-128675467D01*
X139942312Y-128568768D01*
X139923246Y-128467387D01*
X139906739Y-128378521D01*
X139894159Y-128309363D01*
X139886875Y-128267111D01*
X139885616Y-128257710D01*
X139868763Y-128249193D01*
X139823870Y-128230340D01*
X139759430Y-128204676D01*
X139734192Y-128194877D01*
X139636686Y-128155352D01*
X139528959Y-128108808D01*
X139438172Y-128067123D01*
X139368753Y-128036450D01*
X139311710Y-128016044D01*
X139276777Y-128009232D01*
X139272095Y-128010318D01*
X139249991Y-128024715D01*
X139200831Y-128057588D01*
X139129848Y-128105410D01*
X139042278Y-128164652D01*
X138943357Y-128231785D01*
X138923830Y-128245059D01*
X138808140Y-128322954D01*
X138720044Y-128380213D01*
X138655486Y-128419119D01*
X138610411Y-128441956D01*
X138580763Y-128451006D01*
X138562485Y-128448552D01*
X138562369Y-128448489D01*
X138538361Y-128429173D01*
X138491947Y-128386449D01*
X138427937Y-128324949D01*
X138351145Y-128249302D01*
X138266382Y-128164139D01*
X138256922Y-128154535D01*
X138152989Y-128047210D01*
X138076675Y-127964385D01*
X138026571Y-127904395D01*
X138001270Y-127865577D01*
X137998004Y-127848480D01*
X138012250Y-127823527D01*
X138045156Y-127771745D01*
X138093208Y-127698480D01*
X138152890Y-127609080D01*
X138220688Y-127508889D01*
X138236639Y-127485499D01*
X138463420Y-127153407D01*
X138395353Y-127003435D01*
X138355685Y-126912230D01*
X138315791Y-126814331D01*
X138283983Y-126730169D01*
X138282674Y-126726462D01*
X138258576Y-126660631D01*
X138238200Y-126609884D01*
X138225936Y-126585158D01*
X138225901Y-126585116D01*
X138203734Y-126577271D01*
X138149217Y-126563934D01*
X138068480Y-126546430D01*
X137967650Y-126526083D01*
X137852856Y-126504218D01*
X137843178Y-126502429D01*
X137724904Y-126480496D01*
X137617542Y-126460360D01*
X137527917Y-126443320D01*
X137462851Y-126430672D01*
X137429168Y-126423716D01*
X137428654Y-126423594D01*
X137414325Y-126419361D01*
X137403507Y-126411129D01*
X137395706Y-126393967D01*
X137390429Y-126362942D01*
X137387182Y-126313122D01*
X137385472Y-126239576D01*
X137384807Y-126137371D01*
X137384693Y-126001575D01*
X137384692Y-125984000D01*
X137384776Y-125844122D01*
G36*
X143744838Y-121738776D02*
G01*
X143795361Y-121661472D01*
X143840590Y-121624186D01*
X143922663Y-121594647D01*
X143987607Y-121592301D01*
X144074445Y-121597615D01*
X144162103Y-121797885D01*
X144206887Y-121895261D01*
X144242913Y-121958887D01*
X144274117Y-121991971D01*
X144304436Y-121997720D01*
X144337805Y-121979342D01*
X144359923Y-121959077D01*
X144395393Y-121900111D01*
X144397879Y-121835976D01*
X144370235Y-121777074D01*
X144315320Y-121733803D01*
X144295928Y-121726064D01*
X144235364Y-121688994D01*
X144209552Y-121646346D01*
X144187471Y-121587846D01*
X144271184Y-121587846D01*
X144328150Y-121593018D01*
X144376189Y-121613277D01*
X144431346Y-121655738D01*
X144438514Y-121662049D01*
X144487585Y-121709280D01*
X144513920Y-121749879D01*
X144526035Y-121800672D01*
X144530003Y-121842780D01*
X144530991Y-121918098D01*
X144518466Y-121971714D01*
X144499869Y-122005162D01*
X144458975Y-122057732D01*
X144414748Y-122094121D01*
X144359126Y-122117150D01*
X144284047Y-122129641D01*
X144181449Y-122134413D01*
X144129376Y-122134794D01*
X144066948Y-122133499D01*
X144066948Y-122015529D01*
X144100438Y-122014161D01*
X144105923Y-122010751D01*
X144098472Y-121988247D01*
X144078753Y-121939818D01*
X144050718Y-121875092D01*
X144044692Y-121861557D01*
X144003096Y-121779756D01*
X143966538Y-121734688D01*
X143932296Y-121724783D01*
X143897648Y-121748474D01*
X143882339Y-121768040D01*
X143851721Y-121838640D01*
X143856780Y-121904720D01*
X143894151Y-121960041D01*
X143960473Y-121998364D01*
X144013116Y-122010651D01*
X144066948Y-122015529D01*
X144066948Y-122133499D01*
X144007720Y-122132270D01*
X143917710Y-122122968D01*
X143852167Y-122104540D01*
X143803912Y-122074640D01*
X143765767Y-122030920D01*
X143753440Y-122011859D01*
X143721336Y-121925274D01*
X143719316Y-121830478D01*
X143744838Y-121738776D01*
X143744838Y-121738776D01*
G37*
X143744838Y-121738776D02*
X143795361Y-121661472D01*
X143840590Y-121624186D01*
X143922663Y-121594647D01*
X143987607Y-121592301D01*
X144074445Y-121597615D01*
X144162103Y-121797885D01*
X144206887Y-121895261D01*
X144242913Y-121958887D01*
X144274117Y-121991971D01*
X144304436Y-121997720D01*
X144337805Y-121979342D01*
X144359923Y-121959077D01*
X144395393Y-121900111D01*
X144397879Y-121835976D01*
X144370235Y-121777074D01*
X144315320Y-121733803D01*
X144295928Y-121726064D01*
X144235364Y-121688994D01*
X144209552Y-121646346D01*
X144187471Y-121587846D01*
X144271184Y-121587846D01*
X144328150Y-121593018D01*
X144376189Y-121613277D01*
X144431346Y-121655738D01*
X144438514Y-121662049D01*
X144487585Y-121709280D01*
X144513920Y-121749879D01*
X144526035Y-121800672D01*
X144530003Y-121842780D01*
X144530991Y-121918098D01*
X144518466Y-121971714D01*
X144499869Y-122005162D01*
X144458975Y-122057732D01*
X144414748Y-122094121D01*
X144359126Y-122117150D01*
X144284047Y-122129641D01*
X144181449Y-122134413D01*
X144129376Y-122134794D01*
X144066948Y-122133499D01*
X144066948Y-122015529D01*
X144100438Y-122014161D01*
X144105923Y-122010751D01*
X144098472Y-121988247D01*
X144078753Y-121939818D01*
X144050718Y-121875092D01*
X144044692Y-121861557D01*
X144003096Y-121779756D01*
X143966538Y-121734688D01*
X143932296Y-121724783D01*
X143897648Y-121748474D01*
X143882339Y-121768040D01*
X143851721Y-121838640D01*
X143856780Y-121904720D01*
X143894151Y-121960041D01*
X143960473Y-121998364D01*
X144013116Y-122010651D01*
X144066948Y-122015529D01*
X144066948Y-122133499D01*
X144007720Y-122132270D01*
X143917710Y-122122968D01*
X143852167Y-122104540D01*
X143803912Y-122074640D01*
X143765767Y-122030920D01*
X143753440Y-122011859D01*
X143721336Y-121925274D01*
X143719316Y-121830478D01*
X143744838Y-121738776D01*
G36*
X143733782Y-122413193D02*
G01*
X143743988Y-122389839D01*
X143788134Y-122334098D01*
X143851967Y-122286431D01*
X143920087Y-122256952D01*
X143953670Y-122252154D01*
X144000556Y-122268240D01*
X144025365Y-122303525D01*
X144040387Y-122341356D01*
X144043155Y-122358679D01*
X144023066Y-122367114D01*
X143979351Y-122383770D01*
X143959598Y-122391077D01*
X143891271Y-122432052D01*
X143857191Y-122491378D01*
X143858239Y-122567448D01*
X143859581Y-122573082D01*
X143878836Y-122613695D01*
X143916375Y-122643552D01*
X143976809Y-122663945D01*
X144064751Y-122676164D01*
X144184813Y-122681500D01*
X144248698Y-122682000D01*
X144349403Y-122682248D01*
X144418054Y-122683874D01*
X144461673Y-122688199D01*
X144487282Y-122696546D01*
X144501903Y-122710235D01*
X144512558Y-122730589D01*
X144513095Y-122731766D01*
X144529667Y-122770962D01*
X144535769Y-122790381D01*
X144517319Y-122793365D01*
X144466323Y-122795919D01*
X144389308Y-122797860D01*
X144292805Y-122799003D01*
X144222184Y-122799231D01*
X144085525Y-122798068D01*
X143981851Y-122793521D01*
X143905108Y-122784001D01*
X143849246Y-122767919D01*
X143808212Y-122743687D01*
X143775954Y-122709714D01*
X143753440Y-122676167D01*
X143723476Y-122595501D01*
X143716718Y-122501619D01*
X143733782Y-122413193D01*
X143733782Y-122413193D01*
G37*
X143733782Y-122413193D02*
X143743988Y-122389839D01*
X143788134Y-122334098D01*
X143851967Y-122286431D01*
X143920087Y-122256952D01*
X143953670Y-122252154D01*
X144000556Y-122268240D01*
X144025365Y-122303525D01*
X144040387Y-122341356D01*
X144043155Y-122358679D01*
X144023066Y-122367114D01*
X143979351Y-122383770D01*
X143959598Y-122391077D01*
X143891271Y-122432052D01*
X143857191Y-122491378D01*
X143858239Y-122567448D01*
X143859581Y-122573082D01*
X143878836Y-122613695D01*
X143916375Y-122643552D01*
X143976809Y-122663945D01*
X144064751Y-122676164D01*
X144184813Y-122681500D01*
X144248698Y-122682000D01*
X144349403Y-122682248D01*
X144418054Y-122683874D01*
X144461673Y-122688199D01*
X144487282Y-122696546D01*
X144501903Y-122710235D01*
X144512558Y-122730589D01*
X144513095Y-122731766D01*
X144529667Y-122770962D01*
X144535769Y-122790381D01*
X144517319Y-122793365D01*
X144466323Y-122795919D01*
X144389308Y-122797860D01*
X144292805Y-122799003D01*
X144222184Y-122799231D01*
X144085525Y-122798068D01*
X143981851Y-122793521D01*
X143905108Y-122784001D01*
X143849246Y-122767919D01*
X143808212Y-122743687D01*
X143775954Y-122709714D01*
X143753440Y-122676167D01*
X143723476Y-122595501D01*
X143716718Y-122501619D01*
X143733782Y-122413193D01*
G36*
X143730528Y-123096667D02*
G01*
X143756117Y-123040410D01*
X143787124Y-122996253D01*
X143821795Y-122963899D01*
X143866520Y-122941562D01*
X143927692Y-122927454D01*
X144011701Y-122919789D01*
X144124940Y-122916780D01*
X144199509Y-122916462D01*
X144490420Y-122916462D01*
X144513095Y-122966227D01*
X144529667Y-123005424D01*
X144535769Y-123024843D01*
X144517610Y-123028558D01*
X144468648Y-123031505D01*
X144397153Y-123033309D01*
X144340385Y-123033692D01*
X144258371Y-123035339D01*
X144193309Y-123039778D01*
X144153467Y-123046260D01*
X144145000Y-123051410D01*
X144153646Y-123086023D01*
X144175823Y-123140360D01*
X144205886Y-123203278D01*
X144238192Y-123263632D01*
X144267098Y-123310279D01*
X144286961Y-123332074D01*
X144287175Y-123332161D01*
X144323935Y-123330286D01*
X144359026Y-123313475D01*
X144387528Y-123283961D01*
X144397061Y-123240884D01*
X144395950Y-123204068D01*
X144395133Y-123151926D01*
X144407349Y-123124556D01*
X144439624Y-123108118D01*
X144445710Y-123106045D01*
X144491739Y-123098919D01*
X144519687Y-123117976D01*
X144533007Y-123167647D01*
X144535470Y-123221303D01*
X144517210Y-123317858D01*
X144491131Y-123367841D01*
X144429868Y-123429571D01*
X144354670Y-123462310D01*
X144275211Y-123465247D01*
X144201167Y-123437576D01*
X144154769Y-123395953D01*
X144128793Y-123354396D01*
X144095907Y-123289078D01*
X144062557Y-123212962D01*
X144057461Y-123200274D01*
X144020565Y-123116667D01*
X143988046Y-123068470D01*
X143955718Y-123052970D01*
X143919394Y-123067450D01*
X143891000Y-123092308D01*
X143856039Y-123151061D01*
X143853417Y-123215707D01*
X143880358Y-123274992D01*
X143934088Y-123317661D01*
X143947950Y-123323261D01*
X143998936Y-123355867D01*
X144036787Y-123403470D01*
X144067850Y-123463539D01*
X143979768Y-123463539D01*
X143925951Y-123460003D01*
X143883534Y-123444844D01*
X143838279Y-123411232D01*
X143803420Y-123378965D01*
X143754062Y-123328791D01*
X143727547Y-123289807D01*
X143716911Y-123247936D01*
X143715154Y-123200540D01*
X143730528Y-123096667D01*
X143730528Y-123096667D01*
G37*
X143730528Y-123096667D02*
X143756117Y-123040410D01*
X143787124Y-122996253D01*
X143821795Y-122963899D01*
X143866520Y-122941562D01*
X143927692Y-122927454D01*
X144011701Y-122919789D01*
X144124940Y-122916780D01*
X144199509Y-122916462D01*
X144490420Y-122916462D01*
X144513095Y-122966227D01*
X144529667Y-123005424D01*
X144535769Y-123024843D01*
X144517610Y-123028558D01*
X144468648Y-123031505D01*
X144397153Y-123033309D01*
X144340385Y-123033692D01*
X144258371Y-123035339D01*
X144193309Y-123039778D01*
X144153467Y-123046260D01*
X144145000Y-123051410D01*
X144153646Y-123086023D01*
X144175823Y-123140360D01*
X144205886Y-123203278D01*
X144238192Y-123263632D01*
X144267098Y-123310279D01*
X144286961Y-123332074D01*
X144287175Y-123332161D01*
X144323935Y-123330286D01*
X144359026Y-123313475D01*
X144387528Y-123283961D01*
X144397061Y-123240884D01*
X144395950Y-123204068D01*
X144395133Y-123151926D01*
X144407349Y-123124556D01*
X144439624Y-123108118D01*
X144445710Y-123106045D01*
X144491739Y-123098919D01*
X144519687Y-123117976D01*
X144533007Y-123167647D01*
X144535470Y-123221303D01*
X144517210Y-123317858D01*
X144491131Y-123367841D01*
X144429868Y-123429571D01*
X144354670Y-123462310D01*
X144275211Y-123465247D01*
X144201167Y-123437576D01*
X144154769Y-123395953D01*
X144128793Y-123354396D01*
X144095907Y-123289078D01*
X144062557Y-123212962D01*
X144057461Y-123200274D01*
X144020565Y-123116667D01*
X143988046Y-123068470D01*
X143955718Y-123052970D01*
X143919394Y-123067450D01*
X143891000Y-123092308D01*
X143856039Y-123151061D01*
X143853417Y-123215707D01*
X143880358Y-123274992D01*
X143934088Y-123317661D01*
X143947950Y-123323261D01*
X143998936Y-123355867D01*
X144036787Y-123403470D01*
X144067850Y-123463539D01*
X143979768Y-123463539D01*
X143925951Y-123460003D01*
X143883534Y-123444844D01*
X143838279Y-123411232D01*
X143803420Y-123378965D01*
X143754062Y-123328791D01*
X143727547Y-123289807D01*
X143716911Y-123247936D01*
X143715154Y-123200540D01*
X143730528Y-123096667D01*
G36*
X143733662Y-123588071D02*
G01*
X143785068Y-123585089D01*
X143863192Y-123582753D01*
X143961857Y-123581251D01*
X144065343Y-123580769D01*
X144415533Y-123580769D01*
X144477363Y-123642599D01*
X144515462Y-123685207D01*
X144530895Y-123722610D01*
X144529918Y-123773730D01*
X144527433Y-123794022D01*
X144520200Y-123857446D01*
X144516055Y-123909905D01*
X144515672Y-123922692D01*
X144518176Y-123965801D01*
X144524462Y-124027456D01*
X144527433Y-124051362D01*
X144532028Y-124110078D01*
X144522046Y-124149536D01*
X144491228Y-124188662D01*
X144477363Y-124202785D01*
X144415533Y-124264615D01*
X143760503Y-124264615D01*
X143737829Y-124214850D01*
X143721034Y-124171998D01*
X143715154Y-124146927D01*
X143733736Y-124140499D01*
X143785655Y-124134491D01*
X143865172Y-124129303D01*
X143966546Y-124125336D01*
X144052192Y-124123423D01*
X144389231Y-124118077D01*
X144395825Y-124071440D01*
X144391214Y-124029024D01*
X144376287Y-124008240D01*
X144348377Y-124002430D01*
X144288925Y-123997470D01*
X144205466Y-123993754D01*
X144105532Y-123991676D01*
X144054104Y-123991376D01*
X143758054Y-123991077D01*
X143736604Y-123929546D01*
X143722020Y-123885996D01*
X143715219Y-123862306D01*
X143715154Y-123861623D01*
X143733642Y-123859246D01*
X143784906Y-123856634D01*
X143862649Y-123854005D01*
X143960574Y-123851579D01*
X144052192Y-123849885D01*
X144389231Y-123844539D01*
X144389231Y-123727308D01*
X144081746Y-123721928D01*
X143774261Y-123716549D01*
X143744707Y-123659399D01*
X143724413Y-123617203D01*
X143715204Y-123592230D01*
X143715154Y-123591509D01*
X143733662Y-123588071D01*
X143733662Y-123588071D01*
G37*
X143733662Y-123588071D02*
X143785068Y-123585089D01*
X143863192Y-123582753D01*
X143961857Y-123581251D01*
X144065343Y-123580769D01*
X144415533Y-123580769D01*
X144477363Y-123642599D01*
X144515462Y-123685207D01*
X144530895Y-123722610D01*
X144529918Y-123773730D01*
X144527433Y-123794022D01*
X144520200Y-123857446D01*
X144516055Y-123909905D01*
X144515672Y-123922692D01*
X144518176Y-123965801D01*
X144524462Y-124027456D01*
X144527433Y-124051362D01*
X144532028Y-124110078D01*
X144522046Y-124149536D01*
X144491228Y-124188662D01*
X144477363Y-124202785D01*
X144415533Y-124264615D01*
X143760503Y-124264615D01*
X143737829Y-124214850D01*
X143721034Y-124171998D01*
X143715154Y-124146927D01*
X143733736Y-124140499D01*
X143785655Y-124134491D01*
X143865172Y-124129303D01*
X143966546Y-124125336D01*
X144052192Y-124123423D01*
X144389231Y-124118077D01*
X144395825Y-124071440D01*
X144391214Y-124029024D01*
X144376287Y-124008240D01*
X144348377Y-124002430D01*
X144288925Y-123997470D01*
X144205466Y-123993754D01*
X144105532Y-123991676D01*
X144054104Y-123991376D01*
X143758054Y-123991077D01*
X143736604Y-123929546D01*
X143722020Y-123885996D01*
X143715219Y-123862306D01*
X143715154Y-123861623D01*
X143733642Y-123859246D01*
X143784906Y-123856634D01*
X143862649Y-123854005D01*
X143960574Y-123851579D01*
X144052192Y-123849885D01*
X144389231Y-123844539D01*
X144389231Y-123727308D01*
X144081746Y-123721928D01*
X143774261Y-123716549D01*
X143744707Y-123659399D01*
X143724413Y-123617203D01*
X143715204Y-123592230D01*
X143715154Y-123591509D01*
X143733662Y-123588071D01*
G36*
X143877289Y-124381919D02*
G01*
X144023320Y-124382167D01*
X144135655Y-124383128D01*
X144219678Y-124385206D01*
X144280769Y-124388807D01*
X144324309Y-124394335D01*
X144355679Y-124402196D01*
X144380262Y-124412793D01*
X144394294Y-124420818D01*
X144470388Y-124487272D01*
X144518084Y-124571530D01*
X144535199Y-124664751D01*
X144519546Y-124758100D01*
X144491418Y-124813688D01*
X144442760Y-124872043D01*
X144383333Y-124911814D01*
X144305507Y-124935810D01*
X144201652Y-124946839D01*
X144125462Y-124948401D01*
X144119986Y-124948191D01*
X144119986Y-124811692D01*
X144207355Y-124810859D01*
X144265192Y-124807039D01*
X144303029Y-124798254D01*
X144330398Y-124782526D01*
X144351042Y-124763734D01*
X144390890Y-124700625D01*
X144394295Y-124632863D01*
X144361025Y-124568821D01*
X144356517Y-124563836D01*
X144333067Y-124542561D01*
X144305166Y-124529221D01*
X144263641Y-124521999D01*
X144199316Y-124519077D01*
X144128200Y-124518615D01*
X144038858Y-124519617D01*
X143979258Y-124523762D01*
X143940089Y-124532764D01*
X143912040Y-124548333D01*
X143897144Y-124561098D01*
X143859575Y-124620400D01*
X143855057Y-124688699D01*
X143883753Y-124753890D01*
X143894406Y-124766472D01*
X143918063Y-124787889D01*
X143946251Y-124801256D01*
X143988245Y-124808434D01*
X144053319Y-124811281D01*
X144119986Y-124811692D01*
X144119986Y-124948191D01*
X144002765Y-124943678D01*
X143910577Y-124927638D01*
X143841269Y-124897472D01*
X143787211Y-124850371D01*
X143759505Y-124813688D01*
X143729572Y-124747010D01*
X143715678Y-124669728D01*
X143719397Y-124597890D01*
X143734400Y-124557692D01*
X143738670Y-124541918D01*
X143722750Y-124531450D01*
X143680089Y-124524144D01*
X143615106Y-124518615D01*
X143542732Y-124512563D01*
X143499187Y-124504156D01*
X143474287Y-124488859D01*
X143457845Y-124462136D01*
X143450564Y-124445346D01*
X143423963Y-124381846D01*
X143877289Y-124381919D01*
X143877289Y-124381919D01*
G37*
X143877289Y-124381919D02*
X144023320Y-124382167D01*
X144135655Y-124383128D01*
X144219678Y-124385206D01*
X144280769Y-124388807D01*
X144324309Y-124394335D01*
X144355679Y-124402196D01*
X144380262Y-124412793D01*
X144394294Y-124420818D01*
X144470388Y-124487272D01*
X144518084Y-124571530D01*
X144535199Y-124664751D01*
X144519546Y-124758100D01*
X144491418Y-124813688D01*
X144442760Y-124872043D01*
X144383333Y-124911814D01*
X144305507Y-124935810D01*
X144201652Y-124946839D01*
X144125462Y-124948401D01*
X144119986Y-124948191D01*
X144119986Y-124811692D01*
X144207355Y-124810859D01*
X144265192Y-124807039D01*
X144303029Y-124798254D01*
X144330398Y-124782526D01*
X144351042Y-124763734D01*
X144390890Y-124700625D01*
X144394295Y-124632863D01*
X144361025Y-124568821D01*
X144356517Y-124563836D01*
X144333067Y-124542561D01*
X144305166Y-124529221D01*
X144263641Y-124521999D01*
X144199316Y-124519077D01*
X144128200Y-124518615D01*
X144038858Y-124519617D01*
X143979258Y-124523762D01*
X143940089Y-124532764D01*
X143912040Y-124548333D01*
X143897144Y-124561098D01*
X143859575Y-124620400D01*
X143855057Y-124688699D01*
X143883753Y-124753890D01*
X143894406Y-124766472D01*
X143918063Y-124787889D01*
X143946251Y-124801256D01*
X143988245Y-124808434D01*
X144053319Y-124811281D01*
X144119986Y-124811692D01*
X144119986Y-124948191D01*
X144002765Y-124943678D01*
X143910577Y-124927638D01*
X143841269Y-124897472D01*
X143787211Y-124850371D01*
X143759505Y-124813688D01*
X143729572Y-124747010D01*
X143715678Y-124669728D01*
X143719397Y-124597890D01*
X143734400Y-124557692D01*
X143738670Y-124541918D01*
X143722750Y-124531450D01*
X143680089Y-124524144D01*
X143615106Y-124518615D01*
X143542732Y-124512563D01*
X143499187Y-124504156D01*
X143474287Y-124488859D01*
X143457845Y-124462136D01*
X143450564Y-124445346D01*
X143423963Y-124381846D01*
X143877289Y-124381919D01*
G36*
X143721670Y-125270638D02*
G01*
X143754421Y-125181883D01*
X143812350Y-125109978D01*
X143853128Y-125081856D01*
X143927954Y-125051198D01*
X143982058Y-125051835D01*
X144018446Y-125084013D01*
X144024633Y-125095919D01*
X144043925Y-125147325D01*
X144038982Y-125173578D01*
X144006587Y-125182470D01*
X143988692Y-125182923D01*
X143922859Y-125199203D01*
X143876807Y-125241635D01*
X143854564Y-125300612D01*
X143860161Y-125366525D01*
X143889229Y-125420105D01*
X143905810Y-125438202D01*
X143925925Y-125451029D01*
X143956332Y-125459694D01*
X144003788Y-125465304D01*
X144075050Y-125468965D01*
X144176875Y-125471785D01*
X144209115Y-125472516D01*
X144319410Y-125475180D01*
X144397036Y-125478208D01*
X144448396Y-125482750D01*
X144479890Y-125489954D01*
X144497920Y-125500967D01*
X144508888Y-125516940D01*
X144513733Y-125527166D01*
X144530301Y-125570594D01*
X144535769Y-125596158D01*
X144517507Y-125604605D01*
X144462296Y-125609761D01*
X144369499Y-125611654D01*
X144238478Y-125610311D01*
X144218269Y-125609893D01*
X144098733Y-125606942D01*
X144011449Y-125603452D01*
X143949591Y-125598486D01*
X143906336Y-125591107D01*
X143874860Y-125580376D01*
X143848339Y-125565355D01*
X143836975Y-125557498D01*
X143786692Y-125512447D01*
X143747581Y-125462060D01*
X143744167Y-125455892D01*
X143717212Y-125365542D01*
X143721670Y-125270638D01*
X143721670Y-125270638D01*
G37*
X143721670Y-125270638D02*
X143754421Y-125181883D01*
X143812350Y-125109978D01*
X143853128Y-125081856D01*
X143927954Y-125051198D01*
X143982058Y-125051835D01*
X144018446Y-125084013D01*
X144024633Y-125095919D01*
X144043925Y-125147325D01*
X144038982Y-125173578D01*
X144006587Y-125182470D01*
X143988692Y-125182923D01*
X143922859Y-125199203D01*
X143876807Y-125241635D01*
X143854564Y-125300612D01*
X143860161Y-125366525D01*
X143889229Y-125420105D01*
X143905810Y-125438202D01*
X143925925Y-125451029D01*
X143956332Y-125459694D01*
X144003788Y-125465304D01*
X144075050Y-125468965D01*
X144176875Y-125471785D01*
X144209115Y-125472516D01*
X144319410Y-125475180D01*
X144397036Y-125478208D01*
X144448396Y-125482750D01*
X144479890Y-125489954D01*
X144497920Y-125500967D01*
X144508888Y-125516940D01*
X144513733Y-125527166D01*
X144530301Y-125570594D01*
X144535769Y-125596158D01*
X144517507Y-125604605D01*
X144462296Y-125609761D01*
X144369499Y-125611654D01*
X144238478Y-125610311D01*
X144218269Y-125609893D01*
X144098733Y-125606942D01*
X144011449Y-125603452D01*
X143949591Y-125598486D01*
X143906336Y-125591107D01*
X143874860Y-125580376D01*
X143848339Y-125565355D01*
X143836975Y-125557498D01*
X143786692Y-125512447D01*
X143747581Y-125462060D01*
X143744167Y-125455892D01*
X143717212Y-125365542D01*
X143721670Y-125270638D01*
G36*
X143723303Y-125930499D02*
G01*
X143751733Y-125853940D01*
X143752279Y-125853064D01*
X143787127Y-125805715D01*
X143827852Y-125770759D01*
X143880925Y-125746175D01*
X143952814Y-125729938D01*
X144049992Y-125720025D01*
X144178928Y-125714414D01*
X144197298Y-125713923D01*
X144474287Y-125706859D01*
X144505028Y-125766305D01*
X144525802Y-125809319D01*
X144535646Y-125835290D01*
X144535769Y-125836491D01*
X144517606Y-125840986D01*
X144468612Y-125844556D01*
X144397031Y-125846752D01*
X144339068Y-125847231D01*
X144245170Y-125847242D01*
X144186203Y-125851534D01*
X144158079Y-125866497D01*
X144156706Y-125898518D01*
X144177998Y-125953986D01*
X144217136Y-126037731D01*
X144249643Y-126099311D01*
X144277845Y-126130983D01*
X144308582Y-126140294D01*
X144310104Y-126140308D01*
X144363054Y-126124943D01*
X144391660Y-126079453D01*
X144395803Y-126009834D01*
X144395084Y-125959687D01*
X144409527Y-125933246D01*
X144444218Y-125916757D01*
X144488416Y-125907267D01*
X144513493Y-125920943D01*
X144517082Y-125926093D01*
X144531496Y-125974575D01*
X144533537Y-126042469D01*
X144523983Y-126112388D01*
X144506522Y-126161932D01*
X144448364Y-126230430D01*
X144367408Y-126269366D01*
X144304160Y-126277077D01*
X144247111Y-126271193D01*
X144200542Y-126249899D01*
X144159181Y-126207735D01*
X144117755Y-126139241D01*
X144070993Y-126038956D01*
X144068350Y-126032846D01*
X144026617Y-125942510D01*
X143992391Y-125886765D01*
X143961635Y-125862871D01*
X143930311Y-125868087D01*
X143894383Y-125899672D01*
X143886116Y-125909117D01*
X143854058Y-125972383D01*
X143855407Y-126037936D01*
X143886838Y-126095028D01*
X143945024Y-126132907D01*
X143956446Y-126136426D01*
X144011837Y-126170700D01*
X144038518Y-126214191D01*
X144064960Y-126277077D01*
X143996548Y-126277077D01*
X143897110Y-126257948D01*
X143805902Y-126201169D01*
X143775389Y-126171622D01*
X143736228Y-126104458D01*
X143718500Y-126019044D01*
X143723303Y-125930499D01*
X143723303Y-125930499D01*
G37*
X143723303Y-125930499D02*
X143751733Y-125853940D01*
X143752279Y-125853064D01*
X143787127Y-125805715D01*
X143827852Y-125770759D01*
X143880925Y-125746175D01*
X143952814Y-125729938D01*
X144049992Y-125720025D01*
X144178928Y-125714414D01*
X144197298Y-125713923D01*
X144474287Y-125706859D01*
X144505028Y-125766305D01*
X144525802Y-125809319D01*
X144535646Y-125835290D01*
X144535769Y-125836491D01*
X144517606Y-125840986D01*
X144468612Y-125844556D01*
X144397031Y-125846752D01*
X144339068Y-125847231D01*
X144245170Y-125847242D01*
X144186203Y-125851534D01*
X144158079Y-125866497D01*
X144156706Y-125898518D01*
X144177998Y-125953986D01*
X144217136Y-126037731D01*
X144249643Y-126099311D01*
X144277845Y-126130983D01*
X144308582Y-126140294D01*
X144310104Y-126140308D01*
X144363054Y-126124943D01*
X144391660Y-126079453D01*
X144395803Y-126009834D01*
X144395084Y-125959687D01*
X144409527Y-125933246D01*
X144444218Y-125916757D01*
X144488416Y-125907267D01*
X144513493Y-125920943D01*
X144517082Y-125926093D01*
X144531496Y-125974575D01*
X144533537Y-126042469D01*
X144523983Y-126112388D01*
X144506522Y-126161932D01*
X144448364Y-126230430D01*
X144367408Y-126269366D01*
X144304160Y-126277077D01*
X144247111Y-126271193D01*
X144200542Y-126249899D01*
X144159181Y-126207735D01*
X144117755Y-126139241D01*
X144070993Y-126038956D01*
X144068350Y-126032846D01*
X144026617Y-125942510D01*
X143992391Y-125886765D01*
X143961635Y-125862871D01*
X143930311Y-125868087D01*
X143894383Y-125899672D01*
X143886116Y-125909117D01*
X143854058Y-125972383D01*
X143855407Y-126037936D01*
X143886838Y-126095028D01*
X143945024Y-126132907D01*
X143956446Y-126136426D01*
X144011837Y-126170700D01*
X144038518Y-126214191D01*
X144064960Y-126277077D01*
X143996548Y-126277077D01*
X143897110Y-126257948D01*
X143805902Y-126201169D01*
X143775389Y-126171622D01*
X143736228Y-126104458D01*
X143718500Y-126019044D01*
X143723303Y-125930499D01*
G36*
X143589120Y-126824154D02*
G01*
X143668980Y-126818428D01*
X143716039Y-126811851D01*
X143736566Y-126802738D01*
X143736829Y-126789402D01*
X143734378Y-126785077D01*
X143716636Y-126727556D01*
X143717672Y-126652732D01*
X143735910Y-126576661D01*
X143759505Y-126529082D01*
X143797198Y-126480298D01*
X143839855Y-126444636D01*
X143894057Y-126420155D01*
X143966384Y-126404913D01*
X144063419Y-126396970D01*
X144191742Y-126394384D01*
X144216358Y-126394338D01*
X144492870Y-126394308D01*
X144514320Y-126455839D01*
X144528912Y-126499541D01*
X144535706Y-126523518D01*
X144535769Y-126524223D01*
X144517345Y-126526585D01*
X144466526Y-126528594D01*
X144389993Y-126530099D01*
X144294430Y-126530947D01*
X144236329Y-126531077D01*
X144121771Y-126531349D01*
X144039667Y-126532748D01*
X143983393Y-126536151D01*
X143946326Y-126542433D01*
X143921844Y-126552471D01*
X143903325Y-126567139D01*
X143894406Y-126576298D01*
X143858466Y-126639211D01*
X143855775Y-126707864D01*
X143886170Y-126770152D01*
X143897144Y-126781671D01*
X143917779Y-126798567D01*
X143942256Y-126810286D01*
X143977647Y-126817767D01*
X144031026Y-126821946D01*
X144109466Y-126823763D01*
X144217617Y-126824154D01*
X144492870Y-126824154D01*
X144514320Y-126885685D01*
X144528912Y-126929387D01*
X144535706Y-126953364D01*
X144535769Y-126954070D01*
X144517069Y-126955874D01*
X144464322Y-126957500D01*
X144382557Y-126958883D01*
X144276805Y-126959958D01*
X144152094Y-126960660D01*
X144013455Y-126960923D01*
X143478806Y-126960923D01*
X143425236Y-126833923D01*
X143589120Y-126824154D01*
X143589120Y-126824154D01*
G37*
X143589120Y-126824154D02*
X143668980Y-126818428D01*
X143716039Y-126811851D01*
X143736566Y-126802738D01*
X143736829Y-126789402D01*
X143734378Y-126785077D01*
X143716636Y-126727556D01*
X143717672Y-126652732D01*
X143735910Y-126576661D01*
X143759505Y-126529082D01*
X143797198Y-126480298D01*
X143839855Y-126444636D01*
X143894057Y-126420155D01*
X143966384Y-126404913D01*
X144063419Y-126396970D01*
X144191742Y-126394384D01*
X144216358Y-126394338D01*
X144492870Y-126394308D01*
X144514320Y-126455839D01*
X144528912Y-126499541D01*
X144535706Y-126523518D01*
X144535769Y-126524223D01*
X144517345Y-126526585D01*
X144466526Y-126528594D01*
X144389993Y-126530099D01*
X144294430Y-126530947D01*
X144236329Y-126531077D01*
X144121771Y-126531349D01*
X144039667Y-126532748D01*
X143983393Y-126536151D01*
X143946326Y-126542433D01*
X143921844Y-126552471D01*
X143903325Y-126567139D01*
X143894406Y-126576298D01*
X143858466Y-126639211D01*
X143855775Y-126707864D01*
X143886170Y-126770152D01*
X143897144Y-126781671D01*
X143917779Y-126798567D01*
X143942256Y-126810286D01*
X143977647Y-126817767D01*
X144031026Y-126821946D01*
X144109466Y-126823763D01*
X144217617Y-126824154D01*
X144492870Y-126824154D01*
X144514320Y-126885685D01*
X144528912Y-126929387D01*
X144535706Y-126953364D01*
X144535769Y-126954070D01*
X144517069Y-126955874D01*
X144464322Y-126957500D01*
X144382557Y-126958883D01*
X144276805Y-126959958D01*
X144152094Y-126960660D01*
X144013455Y-126960923D01*
X143478806Y-126960923D01*
X143425236Y-126833923D01*
X143589120Y-126824154D01*
G36*
X143696745Y-128449746D02*
G01*
X143748567Y-128372714D01*
X143823412Y-128313184D01*
X143918654Y-128277622D01*
X143988756Y-128270429D01*
X144018009Y-128271246D01*
X144040407Y-128278086D01*
X144060474Y-128296888D01*
X144082733Y-128333592D01*
X144111709Y-128394138D01*
X144151927Y-128484466D01*
X144152129Y-128484923D01*
X144190210Y-128568067D01*
X144224025Y-128636247D01*
X144249933Y-128682495D01*
X144264295Y-128699842D01*
X144264411Y-128699846D01*
X144295685Y-128684557D01*
X144330157Y-128648804D01*
X144354990Y-128607758D01*
X144359923Y-128586963D01*
X144342862Y-128530230D01*
X144300133Y-128481373D01*
X144253155Y-128457535D01*
X144218522Y-128434603D01*
X144179081Y-128389682D01*
X144145009Y-128336877D01*
X144126480Y-128290290D01*
X144125462Y-128280548D01*
X144142215Y-128269582D01*
X144185039Y-128268921D01*
X144242781Y-128276980D01*
X144304289Y-128292173D01*
X144358409Y-128312914D01*
X144360510Y-128313962D01*
X144447660Y-128376379D01*
X144506939Y-128457274D01*
X144536034Y-128549144D01*
X144532634Y-128644487D01*
X144494428Y-128735802D01*
X144491741Y-128739862D01*
X144426642Y-128811694D01*
X144341705Y-128858927D01*
X144230021Y-128885066D01*
X144198643Y-128888574D01*
X144050536Y-128894787D01*
X143981468Y-128887339D01*
X143981468Y-128699846D01*
X144024552Y-128697410D01*
X144037126Y-128684086D01*
X144027719Y-128650868D01*
X144005483Y-128598506D01*
X143977610Y-128539976D01*
X143976872Y-128538521D01*
X143950777Y-128488911D01*
X143933363Y-128469000D01*
X143915107Y-128473910D01*
X143891120Y-128494584D01*
X143856406Y-128547181D01*
X143853856Y-128603823D01*
X143879119Y-128654631D01*
X143927847Y-128689724D01*
X143981468Y-128699846D01*
X143981468Y-128887339D01*
X143932036Y-128882008D01*
X143838055Y-128849222D01*
X143772215Y-128803579D01*
X143705681Y-128721198D01*
X143672676Y-128630454D01*
X143670573Y-128537815D01*
X143696745Y-128449746D01*
X143696745Y-128449746D01*
G37*
X143696745Y-128449746D02*
X143748567Y-128372714D01*
X143823412Y-128313184D01*
X143918654Y-128277622D01*
X143988756Y-128270429D01*
X144018009Y-128271246D01*
X144040407Y-128278086D01*
X144060474Y-128296888D01*
X144082733Y-128333592D01*
X144111709Y-128394138D01*
X144151927Y-128484466D01*
X144152129Y-128484923D01*
X144190210Y-128568067D01*
X144224025Y-128636247D01*
X144249933Y-128682495D01*
X144264295Y-128699842D01*
X144264411Y-128699846D01*
X144295685Y-128684557D01*
X144330157Y-128648804D01*
X144354990Y-128607758D01*
X144359923Y-128586963D01*
X144342862Y-128530230D01*
X144300133Y-128481373D01*
X144253155Y-128457535D01*
X144218522Y-128434603D01*
X144179081Y-128389682D01*
X144145009Y-128336877D01*
X144126480Y-128290290D01*
X144125462Y-128280548D01*
X144142215Y-128269582D01*
X144185039Y-128268921D01*
X144242781Y-128276980D01*
X144304289Y-128292173D01*
X144358409Y-128312914D01*
X144360510Y-128313962D01*
X144447660Y-128376379D01*
X144506939Y-128457274D01*
X144536034Y-128549144D01*
X144532634Y-128644487D01*
X144494428Y-128735802D01*
X144491741Y-128739862D01*
X144426642Y-128811694D01*
X144341705Y-128858927D01*
X144230021Y-128885066D01*
X144198643Y-128888574D01*
X144050536Y-128894787D01*
X143981468Y-128887339D01*
X143981468Y-128699846D01*
X144024552Y-128697410D01*
X144037126Y-128684086D01*
X144027719Y-128650868D01*
X144005483Y-128598506D01*
X143977610Y-128539976D01*
X143976872Y-128538521D01*
X143950777Y-128488911D01*
X143933363Y-128469000D01*
X143915107Y-128473910D01*
X143891120Y-128494584D01*
X143856406Y-128547181D01*
X143853856Y-128603823D01*
X143879119Y-128654631D01*
X143927847Y-128689724D01*
X143981468Y-128699846D01*
X143981468Y-128887339D01*
X143932036Y-128882008D01*
X143838055Y-128849222D01*
X143772215Y-128803579D01*
X143705681Y-128721198D01*
X143672676Y-128630454D01*
X143670573Y-128537815D01*
X143696745Y-128449746D01*
G36*
X143684256Y-129967114D02*
G01*
X143732409Y-129875536D01*
X143809905Y-129807951D01*
X143859727Y-129783943D01*
X143934533Y-129765262D01*
X144029052Y-129755699D01*
X144132210Y-129754792D01*
X144232935Y-129762079D01*
X144320153Y-129777097D01*
X144382791Y-129799385D01*
X144393579Y-129806235D01*
X144474105Y-129887368D01*
X144522336Y-129983734D01*
X144536450Y-130088299D01*
X144514629Y-130194032D01*
X144501547Y-130223457D01*
X144461231Y-130280759D01*
X144407775Y-130331050D01*
X144400995Y-130335803D01*
X144368321Y-130355122D01*
X144333394Y-130367892D01*
X144287414Y-130375436D01*
X144221584Y-130379076D01*
X144127105Y-130380135D01*
X144105923Y-130380154D01*
X144099182Y-130380106D01*
X144099182Y-130184769D01*
X144188349Y-130183632D01*
X144247520Y-130179159D01*
X144285741Y-130169754D01*
X144312053Y-130153824D01*
X144320846Y-130145692D01*
X144354261Y-130098942D01*
X144352737Y-130053553D01*
X144323752Y-130007660D01*
X144292809Y-129980288D01*
X144247643Y-129964077D01*
X144176420Y-129954974D01*
X144168114Y-129954349D01*
X144039037Y-129952796D01*
X143943172Y-129969035D01*
X143881107Y-130002848D01*
X143853432Y-130054016D01*
X143851923Y-130072280D01*
X143859513Y-130120240D01*
X143885808Y-130153047D01*
X143936095Y-130173105D01*
X144015664Y-130182822D01*
X144099182Y-130184769D01*
X144099182Y-130380106D01*
X144005249Y-130379426D01*
X143934906Y-130376371D01*
X143886163Y-130369678D01*
X143850288Y-130358040D01*
X143818548Y-130340147D01*
X143812648Y-130336192D01*
X143733104Y-130269733D01*
X143686929Y-130197315D01*
X143668599Y-130109151D01*
X143667703Y-130079213D01*
X143684256Y-129967114D01*
X143684256Y-129967114D01*
G37*
X143684256Y-129967114D02*
X143732409Y-129875536D01*
X143809905Y-129807951D01*
X143859727Y-129783943D01*
X143934533Y-129765262D01*
X144029052Y-129755699D01*
X144132210Y-129754792D01*
X144232935Y-129762079D01*
X144320153Y-129777097D01*
X144382791Y-129799385D01*
X144393579Y-129806235D01*
X144474105Y-129887368D01*
X144522336Y-129983734D01*
X144536450Y-130088299D01*
X144514629Y-130194032D01*
X144501547Y-130223457D01*
X144461231Y-130280759D01*
X144407775Y-130331050D01*
X144400995Y-130335803D01*
X144368321Y-130355122D01*
X144333394Y-130367892D01*
X144287414Y-130375436D01*
X144221584Y-130379076D01*
X144127105Y-130380135D01*
X144105923Y-130380154D01*
X144099182Y-130380106D01*
X144099182Y-130184769D01*
X144188349Y-130183632D01*
X144247520Y-130179159D01*
X144285741Y-130169754D01*
X144312053Y-130153824D01*
X144320846Y-130145692D01*
X144354261Y-130098942D01*
X144352737Y-130053553D01*
X144323752Y-130007660D01*
X144292809Y-129980288D01*
X144247643Y-129964077D01*
X144176420Y-129954974D01*
X144168114Y-129954349D01*
X144039037Y-129952796D01*
X143943172Y-129969035D01*
X143881107Y-130002848D01*
X143853432Y-130054016D01*
X143851923Y-130072280D01*
X143859513Y-130120240D01*
X143885808Y-130153047D01*
X143936095Y-130173105D01*
X144015664Y-130182822D01*
X144099182Y-130184769D01*
X144099182Y-130380106D01*
X144005249Y-130379426D01*
X143934906Y-130376371D01*
X143886163Y-130369678D01*
X143850288Y-130358040D01*
X143818548Y-130340147D01*
X143812648Y-130336192D01*
X143733104Y-130269733D01*
X143686929Y-130197315D01*
X143668599Y-130109151D01*
X143667703Y-130079213D01*
X143684256Y-129967114D01*
G36*
X143692089Y-127712336D02*
G01*
X143728358Y-127649633D01*
X143764358Y-127606039D01*
X143802075Y-127574155D01*
X143848199Y-127552190D01*
X143909421Y-127538351D01*
X143992431Y-127530847D01*
X144103919Y-127527883D01*
X144184062Y-127527539D01*
X144479065Y-127527539D01*
X144553515Y-127693615D01*
X144230402Y-127703385D01*
X144109729Y-127707421D01*
X144022141Y-127711656D01*
X143961650Y-127716903D01*
X143922268Y-127723975D01*
X143898007Y-127733689D01*
X143882880Y-127746856D01*
X143879606Y-127751081D01*
X143854034Y-127815091D01*
X143864153Y-127879792D01*
X143891000Y-127918308D01*
X143910024Y-127933975D01*
X143934988Y-127944820D01*
X143972834Y-127951712D01*
X144030502Y-127955521D01*
X144114935Y-127957117D01*
X144202928Y-127957385D01*
X144313323Y-127957437D01*
X144391463Y-127959328D01*
X144444165Y-127965655D01*
X144478242Y-127979017D01*
X144500511Y-128002015D01*
X144517787Y-128037246D01*
X144535738Y-128084303D01*
X144555278Y-128135697D01*
X144208485Y-128129579D01*
X144083468Y-128127116D01*
X143991082Y-128124233D01*
X143924881Y-128120102D01*
X143878420Y-128113893D01*
X143845256Y-128104774D01*
X143818944Y-128091917D01*
X143795729Y-128076416D01*
X143721569Y-128001629D01*
X143678684Y-127910372D01*
X143668412Y-127811117D01*
X143692089Y-127712336D01*
X143692089Y-127712336D01*
G37*
X143692089Y-127712336D02*
X143728358Y-127649633D01*
X143764358Y-127606039D01*
X143802075Y-127574155D01*
X143848199Y-127552190D01*
X143909421Y-127538351D01*
X143992431Y-127530847D01*
X144103919Y-127527883D01*
X144184062Y-127527539D01*
X144479065Y-127527539D01*
X144553515Y-127693615D01*
X144230402Y-127703385D01*
X144109729Y-127707421D01*
X144022141Y-127711656D01*
X143961650Y-127716903D01*
X143922268Y-127723975D01*
X143898007Y-127733689D01*
X143882880Y-127746856D01*
X143879606Y-127751081D01*
X143854034Y-127815091D01*
X143864153Y-127879792D01*
X143891000Y-127918308D01*
X143910024Y-127933975D01*
X143934988Y-127944820D01*
X143972834Y-127951712D01*
X144030502Y-127955521D01*
X144114935Y-127957117D01*
X144202928Y-127957385D01*
X144313323Y-127957437D01*
X144391463Y-127959328D01*
X144444165Y-127965655D01*
X144478242Y-127979017D01*
X144500511Y-128002015D01*
X144517787Y-128037246D01*
X144535738Y-128084303D01*
X144555278Y-128135697D01*
X144208485Y-128129579D01*
X144083468Y-128127116D01*
X143991082Y-128124233D01*
X143924881Y-128120102D01*
X143878420Y-128113893D01*
X143845256Y-128104774D01*
X143818944Y-128091917D01*
X143795729Y-128076416D01*
X143721569Y-128001629D01*
X143678684Y-127910372D01*
X143668412Y-127811117D01*
X143692089Y-127712336D01*
G36*
X143681505Y-129215114D02*
G01*
X143718727Y-129140461D01*
X143787261Y-129074569D01*
X143812648Y-129056423D01*
X143845866Y-129036655D01*
X143881945Y-129023828D01*
X143930098Y-129016490D01*
X143999536Y-129013187D01*
X144091206Y-129012462D01*
X144216830Y-129015737D01*
X144311154Y-129027123D01*
X144381523Y-129048959D01*
X144435286Y-129083581D01*
X144479788Y-129133330D01*
X144482423Y-129136986D01*
X144509377Y-129186015D01*
X144522712Y-129245055D01*
X144526000Y-129320141D01*
X144526000Y-129442205D01*
X144644497Y-129442256D01*
X144710492Y-129443392D01*
X144749202Y-129450314D01*
X144772419Y-129468402D01*
X144791933Y-129503038D01*
X144795920Y-129511355D01*
X144814603Y-129550280D01*
X144826403Y-129580417D01*
X144827422Y-129602826D01*
X144813761Y-129618567D01*
X144781522Y-129628698D01*
X144726804Y-129634277D01*
X144645711Y-129636365D01*
X144534344Y-129636019D01*
X144388802Y-129634300D01*
X144345269Y-129633763D01*
X144195205Y-129631828D01*
X144097042Y-129630096D01*
X144097042Y-129442308D01*
X144180364Y-129441252D01*
X144234880Y-129436562D01*
X144270837Y-129425949D01*
X144298482Y-129407128D01*
X144311965Y-129394350D01*
X144351417Y-129342110D01*
X144354628Y-129295858D01*
X144322049Y-129248133D01*
X144320846Y-129246923D01*
X144295668Y-129227506D01*
X144261447Y-129215693D01*
X144208748Y-129209735D01*
X144128131Y-129207880D01*
X144110271Y-129207846D01*
X143999175Y-129212330D01*
X143922161Y-129226926D01*
X143875147Y-129253350D01*
X143854050Y-129293317D01*
X143851923Y-129316416D01*
X143861900Y-129371238D01*
X143894752Y-129408842D01*
X143954857Y-129431477D01*
X144046598Y-129441394D01*
X144097042Y-129442308D01*
X144097042Y-129630096D01*
X144079060Y-129629778D01*
X143991679Y-129627127D01*
X143927905Y-129623394D01*
X143882582Y-129618093D01*
X143850555Y-129610742D01*
X143826668Y-129600857D01*
X143805764Y-129587954D01*
X143797898Y-129582421D01*
X143723595Y-129509031D01*
X143681467Y-129416240D01*
X143669722Y-129308904D01*
X143681505Y-129215114D01*
X143681505Y-129215114D01*
G37*
X143681505Y-129215114D02*
X143718727Y-129140461D01*
X143787261Y-129074569D01*
X143812648Y-129056423D01*
X143845866Y-129036655D01*
X143881945Y-129023828D01*
X143930098Y-129016490D01*
X143999536Y-129013187D01*
X144091206Y-129012462D01*
X144216830Y-129015737D01*
X144311154Y-129027123D01*
X144381523Y-129048959D01*
X144435286Y-129083581D01*
X144479788Y-129133330D01*
X144482423Y-129136986D01*
X144509377Y-129186015D01*
X144522712Y-129245055D01*
X144526000Y-129320141D01*
X144526000Y-129442205D01*
X144644497Y-129442256D01*
X144710492Y-129443392D01*
X144749202Y-129450314D01*
X144772419Y-129468402D01*
X144791933Y-129503038D01*
X144795920Y-129511355D01*
X144814603Y-129550280D01*
X144826403Y-129580417D01*
X144827422Y-129602826D01*
X144813761Y-129618567D01*
X144781522Y-129628698D01*
X144726804Y-129634277D01*
X144645711Y-129636365D01*
X144534344Y-129636019D01*
X144388802Y-129634300D01*
X144345269Y-129633763D01*
X144195205Y-129631828D01*
X144097042Y-129630096D01*
X144097042Y-129442308D01*
X144180364Y-129441252D01*
X144234880Y-129436562D01*
X144270837Y-129425949D01*
X144298482Y-129407128D01*
X144311965Y-129394350D01*
X144351417Y-129342110D01*
X144354628Y-129295858D01*
X144322049Y-129248133D01*
X144320846Y-129246923D01*
X144295668Y-129227506D01*
X144261447Y-129215693D01*
X144208748Y-129209735D01*
X144128131Y-129207880D01*
X144110271Y-129207846D01*
X143999175Y-129212330D01*
X143922161Y-129226926D01*
X143875147Y-129253350D01*
X143854050Y-129293317D01*
X143851923Y-129316416D01*
X143861900Y-129371238D01*
X143894752Y-129408842D01*
X143954857Y-129431477D01*
X144046598Y-129441394D01*
X144097042Y-129442308D01*
X144097042Y-129630096D01*
X144079060Y-129629778D01*
X143991679Y-129627127D01*
X143927905Y-129623394D01*
X143882582Y-129618093D01*
X143850555Y-129610742D01*
X143826668Y-129600857D01*
X143805764Y-129587954D01*
X143797898Y-129582421D01*
X143723595Y-129509031D01*
X143681467Y-129416240D01*
X143669722Y-129308904D01*
X143681505Y-129215114D01*
D12*
X111820000Y-111820000D02*
X110490000Y-111820000D01*
X111820000Y-110490000D02*
X111820000Y-111820000D01*
X111820000Y-109220000D02*
X109160000Y-109220000D01*
X109160000Y-109220000D02*
X109160000Y-106620000D01*
X111820000Y-109220000D02*
X111820000Y-106620000D01*
X111820000Y-106620000D02*
X109160000Y-106620000D01*
X136305001Y-94125001D02*
X118265001Y-94125001D01*
X136305001Y-137565001D02*
X136305001Y-94125001D01*
X118265001Y-137565001D02*
X136305001Y-137565001D01*
X120935001Y-134895001D02*
X118265001Y-134895001D01*
X120935001Y-99335001D02*
X120935001Y-134895001D01*
X120935001Y-99335001D02*
X118265001Y-99335001D01*
X133635001Y-134895001D02*
X136305001Y-134895001D01*
X133635001Y-96795001D02*
X133635001Y-134895001D01*
X133635001Y-96795001D02*
X136305001Y-96795001D01*
X118265001Y-94125001D02*
X118265001Y-96795001D01*
X118265001Y-99335001D02*
X118265001Y-137565001D01*
X120935001Y-96795001D02*
X118265001Y-96795001D01*
X120935001Y-99335001D02*
X120935001Y-96795001D01*
X116780000Y-88960000D02*
X116780000Y-87630000D01*
X118110000Y-88960000D02*
X116780000Y-88960000D01*
X119380000Y-88960000D02*
X119380000Y-86300000D01*
X119380000Y-86300000D02*
X137220000Y-86300000D01*
X119380000Y-88960000D02*
X137220000Y-88960000D01*
X137220000Y-88960000D02*
X137220000Y-86300000D01*
X111820000Y-123250000D02*
X110490000Y-123250000D01*
X111820000Y-121920000D02*
X111820000Y-123250000D01*
X111820000Y-120650000D02*
X109160000Y-120650000D01*
X109160000Y-120650000D02*
X109160000Y-118050000D01*
X111820000Y-120650000D02*
X111820000Y-118050000D01*
X111820000Y-118050000D02*
X109160000Y-118050000D01*
X111820000Y-139760000D02*
X110490000Y-139760000D01*
X111820000Y-138430000D02*
X111820000Y-139760000D01*
X111820000Y-137160000D02*
X109160000Y-137160000D01*
X109160000Y-137160000D02*
X109160000Y-129480000D01*
X111820000Y-137160000D02*
X111820000Y-129480000D01*
X111820000Y-129480000D02*
X109160000Y-129480000D01*
X116820000Y-95240000D02*
G75*
G03X116820000Y-95240000I-7600000J0D01*
G01*
D13*
X107450000Y-109981904D02*
X107402380Y-110077142D01*
X107402380Y-110220000D01*
X107450000Y-110362857D01*
X107545238Y-110458095D01*
X107640476Y-110505714D01*
X107830952Y-110553333D01*
X107973809Y-110553333D01*
X108164285Y-110505714D01*
X108259523Y-110458095D01*
X108354761Y-110362857D01*
X108402380Y-110220000D01*
X108402380Y-110124761D01*
X108354761Y-109981904D01*
X108307142Y-109934285D01*
X107973809Y-109934285D01*
X107973809Y-110124761D01*
X108402380Y-109505714D02*
X107402380Y-109505714D01*
X108402380Y-108934285D01*
X107402380Y-108934285D01*
X108402380Y-108458095D02*
X107402380Y-108458095D01*
X107402380Y-108220000D01*
X107450000Y-108077142D01*
X107545238Y-107981904D01*
X107640476Y-107934285D01*
X107830952Y-107886666D01*
X107973809Y-107886666D01*
X108164285Y-107934285D01*
X108259523Y-107981904D01*
X108354761Y-108077142D01*
X108402380Y-108220000D01*
X108402380Y-108458095D01*
X127166666Y-121712857D02*
X127166666Y-121236666D01*
X127452380Y-121808095D02*
X126452380Y-121474761D01*
X127452380Y-121141428D01*
X127452380Y-120808095D02*
X126785714Y-120808095D01*
X126976190Y-120808095D02*
X126880952Y-120760476D01*
X126833333Y-120712857D01*
X126785714Y-120617619D01*
X126785714Y-120522380D01*
X127452380Y-119760476D02*
X126452380Y-119760476D01*
X127404761Y-119760476D02*
X127452380Y-119855714D01*
X127452380Y-120046190D01*
X127404761Y-120141428D01*
X127357142Y-120189047D01*
X127261904Y-120236666D01*
X126976190Y-120236666D01*
X126880952Y-120189047D01*
X126833333Y-120141428D01*
X126785714Y-120046190D01*
X126785714Y-119855714D01*
X126833333Y-119760476D01*
X126785714Y-118855714D02*
X127452380Y-118855714D01*
X126785714Y-119284285D02*
X127309523Y-119284285D01*
X127404761Y-119236666D01*
X127452380Y-119141428D01*
X127452380Y-118998571D01*
X127404761Y-118903333D01*
X127357142Y-118855714D01*
X127452380Y-118379523D02*
X126785714Y-118379523D01*
X126452380Y-118379523D02*
X126500000Y-118427142D01*
X126547619Y-118379523D01*
X126500000Y-118331904D01*
X126452380Y-118379523D01*
X126547619Y-118379523D01*
X126785714Y-117903333D02*
X127452380Y-117903333D01*
X126880952Y-117903333D02*
X126833333Y-117855714D01*
X126785714Y-117760476D01*
X126785714Y-117617619D01*
X126833333Y-117522380D01*
X126928571Y-117474761D01*
X127452380Y-117474761D01*
X127452380Y-116855714D02*
X127404761Y-116950952D01*
X127357142Y-116998571D01*
X127261904Y-117046190D01*
X126976190Y-117046190D01*
X126880952Y-116998571D01*
X126833333Y-116950952D01*
X126785714Y-116855714D01*
X126785714Y-116712857D01*
X126833333Y-116617619D01*
X126880952Y-116570000D01*
X126976190Y-116522380D01*
X127261904Y-116522380D01*
X127357142Y-116570000D01*
X127404761Y-116617619D01*
X127452380Y-116712857D01*
X127452380Y-116855714D01*
X127452380Y-115331904D02*
X126452380Y-115331904D01*
X127452380Y-114760476D01*
X126452380Y-114760476D01*
X127452380Y-113855714D02*
X126928571Y-113855714D01*
X126833333Y-113903333D01*
X126785714Y-113998571D01*
X126785714Y-114189047D01*
X126833333Y-114284285D01*
X127404761Y-113855714D02*
X127452380Y-113950952D01*
X127452380Y-114189047D01*
X127404761Y-114284285D01*
X127309523Y-114331904D01*
X127214285Y-114331904D01*
X127119047Y-114284285D01*
X127071428Y-114189047D01*
X127071428Y-113950952D01*
X127023809Y-113855714D01*
X126785714Y-113379523D02*
X127452380Y-113379523D01*
X126880952Y-113379523D02*
X126833333Y-113331904D01*
X126785714Y-113236666D01*
X126785714Y-113093809D01*
X126833333Y-112998571D01*
X126928571Y-112950952D01*
X127452380Y-112950952D01*
X127452380Y-112331904D02*
X127404761Y-112427142D01*
X127357142Y-112474761D01*
X127261904Y-112522380D01*
X126976190Y-112522380D01*
X126880952Y-112474761D01*
X126833333Y-112427142D01*
X126785714Y-112331904D01*
X126785714Y-112189047D01*
X126833333Y-112093809D01*
X126880952Y-112046190D01*
X126976190Y-111998571D01*
X127261904Y-111998571D01*
X127357142Y-112046190D01*
X127404761Y-112093809D01*
X127452380Y-112189047D01*
X127452380Y-112331904D01*
X126452380Y-110950952D02*
X127452380Y-110617619D01*
X126452380Y-110284285D01*
X126452380Y-110046190D02*
X126452380Y-109427142D01*
X126833333Y-109760476D01*
X126833333Y-109617619D01*
X126880952Y-109522380D01*
X126928571Y-109474761D01*
X127023809Y-109427142D01*
X127261904Y-109427142D01*
X127357142Y-109474761D01*
X127404761Y-109522380D01*
X127452380Y-109617619D01*
X127452380Y-109903333D01*
X127404761Y-109998571D01*
X127357142Y-110046190D01*
X123452380Y-85542380D02*
X123119047Y-85066190D01*
X122880952Y-85542380D02*
X122880952Y-84542380D01*
X123261904Y-84542380D01*
X123357142Y-84590000D01*
X123404761Y-84637619D01*
X123452380Y-84732857D01*
X123452380Y-84875714D01*
X123404761Y-84970952D01*
X123357142Y-85018571D01*
X123261904Y-85066190D01*
X122880952Y-85066190D01*
X123785714Y-84542380D02*
X124452380Y-85542380D01*
X124452380Y-84542380D02*
X123785714Y-85542380D01*
X125309523Y-84542380D02*
X124833333Y-84542380D01*
X124785714Y-85018571D01*
X124833333Y-84970952D01*
X124928571Y-84923333D01*
X125166666Y-84923333D01*
X125261904Y-84970952D01*
X125309523Y-85018571D01*
X125357142Y-85113809D01*
X125357142Y-85351904D01*
X125309523Y-85447142D01*
X125261904Y-85494761D01*
X125166666Y-85542380D01*
X124928571Y-85542380D01*
X124833333Y-85494761D01*
X124785714Y-85447142D01*
X125928571Y-84970952D02*
X125833333Y-84923333D01*
X125785714Y-84875714D01*
X125738095Y-84780476D01*
X125738095Y-84732857D01*
X125785714Y-84637619D01*
X125833333Y-84590000D01*
X125928571Y-84542380D01*
X126119047Y-84542380D01*
X126214285Y-84590000D01*
X126261904Y-84637619D01*
X126309523Y-84732857D01*
X126309523Y-84780476D01*
X126261904Y-84875714D01*
X126214285Y-84923333D01*
X126119047Y-84970952D01*
X125928571Y-84970952D01*
X125833333Y-85018571D01*
X125785714Y-85066190D01*
X125738095Y-85161428D01*
X125738095Y-85351904D01*
X125785714Y-85447142D01*
X125833333Y-85494761D01*
X125928571Y-85542380D01*
X126119047Y-85542380D01*
X126214285Y-85494761D01*
X126261904Y-85447142D01*
X126309523Y-85351904D01*
X126309523Y-85161428D01*
X126261904Y-85066190D01*
X126214285Y-85018571D01*
X126119047Y-84970952D01*
X126928571Y-84542380D02*
X127023809Y-84542380D01*
X127119047Y-84590000D01*
X127166666Y-84637619D01*
X127214285Y-84732857D01*
X127261904Y-84923333D01*
X127261904Y-85161428D01*
X127214285Y-85351904D01*
X127166666Y-85447142D01*
X127119047Y-85494761D01*
X127023809Y-85542380D01*
X126928571Y-85542380D01*
X126833333Y-85494761D01*
X126785714Y-85447142D01*
X126738095Y-85351904D01*
X126690476Y-85161428D01*
X126690476Y-84923333D01*
X126738095Y-84732857D01*
X126785714Y-84637619D01*
X126833333Y-84590000D01*
X126928571Y-84542380D01*
X127833333Y-84970952D02*
X127738095Y-84923333D01*
X127690476Y-84875714D01*
X127642857Y-84780476D01*
X127642857Y-84732857D01*
X127690476Y-84637619D01*
X127738095Y-84590000D01*
X127833333Y-84542380D01*
X128023809Y-84542380D01*
X128119047Y-84590000D01*
X128166666Y-84637619D01*
X128214285Y-84732857D01*
X128214285Y-84780476D01*
X128166666Y-84875714D01*
X128119047Y-84923333D01*
X128023809Y-84970952D01*
X127833333Y-84970952D01*
X127738095Y-85018571D01*
X127690476Y-85066190D01*
X127642857Y-85161428D01*
X127642857Y-85351904D01*
X127690476Y-85447142D01*
X127738095Y-85494761D01*
X127833333Y-85542380D01*
X128023809Y-85542380D01*
X128119047Y-85494761D01*
X128166666Y-85447142D01*
X128214285Y-85351904D01*
X128214285Y-85161428D01*
X128166666Y-85066190D01*
X128119047Y-85018571D01*
X128023809Y-84970952D01*
X128404761Y-85637619D02*
X129166666Y-85637619D01*
X129357142Y-85494761D02*
X129452380Y-85542380D01*
X129642857Y-85542380D01*
X129738095Y-85494761D01*
X129785714Y-85399523D01*
X129785714Y-85351904D01*
X129738095Y-85256666D01*
X129642857Y-85209047D01*
X129500000Y-85209047D01*
X129404761Y-85161428D01*
X129357142Y-85066190D01*
X129357142Y-85018571D01*
X129404761Y-84923333D01*
X129500000Y-84875714D01*
X129642857Y-84875714D01*
X129738095Y-84923333D01*
X130214285Y-84875714D02*
X130214285Y-85875714D01*
X130214285Y-84923333D02*
X130309523Y-84875714D01*
X130500000Y-84875714D01*
X130595238Y-84923333D01*
X130642857Y-84970952D01*
X130690476Y-85066190D01*
X130690476Y-85351904D01*
X130642857Y-85447142D01*
X130595238Y-85494761D01*
X130500000Y-85542380D01*
X130309523Y-85542380D01*
X130214285Y-85494761D01*
X131119047Y-85542380D02*
X131119047Y-84875714D01*
X131119047Y-84542380D02*
X131071428Y-84590000D01*
X131119047Y-84637619D01*
X131166666Y-84590000D01*
X131119047Y-84542380D01*
X131119047Y-84637619D01*
X108021428Y-121935714D02*
X108021428Y-121173809D01*
X108402380Y-121554761D02*
X107640476Y-121554761D01*
X107402380Y-120221428D02*
X107402380Y-120697619D01*
X107878571Y-120745238D01*
X107830952Y-120697619D01*
X107783333Y-120602380D01*
X107783333Y-120364285D01*
X107830952Y-120269047D01*
X107878571Y-120221428D01*
X107973809Y-120173809D01*
X108211904Y-120173809D01*
X108307142Y-120221428D01*
X108354761Y-120269047D01*
X108402380Y-120364285D01*
X108402380Y-120602380D01*
X108354761Y-120697619D01*
X108307142Y-120745238D01*
X107402380Y-119888095D02*
X108402380Y-119554761D01*
X107402380Y-119221428D01*
X107878571Y-138691428D02*
X107926190Y-138548571D01*
X107973809Y-138500952D01*
X108069047Y-138453333D01*
X108211904Y-138453333D01*
X108307142Y-138500952D01*
X108354761Y-138548571D01*
X108402380Y-138643809D01*
X108402380Y-139024761D01*
X107402380Y-139024761D01*
X107402380Y-138691428D01*
X107450000Y-138596190D01*
X107497619Y-138548571D01*
X107592857Y-138500952D01*
X107688095Y-138500952D01*
X107783333Y-138548571D01*
X107830952Y-138596190D01*
X107878571Y-138691428D01*
X107878571Y-139024761D01*
X108402380Y-137548571D02*
X108402380Y-138024761D01*
X107402380Y-138024761D01*
X107878571Y-137215238D02*
X107878571Y-136881904D01*
X108402380Y-136739047D02*
X108402380Y-137215238D01*
X107402380Y-137215238D01*
X107402380Y-136739047D01*
X108021428Y-136310476D02*
X108021428Y-135548571D01*
X108402380Y-135072380D02*
X107402380Y-135072380D01*
X107878571Y-135072380D02*
X107878571Y-134500952D01*
X108402380Y-134500952D02*
X107402380Y-134500952D01*
X108402380Y-134024761D02*
X107402380Y-134024761D01*
X108116666Y-133691428D01*
X107402380Y-133358095D01*
X108402380Y-133358095D01*
X108021428Y-132881904D02*
X108021428Y-132120000D01*
X108402380Y-131120000D02*
X108402380Y-131691428D01*
X108402380Y-131405714D02*
X107402380Y-131405714D01*
X107545238Y-131500952D01*
X107640476Y-131596190D01*
X107688095Y-131691428D01*
X107402380Y-130500952D02*
X107402380Y-130405714D01*
X107450000Y-130310476D01*
X107497619Y-130262857D01*
X107592857Y-130215238D01*
X107783333Y-130167619D01*
X108021428Y-130167619D01*
X108211904Y-130215238D01*
X108307142Y-130262857D01*
X108354761Y-130310476D01*
X108402380Y-130405714D01*
X108402380Y-130500952D01*
X108354761Y-130596190D01*
X108307142Y-130643809D01*
X108211904Y-130691428D01*
X108021428Y-130739047D01*
X107783333Y-130739047D01*
X107592857Y-130691428D01*
X107497619Y-130643809D01*
X107450000Y-130596190D01*
X107402380Y-130500952D01*
X105338571Y-97178571D02*
X105386190Y-97035714D01*
X105433809Y-96988095D01*
X105529047Y-96940476D01*
X105671904Y-96940476D01*
X105767142Y-96988095D01*
X105814761Y-97035714D01*
X105862380Y-97130952D01*
X105862380Y-97511904D01*
X104862380Y-97511904D01*
X104862380Y-97178571D01*
X104910000Y-97083333D01*
X104957619Y-97035714D01*
X105052857Y-96988095D01*
X105148095Y-96988095D01*
X105243333Y-97035714D01*
X105290952Y-97083333D01*
X105338571Y-97178571D01*
X105338571Y-97511904D01*
X105195714Y-96083333D02*
X105862380Y-96083333D01*
X105195714Y-96511904D02*
X105719523Y-96511904D01*
X105814761Y-96464285D01*
X105862380Y-96369047D01*
X105862380Y-96226190D01*
X105814761Y-96130952D01*
X105767142Y-96083333D01*
X105195714Y-95702380D02*
X105195714Y-95178571D01*
X105862380Y-95702380D01*
X105862380Y-95178571D01*
X105195714Y-94892857D02*
X105195714Y-94369047D01*
X105862380Y-94892857D01*
X105862380Y-94369047D01*
X105814761Y-93607142D02*
X105862380Y-93702380D01*
X105862380Y-93892857D01*
X105814761Y-93988095D01*
X105719523Y-94035714D01*
X105338571Y-94035714D01*
X105243333Y-93988095D01*
X105195714Y-93892857D01*
X105195714Y-93702380D01*
X105243333Y-93607142D01*
X105338571Y-93559523D01*
X105433809Y-93559523D01*
X105529047Y-94035714D01*
X105862380Y-93130952D02*
X105195714Y-93130952D01*
X105386190Y-93130952D02*
X105290952Y-93083333D01*
X105243333Y-93035714D01*
X105195714Y-92940476D01*
X105195714Y-92845238D01*
X111831428Y-91810952D02*
X111831428Y-91049047D01*
X112212380Y-91430000D02*
X111450476Y-91430000D01*
M02*
